<svg fill="none" height="1474" viewBox="0 0 595 1474" width="595" xmlns="http://www.w3.org/2000/svg"><g stroke-linejoin="round"><path d="m264.15 773.77h86.5" stroke="#000" stroke-linecap="round"/><path d="m564.4 817.47h-59.83" stroke="#000" stroke-linecap="round"/><path d="m504.57 1044.32v-226.85" stroke="#000" stroke-linecap="round"/><path d="m538.65 498.01c-5.17 0-9.4-4.23-9.4-9.4s4.23-9.4 9.4-9.4 9.4 4.23 9.4 9.4-4.23 9.4-9.4 9.4z" stroke="#000" stroke-linecap="round"/><path d="m510.661 529.76c-5.17 0-9.4-4.23-9.4-9.4s4.23-9.4 9.4-9.4 9.4 4.23 9.4 9.4-4.23 9.4-9.4 9.4z" stroke="#000" stroke-linecap="round"/><path d="m538.65 529.87c-6.48 0-11.77-5.3-11.77-11.77s5.3-11.77 11.77-11.77 11.77 5.3 11.77 11.77-5.3 11.77-11.77 11.77z" stroke="#000" stroke-linecap="round"/><path d="m510.66 502.65c-6.48 0-11.77-5.3-11.77-11.77s5.3-11.77 11.77-11.77 11.77 5.3 11.77 11.77-5.3 11.77-11.77 11.77z" stroke="#000" stroke-linecap="round"/><path d="m259.53 553.19h81.51" stroke="#000" stroke-linecap="round"/><path d="m341.04 553.19c1.64-.17 3.49 1.69 3.33 3.33" stroke="#000" stroke-linecap="round"/><path d="m256.2 638.44h88.17" stroke="#000" stroke-linecap="round"/><path d="m351.021 560.08v83.35" stroke="#000" stroke-linecap="round"/><path d="m533.94 373.12h-40.75" stroke="#000" stroke-linecap="round"/><path d="m487.36 367.3v-59.05" stroke="#000" stroke-linecap="round"/><path d="m493.19 302.43h40.75" stroke="#000" stroke-linecap="round"/><path d="m539.76 308.25v25.65" stroke="#000" stroke-linecap="round"/><path d="m539.76 367.3c.29 2.86-2.96 6.11-5.82 5.82" stroke="#000" stroke-linecap="round"/><path d="m533.94 302.43c2.86-.29 6.11 2.96 5.82 5.82" stroke="#000" stroke-linecap="round"/><path d="m487.36 308.25c-.29-2.86 2.96-6.11 5.82-5.82" stroke="#000" stroke-linecap="round"/><path d="m493.19 373.12c-2.86.29-6.11-2.96-5.82-5.82" stroke="#000" stroke-linecap="round"/><path d="m351.021 643.43v1.66" stroke="#000" stroke-linecap="round"/><path d="m564.4 252.76h-1.67" stroke="#000" stroke-linecap="round"/><path d="m562.73 252.76h-83.35" stroke="#000" stroke-linecap="round"/><path d="m539.76 339.65v27.65" stroke="#000" stroke-linecap="round"/><path d="m479.38 252.76v307.32" stroke="#000" stroke-linecap="round"/><path d="m403.67 1021.86v-13.3" stroke="#000" stroke-linecap="round"/><path d="m451.49 1044.32v-22.46" stroke="#000" stroke-linecap="round"/><path d="m403.67 1021.86v22.46" stroke="#000" stroke-linecap="round"/><path d="m451.49 1008.56v13.3" stroke="#000" stroke-linecap="round"/><path d="m504.78 817.26c-.1-.01-.22.11-.21.21" stroke="#000" stroke-linecap="round"/><path d="m504.57 1042.86c-.01-.1.11-.22.21-.21" stroke="#000" stroke-linecap="round"/><path d="m113.61 1033.09v-7.49h-113.109634v7.49z" stroke="#000" stroke-linecap="round"/><path d="m351.48 984.44h-88.16" stroke="#000" stroke-linecap="round"/><path d="m479.38 560.08h-128.36" stroke="#000" stroke-linecap="round"/><path d="m370.19 780.25h194.21" stroke="#000" stroke-linecap="round"/><path d="m344.37 638.44v-81.92" stroke="#000" stroke-linecap="round"/><path d="m256.2 556.52c-.17-1.64 1.69-3.49 3.33-3.33" stroke="#000" stroke-linecap="round"/><path d="m256.2 638.44v-81.92" stroke="#000" stroke-linecap="round"/><path d="m264.15 678.73h86.5v98.28h-3v3.24h-80.51v-3.24h-2.99z" stroke="#000" stroke-linecap="round"/><path d="m370.19 770.65h194.21" stroke="#000" stroke-linecap="round"/><path d="m451.49 1008.56v13.3" stroke="#000" stroke-linecap="round"/><path d="m403.67 979.31v29.24" stroke="#000" stroke-linecap="round"/><path d="m451.49 979.31c0-2.93-.49-6.07-1.68-9.14s-3.1-6.06-5.39-8.46c-4.59-4.8-10.71-7.22-16.84-7.22s-12.25 2.43-16.84 7.22c-2.29 2.4-4.2 5.39-5.39 8.46s-1.67 6.21-1.68 9.14" stroke="#000" stroke-linecap="round"/><path d="m451.49 1008.56v-29.24" stroke="#000" stroke-linecap="round"/><path d="m403.67 1021.86v22.46" stroke="#000" stroke-linecap="round"/><path d="m451.49 1044.32v-22.46" stroke="#000" stroke-linecap="round"/><path d="m403.67 1021.86v-13.3" stroke="#000" stroke-linecap="round"/><path d="m403.67 1044.32h47.82" stroke="#000" stroke-linecap="round"/><path d="m403.67 1021.86h47.82" stroke="#000" stroke-linecap="round"/><path d="m551.76 348v-15.35c.15 0-1.53 0-3.01 0s-3.16 0-3.01 0v1.25c-.19 0-.39 0-.61 0-.48 0-1 0-1.56 0-.55 0-1.14 0-1.75 0s-1.24 0-1.9 0c-.45 0-.91 0-1.38 0-.46 0-.93 0-1.4 0s-.94 0-1.41 0-.93 0-1.4 0c-.46 0-.92 0-1.37 0s-.89 0-1.33 0c-.07 0-.14 0-.22 0-.04 0-.07 0-.11 0-.32 0-.63 0-.94 0-.2 0-.41 0-.61 0-.15 0-.3 0-.44 0-.02 0-.05 0-.07 0s-.05 0-.1 0c-.08 0-.13 0-.18 0-.07 0-.14 0-.21 0-.14 0-.29 0-.43 0-.29 0-.58 0-.86 0-.29 0-.57 0-.85 0s-.55 0-.82 0-.52 0-.77 0-.49 0-.72 0-.45 0-.67 0c-.21 0-.42 0-.61 0-.39 0-.74 0-1.04 0-.15 0-.3 0-.43 0-.14 0-.26 0-.37 0s-.22 0-.31 0-.17 0-.24 0-.13 0-.17 0-.08 0-.1 0c-.3 0-.55.05-.78.14s-.44.24-.61.41c-.18.18-.32.39-.41.61-.07.17-.12.35-.13.54v.37c.02.18.06 2.37.13 2.54.09.23.24.44.41.61.18.18.39.32.61.41.23.09.48.14.78.14h.1.17.24.31.37.43 1.04.61.67.72.77.82.85.86.43.21.18.1.07.44.61.94.11.22 1.33 1.37 1.4 1.41 1.4 1.38 1.9 1.75 1.56.61v8.35h6.02z" stroke="#000" stroke-linecap="round"/><path d="m554.01 859.9-.14-.14" stroke="#000" stroke-linecap="round"/><path d="m553.87 859.76-.18-.16" stroke="#000" stroke-linecap="round"/><path d="m553.69 859.6-.2-.09" stroke="#000" stroke-linecap="round"/><path d="m553.49 859.51-.23-.04" stroke="#000" stroke-linecap="round"/><path d="m553.26 859.47h-.16" stroke="#000" stroke-linecap="round"/><path d="m553.101 859.47h-12.07" stroke="#000" stroke-linecap="round"/><path d="m541.03 859.47h-.46" stroke="#000" stroke-linecap="round"/><path d="m540.38 859.27-.09-.34" stroke="#000" stroke-linecap="round"/><path d="m540.29 858.93-.06-.51" stroke="#000" stroke-linecap="round"/><path d="m540.51 859.45-.12-.16" stroke="#000" stroke-linecap="round"/><path d="m558.86 859.07-.1.16" stroke="#000" stroke-linecap="round"/><path d="m559.08 858.44-.22.63" stroke="#000" stroke-linecap="round"/><path d="m559.13 858.18-.04.17" stroke="#000" stroke-linecap="round"/><path d="m559.141 858.05-.01.13" stroke="#000" stroke-linecap="round"/><path d="m559.15 855.5v2.53" stroke="#000" stroke-linecap="round"/><path d="m559.131 855.32.01.15" stroke="#000" stroke-linecap="round"/><path d="m559.09 855.18.04.14" stroke="#000" stroke-linecap="round"/><path d="m558.86 854.46.22.63" stroke="#000" stroke-linecap="round"/><path d="m558.76 854.3.1.16" stroke="#000" stroke-linecap="round"/><path d="m558.5 853.88.19.31" stroke="#000" stroke-linecap="round"/><path d="m558.36 853.75.14.13" stroke="#000" stroke-linecap="round"/><path d="m540.23 858.42-.019-.65" stroke="#000" stroke-linecap="round"/><path d="m540.211 857.77.019-2.66" stroke="#000" stroke-linecap="round"/><path d="m540.23 855.11.06-.51" stroke="#000" stroke-linecap="round"/><path d="m540.29 854.6.09-.34" stroke="#000" stroke-linecap="round"/><path d="m540.39 854.23.12-.14" stroke="#000" stroke-linecap="round"/><path d="m540.571 854.06h12.53" stroke="#000" stroke-linecap="round"/><path d="m553.1 854.06h.16" stroke="#000" stroke-linecap="round"/><path d="m553.26 854.06.23-.04" stroke="#000" stroke-linecap="round"/><path d="m553.49 854.02.2-.09" stroke="#000" stroke-linecap="round"/><path d="m553.69 853.93.18-.16" stroke="#000" stroke-linecap="round"/><path d="m553.87 853.77.13-.14" stroke="#000" stroke-linecap="round"/><path d="m554 853.63.11-.08" stroke="#000" stroke-linecap="round"/><path d="m554.11 853.55.15-.14" stroke="#000" stroke-linecap="round"/><path d="m558.69 859.35-.19.3" stroke="#000" stroke-linecap="round"/><path d="m558.5 859.65-.14.13" stroke="#000" stroke-linecap="round"/><path d="m558.36 859.78-.09.12" stroke="#000" stroke-linecap="round"/><path d="m554.261 853.41.3-.19" stroke="#000" stroke-linecap="round"/><path d="m554.67 853.15.16-.1" stroke="#000" stroke-linecap="round"/><path d="m554.83 853.05.64-.22" stroke="#000" stroke-linecap="round"/><path d="m555.47 852.83.49-.06" stroke="#000" stroke-linecap="round"/><path d="m558.271 859.9-.12.09" stroke="#000" stroke-linecap="round"/><path d="m558.15 859.99-.13.13" stroke="#000" stroke-linecap="round"/><path d="m558.021 860.12-.301.19" stroke="#000" stroke-linecap="round"/><path d="m557.601 860.39-.15.09" stroke="#000" stroke-linecap="round"/><path d="m557.45 860.48-.64.23" stroke="#000" stroke-linecap="round"/><path d="m555.96 852.77.11-.01" stroke="#000" stroke-linecap="round"/><path d="m556.211 852.76.1.01" stroke="#000" stroke-linecap="round"/><path d="m556.311 852.77.5.05" stroke="#000" stroke-linecap="round"/><path d="m556.81 852.82.64.23" stroke="#000" stroke-linecap="round"/><path d="m557.45 853.05.16.1" stroke="#000" stroke-linecap="round"/><path d="m557.72 853.22.301.19" stroke="#000" stroke-linecap="round"/><path d="m558.02 853.41.14.13" stroke="#000" stroke-linecap="round"/><path d="m558.16 853.54.12.09" stroke="#000" stroke-linecap="round"/><path d="m558.28 853.63.08.12" stroke="#000" stroke-linecap="round"/><path d="m556.811 860.71-.67.07" stroke="#000" stroke-linecap="round"/><path d="m556.141 860.78-.67-.07" stroke="#000" stroke-linecap="round"/><path d="m555.47 860.71-.64-.23" stroke="#000" stroke-linecap="round"/><path d="m554.83 860.48-.15-.09" stroke="#000" stroke-linecap="round"/><path d="m554.641 860.37-.08-.06" stroke="#000" stroke-linecap="round"/><path d="m554.561 860.31-.3-.19" stroke="#000" stroke-linecap="round"/><path d="m554.26 860.12-.19-.19" stroke="#000" stroke-linecap="round"/><path d="m514.26 832.6h32.1" stroke="#000" stroke-linecap="round"/><path d="m512.8 879.47v-45.41" stroke="#000" stroke-linecap="round"/><path d="m546.36 880.94h-32.1" stroke="#000" stroke-linecap="round"/><path d="m547.82 834.06v20" stroke="#000" stroke-linecap="round"/><path d="m547.82 859.47v20" stroke="#000" stroke-linecap="round"/><path d="m547.82 879.47c.07.72-.74 1.54-1.46 1.46" stroke="#000" stroke-linecap="round"/><path d="m546.36 832.6c.72-.07 1.54.74 1.46 1.46" stroke="#000" stroke-linecap="round"/><path d="m512.8 834.06c-.07-.72.74-1.54 1.46-1.46" stroke="#000" stroke-linecap="round"/><path d="m514.26 880.94c-.72.07-1.54-.74-1.46-1.46" stroke="#000" stroke-linecap="round"/><path d="m258.95 856.84v-106.6h-7.69v106.6z" stroke="#000" stroke-linecap="round"/><path d="m293.811 1057.18v-7.49h-106.6v7.49z" stroke="#000" stroke-linecap="round"/><path d="m113.61 1033.09h-8.37" stroke="#000" stroke-linecap="round"/><path d="m99.5703 1033.09h-5.6699" stroke="#000"/><path d="m88.2305 1033.09h-5.67" stroke="#000"/><path d="m76.8906 1033.09h-5.67" stroke="#000"/><path d="m65.5503 1033.09h-5.6701" stroke="#000"/><path d="m54.21 1033.09h-5.66" stroke="#000"/><path d="m42.8799 1033.09h-5.6701" stroke="#000"/><path d="m31.54 1033.09h-5.67" stroke="#000"/><path d="m20.2002 1033.09h-5.6699" stroke="#000"/><path d="m8.86035 1033.09h-8.369994v-8.37" stroke="#000" stroke-linecap="round"/><path d="m.490234 1019.05v-5.66" stroke="#000"/><path d="m.490234 1007.72v-5.67" stroke="#000"/><path d="m.490234 996.38v-5.67" stroke="#000"/><path d="m.490234 985.04v-5.67" stroke="#000"/><path d="m.490234 973.7v-5.67" stroke="#000"/><path d="m.490234 962.36v-5.67" stroke="#000"/><path d="m.490234 951.02v-5.67" stroke="#000"/><path d="m.490234 939.68v-5.66" stroke="#000"/><path d="m.490234 928.35v-8.37c1.999996.1 4.010036.24 6.040036.44" stroke="#000"/><path d="m12.1505 921.1c1.85.27 3.72.58 5.58.93" stroke="#000"/><path d="m23.2803 923.21c1.83.43 3.65.91 5.48 1.43" stroke="#000"/><path d="m34.17 926.33c1.78.6 3.56 1.24 5.33 1.93" stroke="#000"/><path d="m44.7303 930.43c1.72.76 3.4301 1.57 5.1301 2.42" stroke="#000"/><path d="m54.8905 935.51c1.65.92 3.27 1.88 4.88 2.88" stroke="#000"/><path d="m64.5106 941.5c1.55 1.07 3.08 2.18 4.59 3.33" stroke="#000"/><path d="m73.51 948.38c1.45 1.22 2.86 2.47 4.24 3.76" stroke="#000"/><path d="m81.8206 956.1c1.32 1.35 2.6101 2.74 3.8601 4.15" stroke="#000"/><path d="m89.3199 964.59c1.18 1.48 2.3301 2.99 3.4301 4.51" stroke="#000"/><path d="m95.9501 973.79c1.03 1.59 2.0201 3.21 2.9601 4.84" stroke="#000"/><path d="m101.62 983.6c.86 1.69 1.68 3.4 2.45 5.11" stroke="#000"/><path d="m106.26 993.94c.69 1.77 1.32 3.55 1.91 5.34" stroke="#000"/><path d="m109.8 1004.71c.5 1.84.95 3.67 1.35 5.51" stroke="#000"/><path d="m112.21 1015.79c.31 1.88.56 3.74.76 5.6" stroke="#000" stroke-linecap="round"/><path d="m113.44 1027.04c.11 2.03.17 4.05.17 6.05" stroke="#000" stroke-linecap="round"/><path d="m555.07 538.54v-68.11h-66.54v68.11z" stroke="#000" stroke-linecap="round"/><path d="m593.51 395.16v-114.77" stroke="#000" stroke-linecap="round"/><path d="m464.18 1.33984h-194.63" stroke="#000" stroke-linecap="round"/><path d="m.490234 554.85v-194.62" stroke="#000" stroke-linecap="round"/><path d="m593.51 1033.92v-114.77" stroke="#000" stroke-linecap="round"/><path d="m244.601 1472.66h-114.78" stroke="#000" stroke-linecap="round"/><path d="m244.601 1462h-114.78" stroke="#000" stroke-linecap="round"/><path d="m582.851 1033.92v-114.77" stroke="#000" stroke-linecap="round"/><path d="m584.851 395.16v-114.77" stroke="#000" stroke-linecap="round"/><path d="m464.18 10h-194.63" stroke="#000" stroke-linecap="round"/><path d="m9.15039 554.85v-194.62" stroke="#000" stroke-linecap="round"/><path d="m366.86 9.99982v-8.65998" stroke="#000" stroke-linecap="round"/><path d="m.490356 457.54h8.660034" stroke="#000" stroke-linecap="round"/><path d="m564.4 395.16v-114.77" stroke="#000" stroke-linecap="round"/><path d="m29.6006 554.85v-194.62" stroke="#000" stroke-linecap="round"/><path d="m464.18 30.4502h-194.63" stroke="#000" stroke-linecap="round"/><path d="m244.601 1443.55h-115.41" stroke="#000" stroke-linecap="round"/><path d="m564.4 1033.92v-115.41" stroke="#000" stroke-linecap="round"/><path d="m.490234 919.98v113.11" stroke="#000" stroke-linecap="round"/><path d="m102.46 1178.23h-72.86" stroke="#000" stroke-linecap="round"/><path d="m102.46 1068.44v219.57" stroke="#000" stroke-linecap="round"/><path d="m109.45 1288.01v-219.57" stroke="#000" stroke-linecap="round"/><path d="m109.45 1288.01h-79.8498" stroke="#000" stroke-linecap="round"/><path d="m555.4 728.02c.94-.91 1.59-2.04 1.99-3.24h7.01v-5.25h-7.02c-.4-1.21-1.06-2.34-1.98-3.25-1.56-1.53-3.82-2.43-5.87-2.43s-3.9.9-5.24 2.43-2.15 3.71-2.17 5.87.74 4.32 2.17 5.87 3.51 2.51 5.24 2.43c1.93.08 4.28-.88 5.87-2.43z" stroke="#000" stroke-linecap="round"/><path d="m84.3198 1293.24c-4.35.1-8.6899.31-13.0399.26-4.05-.04-8.1-.45-12.15-.52-1.87-.03-3.76.55-5.63.52-5.53-.1-11.06-.36-16.6-.55-1.09-.04-2.18 0-3.84 0 .3 5.74.66 11.17.84 16.6.06 1.67-.5 3.35-.53 5.04-.08 4.44-.1 8.89 0 13.34.1 4.55.48 9.09.55 13.63.1 7.11.0299 14.22.0299 21.34 0 5.04.05 10.08-.01 15.11-.17 13.44-.4199 26.87-.5699 40.31-.07 6.52-.01 13.04-.01 19.75 2.36.28 4.14.65 5.93.67 7.9.07 15.81-.03 23.71.06 3.36.04 6.7199.52 10.0799.54 11.66.07 23.3101.03 34.9702.03h2.96v-3.56c0-1.58.04-3.16 0-4.74-.18-5.43-.4-10.87-.58-16.3-.06-1.88 0-3.75 0-5.63v-23.71c0-7.21-.11-14.43.03-21.63.18-9.49.62-18.97.83-28.45.08-3.65-.24-7.31-.25-10.96-.04-9.78-.01-19.56-.01-29.34v-2.36c-2.59.32-4.85.73-7.11.83-1.37.06-2.76-.51-4.1501-.51-3.16 0-6.32.22-9.48.24-1.88.01-4.05.12-5.93.02" stroke="#999" stroke-linecap="round"/><path d="m110.38 1412.38c9.61-1.21 18.63-5.04 25.79-11.57 2.22-2.02 4.35-4.14 6.53-6.22 2.54-2.43 2.83-5.84 3.16-8.9 1.51-14.15-2.5-26.69-12.08-37.3-1.9-2.1-4.25-3.61-7.38-2.71-.36.11-.9.18-1.16-.01-4.17-3.03-8.99-2.2-13.65-2.35" stroke="#999" stroke-linecap="round"/><path d="m90.8406 1353.1v-7.11h-11.4099v43.86h11.7099c0-12.15 0-24.01-.01-35.86 0-.2-.19-.4-.28-.59" stroke="#999" stroke-linecap="round"/><path d="m50.6204 1376.43v24.48h3.49v-61.23h-3.58v35.86c0 .2.06.4.09.59" stroke="#999" stroke-linecap="round"/><path d="m139.72 1397.47c-3.67-1.47-3.73-4.88-3.82-7.62-.07-2.17.31-4.4-.08-6.51-1-5.47-1.91-11.01-3.62-16.27-1.33-4.06-3.81-7.75-5.81-11.6-.53-1.02-1.22-1.96-1.76-2.97-1.85-3.45-1.8-3.73.88-6.52" stroke="#999" stroke-linecap="round"/><path d="m50.4203 1376.96h-8.63v-14.37h8.74" stroke="#999" stroke-linecap="round"/><path d="m54.2501 1377.05c.69-.05 1.39.02 2.37-.06v-14.45c-.98-.08-1.68.01-2.37-.04" stroke="#999" stroke-linecap="round"/><path d="m116.11 621.84c1.18-5.64-.62-10.43-3.93-14.95-6.14-8.39-14.5701-13.02-24.4101-15.52-1.31-.33-2.64-.61-3.96-.92" stroke="#999" stroke-linecap="round"/><path d="m73.7505 586.8c1.22-3.66 2.69-8.09 4.34-11.55 3.77-7.89 9.3799-14.15 17.6099-17.69.43-.18 1.01-.02 1.74-.02-3.25 9.15-9.3399 16.86-14.5499 24.68" stroke="#999" stroke-linecap="round"/><path d="m82.9004 582.23c-2.13 2.34-6.62 6.48-8.76 8.81" stroke="#999" stroke-linecap="round"/><path d="m74.3599 640.43c2.78-3.03 3.7501-6.85 4.9201-10.65 1.87-6.12.04-12.36.85-18.53" stroke="#999" stroke-linecap="round"/><path d="m74.0605 641.35c-1.12-4.47-2.6501-8.89-3.2401-13.42-.61-4.71-.7899-9.58-.2999-14.3.6-5.74 2.1399-11.39 3.1899-17.09.09-.5-.3699-1.11-.5699-1.67" stroke="#999" stroke-linecap="round"/><path d="m116.11 621.84c-3.87-2.68-9.75-5.99-13.71-8.53-.62-.4-1.35-.7-1.81-1.23-6.2397-7.23-14.6597-11.61-22.2697-17.05-.71-.51-2.03-1.02-2.74-1.52" stroke="#999" stroke-linecap="round"/><path d="m72.2302 591.67c-8.88-4.86-14.4899-13.05-18.5899-21.94-3.5-7.58-3.7901-8.56-3.3101-11.19 11.49 6.28 19.9 14.95 23.12 27.95" stroke="#999" stroke-linecap="round"/><path d="m73.7499 586.8c.11 1.23.22 2.45.39 4.24 3.49-.31 7.1.21 9.9-1.05 7.28-3.27 13.42-9.19 15.09-13.58-3.18 1.13-6.36 2.25-9.53 3.38-2.24.8-4.47 1.62-6.71 2.44" stroke="#999" stroke-linecap="round"/><path d="m73.1406 594.87c-6.06 9.25-14.48 18.28-22.86 25.44-.88.75-1.82 1.44-2.74 2.13-.25.19-.57.28-1.03.49-.19-.55-.5699-1.07-.4499-1.39 2.41-6.25 4.3599-12.69 8.7699-18.02 4.29-5.2 9.84-8.38 15.88-10.95.54-.23 1.02-.6 1.53-.9" stroke="#999" stroke-linecap="round"/><path d="m62.1105 597.07c-2.95-.71-7.44-1.39-10.27-2.41-4.1-1.48-8.05-3.36-12.06-5.08-.15-.32-.3001-.64-.4601-.96.61-.3 1.1901-.68 1.8301-.9 7.24-2.5 14.56-2.65 21.95-.65.45.12 1.66-.34 2.17-.44" stroke="#999" stroke-linecap="round"/><path d="m89.9102 603.25c-2.08 4.37-10.1301 8.17-9.7701 8-.85-6.05-1.5-11.49-4.52-16.24-.23-.36-.03-1-.03-1.5" stroke="#999" stroke-linecap="round"/><path d="m80.1504 570.04c-5-2.66-10.15-3.53-15.54-1.22" stroke="#999" stroke-linecap="round"/><path d="m48.7704 585.96c.87-4.47 2.92-9 6.09-12.26" stroke="#999" stroke-linecap="round"/><path d="m70.4702 614.22c-3.11-.69-7.51-1.04-9.87-3.71" stroke="#999" stroke-linecap="round"/><path d="m93.9498 593.08c.6-2.89.63-6.16-1-8.72" stroke="#999" stroke-linecap="round"/><path d="m53.0303 605.08c-3.26-2.93-4.4801-7.33-4.5701-11.58" stroke="#999" stroke-linecap="round"/><path d="m90.6406 579.42c-.81-1.12-2.05-3.09-2.86-4.2" stroke="#999" stroke-linecap="round"/><path d="m55.1603 1188.78c.41.81 1.0199 1.58 1.1899 2.44 1.61 8.03 3.1401 16.07 4.8101 24.66 7.68-1.19 15.1699-2.36 22.8299-3.55-2.01-9.25-4.29-18.99-6.27-28.12" stroke="#999" stroke-linecap="round"/><path d="m61.8302 1277.46c-.23-2.06-.4199-4.72-.6499-6.85h-20.3501c0 1.79.4001 3.72-1.6499 4.45.28 1.01.4699 1.72.6999 2.56h24.4001c.07.41.2199 1.32.4199 2.5-7.09.24-13.8.43-20.51.72-1.92.08-2.34-1.51-2.19-3.08" stroke="#999" stroke-linecap="round"/><path d="m77.71 1184.21c-7.11 1.52-15.44 3.05-22.55 4.57" stroke="#999" stroke-linecap="round"/><path d="m61.5103 1274.11c-4.67.2-9.9.49-14.58.57-1.93.03-4.47-.54-6.4-.74" stroke="#999" stroke-linecap="round"/><path d="m44.8 1267.71h15.11c.05 1.11.09 1.93.13 2.74" stroke="#999" stroke-linecap="round"/><path d="m44.8003 1267.71v2.74" stroke="#999" stroke-linecap="round"/><path d="m481.66 1155.46c-3.25-3.49-6.55-6.94-9.75-10.49-4.74-5.26-9.5-10.51-14.08-15.92-3.77-4.45-7.48-4.59-12.76-2.33-5.55 2.38-11.73 3.31-17.63 4.88-1.62.43-3.23.88-4.83 1.31 1.68 3.13 3.14 5.84 4.42 8.23-5.87 6.08-12.96 5.74-19.82 5.18-9.04-.75-18-1.78-27.12-1.14-3.19.23-6.47-1.77-9.75-1.92-7.09-.32-14.21.02-21.32-.15-3.98-.1-7.96-1.01-11.93-.96-6.15.07-12.28.78-18.43.97-5.66.18-11.33.16-16.98 0-3.26-.1-6.52-.57-9.76-1.06-6.26-.94-11.17 1.09-14.44 6.54-3.14 5.23-5.05 10.76-3.28 16.97 3.53 12.41 5.32 25.06 6.31 37.94.7 9.06-2.66 17.14-4.11 25.68-.86 5.04-1.98 10.1-2.09 15.18-.23 10.59-.37 21.24.43 31.79.56 7.42 2.77 14.7 4.15 22.06 2.34 12.48 2.25 24.87-.99 37.24-.88 3.36-.78 6.97-1.17 10.46-.41 3.64-.87 7.27-1.42 11.88 1.48 4.03 3.45 5.16 8.65 4.01 1.71-.38 3.35-1.18 5.07-1.38 3.47-.4 6.98-.51 10.47-.78 4.58-.34 9.2-.43 13.72-1.14 10.09-1.58 20.17-2.16 30.37-1.43 8.06.58 16.15.65 24.21 1.16 6.64.42 13.25 1.18 19.88 1.77 3.01.27 6.02.6 9.04.71 11.92.41 23.89.26 35.76 1.31 6.01.53 11.96 2.82 17.66 5.03 2.22.86 3.85 3.55 5.45 5.64 2.79 3.63 5.1 7.65 8.06 11.11 2.38 2.78 4.77 2.02 6.44-1.38 3.79-7.69 8.02-14.79 14.99-20.47 5.6-4.56 9.8-10.94 14.18-16.83 2.11-2.83 2.27-6.71 1.09-10.02-2.23-6.28-.93-12.53-.68-18.83.14-3.36.26-6.84-.42-10.1-1.18-5.68-1.09-11.29-.71-17.01.24-3.7-.19-7.49-.68-11.19-.8-6.05-2.68-12.06-2.66-18.08.03-9.4 1.27-18.79 1.98-28.19.06-.84.17-1.72-.02-2.52-1.4-5.91-3.23-11.75-4.21-17.73-.96-5.83-1.07-11.79-1.55-17.69-.61-7.47-.42-15.12-2.06-22.35-1.24-5.47-4.8-10.42-7.33-15.6" stroke="#999" stroke-linecap="round"/><path d="m530.81 1258.46c3.98.93 7.97 1.85 11.96 2.78.35 6.37.88 12.63 1 18.9.17 8.67.2 17.35-.04 26.02-.09 3.15-1.54 6.25-1.64 9.4-.18 6.13-.06 12.3.34 18.43.32 5.06 1.21 10.08 1.86 15.2-.83.18-1.31.15-1.55.37-5.67 5.14-11.91 3.2-18.08 1.41-3.59-1.04-7.01-2.02-10.9-.86-1.64.49-3.88-.61-5.71-1.35-1.22-.5-2.2-1.62-3.11-2.33.43-5.9 1.31-11.7 1.18-17.47-.23-9.77-1.19-19.51-1.67-29.28-.22-4.57 0-9.15-.05-13.73-.02-1.57-.32-3.13-.33-4.7-.04-5.79-.02-11.57-.02-17.67 6.85-.53 13-1.33 19.16-1.35 3.15-.01 5.41-2.42 7.59-3.75" stroke="#999" stroke-linecap="round"/><path d="m489.61 1358.57c7.59-.12 15.18-.32 22.77-.34 5.66-.01 11.32.28 16.99.32 9.03.06 18.07.02 27.47.02 0-2.17.08-4.34-.01-6.5-.45-10.72-1.05-21.44-1.4-32.17-.2-6.26-.12-12.53 0-18.79.07-3.86.54-7.71.67-11.57.12-3.85.09-7.71.02-11.56-.21-11.2-.52-22.41-.7-33.61-.18-11.68-.15-23.37-.41-35.06-.16-7.11-.75-14.21-1.01-21.33-.1-2.64.31-5.3.3-7.95-.02-3.86-.27-7.71-.32-11.57-.06-4.82-.01-9.64-.01-15.17-5.43.24-10.85.58-16.26.68-3.61.07-7.24-.43-10.84-.28-8.2.34-16.38 1.05-24.58 1.36-6.02.22-12.05.03-18.07.06-.72 0-1.45.22-2.17.35" stroke="#999" stroke-linecap="round"/><path d="m534.86 1259.4c1.21-.2 4.89-.98 5.96-1.16 2.35-3.93 1.48-7.83.47-11.7-1.14-4.35-1.579-8.67-.009-13.02.28-.78.36-1.68.37-2.52.14-8.55.24-17.11.38-25.66.09-5.54.409-11.09.279-16.62-.06-2.78-1.43-5.58-1.26-8.31.32-5.09 1.341-10.13 2.041-15.19.1-.71.009-1.45.009-2.17-7.35 0-14.41.63-21.3-.17-7.23-.84-14.25-.57-21.32.87-2.52.76-2.459 3.01-2.149 5.08 1.16 7.61.98 15.18 0 22.78-.17 1.29.27 2.64.31 3.97.15 4.7.02 9.42.44 14.09.42 4.61 1.44 9.15 2.07 13.74.28 2.03.219 4.1.399 6.14.33 3.86.7 7.71 1.08 11.57.34 3.5.8 6.98 1.05 10.48.16 2.29.031 4.6.031 7.53 9.29.28 18.519-2.75 27.109-.66" stroke="#999" stroke-linecap="round"/><path d="m535.51 1391.1c-2.36-6.95-4.01-14.24-9.75-19.53-7.13-6.57-18.86-9.14-28.2-4.69-3.26 1.55-6.81 2.71-9.7 4.78-5.89 4.24-10.77 9.95-10.98 17.27-.18 6.05-1.68 12.39.79 18.43 3.22 7.87 8.82 13.16 17.01 15.5 3.42.98 7.02 2.24 10.46 2.04 5.7-.34 11.88-.62 16.86-3 6.59-3.16 12.04-8.5 12.76-16.71.4-4.56.51-9.15.75-13.73" stroke="#999" stroke-linecap="round"/><path d="m542.021 1115.7c-.84-4.1-1.481-8.25-2.611-12.26-.62-2.18-1.72-4.45-3.24-6.1-4-4.35-8.03-8.6-14-10.63-8.98-3.06-24.68.63-30.3 8.1-2.61 3.47-5.869 6.52-7.029 11.12-3.16 12.54-3.521 22.79 8.649 31.96 7.29 5.49 15.3 8.23 23.95 8.32 6.18.07 12.34-2.1 16.24-7.75 2.42-3.52 5.221-6.98 6.711-10.89 1.34-3.53 1.15-7.64 1.63-11.5" stroke="#999" stroke-linecap="round"/><path d="m304.59 727.73c-.12-7.23.02-14.47-.47-21.68-.25-3.74-5.31-6.93-10.01-6.84-6.75.12-13.49.42-20.24.73-1.11.05-2.2.56-3 .77-2.9 14.7-.68 28.83 2.3 43.04 3.34 2.51 7.33 2.31 11.17 1.98 5.44-.46 10.86-1.31 16.26-2.13 2.74-.42 3.76-2.66 3.92-5.03.24-3.48.06-6.98.06-10.48" stroke="#999" stroke-linecap="round"/><path d="m382.66 869.17c8.91-2.41 16.79-3.95 25.65-6.55 8.37-2.45 16.61-5.34 24.96-7.88 6.71-2.05 13.48-3.9 20.23-5.8 3.6-1.01 7.23-1.92 10.45-2.77-5.77-16.99-11.53-33.99-17.33-51.09-26.09 9.09-53.83 14.03-79.66 25.18 2.22 7.7 4.14 16.19 7.18 24.27 2.56 6.81 4.29 13.84 6.73 20.65.49 1.37 1.19 2.66 1.79 3.98" stroke="#999" stroke-linecap="round"/><path d="m313.27 996.38c2.29-.24 4.58-.46 6.87-.73 3.98-.46 7.95-.98 11.93-1.42.71-.08 1.45.16 2.22.25.92 9.96 1.83 19.84 2.76 29.94-6.66.85-13.41 1.72-20.94 2.69-1.06-10.07-2.13-20.23-3.2-30.38" stroke="#999" stroke-linecap="round"/><path d="m327.72 688.46c-3.73.48-7.83.6-11.56 1.09-2.53.33-3.5 1.61-4.1 4.31-2.51 11.34-.71 22.47.9 33.63.33 2.27 1.33 4.44 2.03 6.7 8.17 1.06 15.89.42 23.56-.63 2.33-.32 3.75-2.21 4.36-4.62 1.94-7.61 2.55-15.29 1.86-23.14-.36-4.08-.32-8.01-2.09-11.99-1.88-4.23-5-5.1-8.83-5.33-2.04-.12-4.09-.02-6.14-.02" stroke="#999" stroke-linecap="round"/><path d="m525.41 935.31c4.16-1.71 4.72-5.32 4.25-9.02-.46-3.65-.069-6.7 2.121-9.86 1.45-2.1 1.65-5.06 2.49-7.93-3.81-.77-5.251 1.71-5.451 3.34-.7 5.65-3.969 9.58-7.299 13.79-3.04 3.84-1.271 7.93 3.519 9.68" stroke="#999" stroke-linecap="round"/><path d="m521.06 1025.28c.72 1.45 1.82 3.64 2.61 5.22 2.14-1.01 4.24-2.16 6.45-2.98 1.85-.69 3.82-1.31 5.77-1.43 6.5-.41 13.02-.58 19.82-.85-.5-8.38-.99-16.45-1.52-25.23-7.57 0-14.93.02-22.28-.02-1.21 0-6.01-.22-7.21-.35" stroke="#999" stroke-linecap="round"/><path d="m517.82 1018.92v-18.85c10.9.77 19.57-5.94 29.91-7.02.78 1.97 1.871 4.64 2.791 6.95" stroke="#999" stroke-linecap="round"/><path d="m403.26 609.32c-4.54 1.78-5.42 3.25-3.9 7.82.93.43 2 .93 3.01 1.4 2.78-1.05 4.18-2.77 4.15-5.61-.01-2.02-.85-3.29-2.91-3.61" stroke="#999" stroke-linecap="round"/><path d="m517.82 1003.61c-2.18.82-4.36 1.63-6.55 2.46 2.13 6.46 8.62 11.16 6.74 19.23 3.3 0 6.08-.11 8.84.05 1.34.08 5.61.67 6.94 1.04" stroke="#999" stroke-linecap="round"/><path d="m274.59 1012.29c.24 5.06.53 10.12.71 15.18.1 2.77.02 5.54.02 8.67h20.96v-33.07h-21.68v8.85" stroke="#999" stroke-linecap="round"/><path d="m278.21 1028.19c.6 1.45.9 3.15 1.87 4.28 2.23 2.59 5.7 2 7.53-1.03.5-.83 1.01-1.66 1.8-2.94-1.03-2.02-2.15-4.23-3.01-5.93-6.08-1-7.76.26-8.18 5.26" stroke="#999" stroke-linecap="round"/><path d="m372.18 605.34c1.18 5.73 2.8 10.82 7.78 15.02 5.23 4.41 15.17 5.17 21.52 1.66 6.14-3.4 9.85-8.5 10.65-15.25.37-3.14-.52-6.7-1.74-9.7-3.29-8.06-10.14-11.38-18.33-12.31-11.16-1.27-20.9 7.37-19.88 20.22" stroke="#999" stroke-linecap="round"/><path d="m199.961 371.82c8-4.55 21.53-9.77 28.91-11.17 2.37-.81 5.26-.23 7.91-.09 10.5.59 20.76 2.59 30.29 7.03 5.88 2.74 10.56 7.45 14.39 12.64 3.52 4.77 6.89 9.82 9.29 15.21 2.49 5.6 3.839 11.72 5.469 17.67.43 1.57.131 3.36.041 5.04-.2 3.38-.28 6.78-.8 10.11-.42 2.7-1.32 5.33-2.14 7.95-1.14 3.63-1.76 7.64-3.75 10.76-4.98 7.8-7.951 17.3-17.591 21.46-2.94 1.27-5.529 3.54-7.969 5.7-4.8 4.26-10.69 5.46-16.68 6.4-13 2.05-25.84 1.91-37.91-4.11-8.65-4.31-15.48-10.6-21.09-18.69-6.36-9.17-10.77-19.09-12.58-29.81-2.08-12.3-1.11-24.64 5.71-35.71 4.57-7.42 11.31-15.26 18.53-20.4" stroke="#999" stroke-linecap="round"/><path d="m172.17 360.49c1.08-1.61 2.44-2.96 3.44-4.44-2.82-3.88-6.09-4.25-9.66-1.47-3.85 3-6.76 6.74-9.48 10.78-6.33 9.43-11.23 19.52-14.38 30.39-.96 3.32-1 6.95-1.12 10.45-.05 1.44.81 2.91 1.29 4.46 1.22.37 2.42.74 3.7 1.12 2.34-1.89 3.89-3.97 4.78-6.98 3.63-12.27 7.68-24.42 14.5-35.38 1.93-3.1 4.47-5.81 6.93-8.94 7.25 3 14.05 5.81 20.85 8.61.1.04 5.83 3.43 5.89 3.49" stroke="#999" stroke-linecap="round"/><path d="m328.251 343.78c-7.98 2.06-15.95 5.92-22.41 10.82-4.36 3.31-8.51 6.89-12.69 10.43-6.38 5.4-5.03 9.2-1.77 15.48 4.87 9.39 12.4 16.89 19.05 25 1.66 2.03 3.52 4.25 5.79 5.35 4.9 2.38 9.92.08 13.54-2.57 7.83-5.73 15.04-12.36 22.17-18.98 3.61-3.36 3.61-7.82.81-12.92-6.61-12.02-14-23.47-24.47-32.6-.51-.45-1.02-.92-1.44-1.45-1.54-2.01-2.35-4.24-.68-6.47 1.78-2.39 4.42-1.82 6.42-.65 3.42 1.99 6.78 4.24 9.74 6.86 6.29 5.57 11.66 12.04 15.45 19.55 2.86 5.67 5.21 11.66 7.17 17.71 1.62 5 .76 6.17-4.52 9.37-1.65-1.87-3.99-4.84-5.74-6.81" stroke="#999" stroke-linecap="round"/><path d="m227 509.06c-2.77 0-5.55-.01-8.67-.02v4.4c5.45 5.27 12.26 6.67 19.48 6.07 7.74-.65 15.47-1.58 23.13-2.84 6.19-1.02 12.11-3.23 17.35-6.79 2.96-2.01 4.59-4.83 3.05-8.97-2.87-2.56-6.12-.59-9.12.38-12.73 4.09-25.63 7.11-39.07 7.44-1.93.05-3.86.22-5.78.34" stroke="#999" stroke-linecap="round"/><path d="m273.36 468.7c.71 6.27 1.49 12.53 2.09 18.8.38 3.96.49 7.95.72 11.93" stroke="#999" stroke-linecap="round"/><path d="m219.12 480.48c.59 5.18.82 10.44 1.87 15.52.95 4.61 2.96 8.95 6.01 12.69" stroke="#999" stroke-linecap="round"/><path d="m149.921 406.94c6.45 6.98 15.62 11.84 24.89 14.16" stroke="#999" stroke-linecap="round"/><path d="m246.351 406.08c1.2.73 2.33 1.89 3.62 2.1 4.35.7 5.53-1.38 5.42-4.6-.03-.84 0-1.69 0-2.63-2.05-.91-3.5-3.04-6.57-1.49-3.12 1.58-2.24 3.97-2.48 6.27" stroke="#999" stroke-linecap="round"/><path d="m77.7907 268.88c4.79-.12 9.57-.28 14.36-.34 4.9-.06 9.8003-.01 14.7103-.01 3.03 0 6.07-.08 9.1.02 4.9.16 9.82.27 14.7.73 4.82.46 8.09 3.88 8.37 8.71.39 6.88.72 13.77.65 20.66-.04 3.66-.58 7.36-2.99 10.56-1.11 1.47-2.2 1.99-3.92 2.08-10.86.53-21.71 1.28-32.57 1.67-5.8204.21-11.6704-.17-17.5104-.29-11.32-.23-22.65-.43-33.97-.73-1.86-.05-3.7099-.55-6.1699-.94-3.96-2.89-4.8001-7.54-5.1101-12.68-.44-7.19-.56-14.32 1.17-21.36.34-1.39 1.18-2.66 1.63-3.63-.69-2.6-1.8099-5.07-1.9299-7.59-.44-9.33-.67-18.67-.75-28.01-.12-13.54.0599-27.08-.0601-40.62-.09-10.39-.3999-20.78-.6899-31.16-.14-5.14-.58-10.27-.64-15.41-.03-3.03.56-6.07.62-9.1.11-5.83-.1101-11.68.0699-17.51.18-6.07.85-12.14.97-18.21.17-8.7502 0-17.5101.06-26.2601.05-7.35.2-14.71.35-22.06.05-2.57.22-5.14.34-7.7.14-2.88 1.3801-5.12 3.8401-6.76 1.53-.08 3.0499-.19 4.5699-.24 10.15-.36 20.33-.42 30.46-1.13 12.41-.87 24.7304-1.06 37.1404.31 7.75.86 15.63.55 23.45.83 5.25.18 10.5.52 15.76.66 2.92.08 4.81 1.59 6.12 3.49-.17 37.39-.35 74.3901-.47 111.3901 0 .7.66 1.4.94 1.97 9.66 3.1 19.61 3 29.48 3.23 10.62.25 21.24.01 31.86.07 6.65.04 13.32.54 19.96.25 7.02-.31 14.02-1.23 21.01-2.08 1.6-.19 3.11-1.18 5.1-1.98.52-5.28 1.33-10.54 1.5-15.82.33-10.15.32-20.31.4-30.46.05-6.3-.08-12.61.04-18.9101.08-4.07-.89-7.58-4.23-10.16" stroke="#999" stroke-linecap="round"/><path d="m547.74 40.6902c-2.55 0-5.1-.02-7.65 0-9.96.11-19.92.23-29.87.37-.49 0-.97.23-1.82.44 0 1-.1 2.11.02 3.19 1.24 11.28 1 22.57.43 33.89-.33 6.41.32 12.87.25 19.3-.15 15.4198-.21 30.8498-.77 46.2598-.57 15.57.5 31.09.73 46.63.14 9.34-.49 18.7-.64 28.05-.12 7.29-.02 14.58-.02 22.22h45.17c0-4.12-.08-7.89.02-11.66.18-6.56.59-13.11.68-19.67.12-9.11 0-18.21.04-27.32.09-18.58.35-37.16.3-55.74-.02-7.04-.81-14.08-.98-21.13-.09-3.51.57-7.0398.64-10.5598.12-5.58-.06-11.17.06-16.76.13-6.32.55-12.63.68-18.94.12-5.83.03-11.67.03-17.54-2.78-.42-4.85-.73-6.92-1.04" stroke="#999" stroke-linecap="round"/><path d="m41.0299 273.78c2.17 2.36 4.86 3.25 8.05 3.18 4.9-.11 9.82.2 14.7-.1 4.78-.29 8.65-2.98 12.21-5.95.92-.77 1.61-2.23 1.73-3.45.61-6.17.97-12.37 1.48-18.55.67-8.17 1.39-16.34 2.09-24.51.34-3.97.82-7.93 1.03-11.91.54-10.5 1.1301-21.01 1.3601-31.52.13-5.94-.4-11.9-.63-17.86-.23-5.95-.4901-11.9-.6901-17.86-.26-7.47-.43-14.94-.72-22.41-.43-11.21-.92-22.41-1.39-33.62-.09-2.18-.75-3.96-2.4-5.65-11.53-11.82-22.93-23.76-34.36-35.67-.97-1.01-1.8699-2.1-2.8099-3.15" stroke="#999" stroke-linecap="round"/><path d="m159.731 82.94c4.03 2.72 8.55 3.59 13.31 3.49 9.81-.2 19.61-.47 29.41-.69 6.42-.14 12.84-.24 19.26-.35 7.24-.12 14.47-.27 21.71-.34 5.49-.05 10.97.07 16.46-.06 1.76-.04 3.5-.65 5.22-1 6.08-4.69 5.11-11.48 5.24-17.87.09-4.31-.41-8.64-.25-12.95.19-5.27-2.87-9.7701-8.12-10.0701-8.15-.46-16.34-.32-24.51-.44-6.77-.11-13.54-.2099-20.31-.3599-3.62-.08-7.24-.3101-10.86-.3301-11.32-.04-22.65-.1299-33.97.0401-4.54.07-8.84 1.4499-12.61 4.1499" stroke="#999" stroke-linecap="round"/><path d="m159.03 83.29c-5.33 4.11-11.66 2.1901-17.52 2.6601-7.31.59-14.7.19-22.05.13-9.22-.07-18.44-.2001-27.6597-.3501-3.97-.06-7.94-.2199-11.91-.3399" stroke="#999" stroke-linecap="round"/><path d="m160.43 160.68c-.12 4.9-.18 9.81-.37 14.71-.13 3.39-.45 6.77-.68 10.16-.02.35 0 .7 0 1.05 0 7 .13 14.01-.04 21.01-.14 5.49-.85 10.97-.96 16.46-.11 6.07.29 12.14.27 18.21-.03 10.58 1.06 21.27-3.06 31.68-4.81 2.84-10.15 4.7-16.18 3.34" stroke="#999" stroke-linecap="round"/><path d="m82.9103 887.92c.24.61.78 2.08.9 2.71.06.3-.2801.68-.5701 1.29-1.18.49-2.64 1.09-4.38 1.8-.77-1.17-1.5399-2.32-2.2099-3.33m0 0c-8.53 1.09-16.2-1.5-22.48-6.57-2.87-2.32-3.85-7.19-5.24-11.07-2.11-5.89-2.31-11.98 1.11-17.42 3.73-5.93 9.1999-9.97 15.9599-12.06 9.33-2.88 20.2 1.76 24.75 9.11 4.27 6.9 5.11 14.48 3.22 22.19-2.08 8.51-9.1399 13.44-17.3199 15.82z" stroke="#999" stroke-linecap="round"/><path d="m92.3302 855.29c1.21-.98 3.2301-2.04 4.6801-3.21-.56-1.25-1.6501-2.69-2.4201-4.4-1.93.86-3.2699 1.77-4.9199 2.51" stroke="#999" stroke-linecap="round"/><path d="m49.4401 856.38c-.95-1.01-2.8499-2.01-4.0099-3.23 1.12-1.23 2.0999-2.59 3.0199-3.6 1.29.64 2.6301 2.33 3.7101 2.86" stroke="#999" stroke-linecap="round"/><path d="m297 245.07c-.35-2.92-1.06-5.85-.98-8.75.23-7.77-1.96-15-5.44-21.65-4.61-8.83-11.22-15.64-21.94-16.89-5.97-.7-11.95-2.49-17.85-2.21-7.48.36-15.61-.96-22.08 4.67-.13.12-.47-.04-.69.02-8.68 2.39-12.74 9.64-17.14 16.46-3.96 6.15-5.81 13.05-5.92 20.3-.12 8.28-.2 16.6.4 24.85.6 8.17 4.92 15.02 9.33 21.73 6.65 10.13 16.83 13.31 28.04 14.26 3.34.29 6.78-.27 10.15-.65 5.38-.6 10.79-1.13 16.1-2.14 5.87-1.12 10.81-4.05 14.39-9.03.82-1.13 1.78-2.19 2.8-3.15 6.9-6.47 9.03-14.77 9.48-23.82.23-4.56.89-9.11 1.36-13.66" stroke="#999" stroke-linecap="round"/></g><path d="m564.4 1068.44v375.11h-319.8v29.11h348.91v-438.73h-29.11v10.4h-196.7v-111.03h-16.22v111.03h-88.16v-134.32h-16.22v134.32h-6.65v24.12h323.95z" fill="#e6e6e6" stroke="#000" stroke-miterlimit="10"/><path d="m.490479 1472.66h129.329521v-29.11h-100.2195v-375.11h104.3795v-24.12h-104.3795v-11.23h-29.110021v439.56z" fill="#e6e6e6" stroke="#000" stroke-miterlimit="10"/><path d="m.490295 357.74v2.5h29.110005v-329.7799h239.9497v-29.11h-269.059705z" fill="#e6e6e6" stroke="#000" stroke-miterlimit="10"/><path d="m464.18 1.33984v29.10996h100.22v249.9302h29.11v-279.04016z" fill="#e6e6e6" stroke="#000" stroke-miterlimit="10"/><path d="m247.1 803.54h16.22v-134.32h88.16v111.03h18.71v-108.54h194.21v247.44h29.11v-523.98h-29.11v249.93h-317.3z" fill="#e6e6e6" stroke="#000" stroke-miterlimit="10"/><path d="m29.6001 821.63h97.7299v-176.53h-97.7299v-90.24h-29.109988v365.12h29.109988z" fill="#e6e6e6" stroke="#000" stroke-miterlimit="10"/></svg>