<svg fill="none" height="1154" viewBox="0 0 594 1154" width="594" xmlns="http://www.w3.org/2000/svg"><g stroke="#000"><path d="m264.15 853.61h86.5" stroke-linecap="round" stroke-linejoin="round"/><path d="m564.4 897.31h-59.82" stroke-linecap="round" stroke-linejoin="round"/><path d="m504.58 1124.16v-226.85" stroke-linecap="round" stroke-linejoin="round"/><path d="m102.46 1012.82h-72.85" stroke-linecap="round" stroke-linejoin="round"/><path d="m102.46 901.47v222.7" stroke-linecap="round" stroke-linejoin="round"/><path d="m109.45 1124.17v-222.7" stroke-linecap="round" stroke-linejoin="round"/><path d="m538.65 577.85c-5.17 0-9.4-4.23-9.4-9.4s4.23-9.4 9.4-9.4 9.4 4.23 9.4 9.4-4.23 9.4-9.4 9.4z" stroke-linecap="round" stroke-linejoin="round"/><path d="m510.66 609.6c-5.17 0-9.4-4.23-9.4-9.4s4.23-9.4 9.4-9.4 9.4 4.23 9.4 9.4-4.23 9.4-9.4 9.4z" stroke-linecap="round" stroke-linejoin="round"/><path d="m538.65 609.71c-6.48 0-11.77-5.3-11.77-11.77s5.3-11.77 11.77-11.77 11.77 5.3 11.77 11.77-5.3 11.77-11.77 11.77z" stroke-linecap="round" stroke-linejoin="round"/><path d="m510.66 582.49c-6.48 0-11.77-5.3-11.77-11.77s5.3-11.77 11.77-11.77 11.77 5.3 11.77 11.77-5.3 11.77-11.77 11.77z" stroke-linecap="round" stroke-linejoin="round"/><path d="m259.53 633.03h81.51" stroke-linecap="round" stroke-linejoin="round"/><path d="m341.04 633.03c1.64-.17 3.49 1.69 3.33 3.33" stroke-linecap="round" stroke-linejoin="round"/><path d="m256.21 718.28h88.16" stroke-linecap="round" stroke-linejoin="round"/><path d="m351.02 639.92v83.35" stroke-linecap="round" stroke-linejoin="round"/><path d="m533.94 452.97h-40.75" stroke-linecap="round" stroke-linejoin="round"/><path d="m487.37 447.14v-59.05" stroke-linecap="round" stroke-linejoin="round"/><path d="m493.19 382.27h40.75" stroke-linecap="round" stroke-linejoin="round"/><path d="m539.77 388.09v25.65" stroke-linecap="round" stroke-linejoin="round"/><path d="m539.77 447.14c.29 2.86-2.96 6.11-5.82 5.82" stroke-linecap="round" stroke-linejoin="round"/><path d="m533.94 382.27c2.86-.29 6.11 2.96 5.82 5.82" stroke-linecap="round" stroke-linejoin="round"/><path d="m487.37 388.09c-.29-2.86 2.96-6.11 5.82-5.82" stroke-linecap="round" stroke-linejoin="round"/><path d="m493.19 452.97c-2.86.29-6.11-2.96-5.82-5.82" stroke-linecap="round" stroke-linejoin="round"/><path d="m351.02 723.27v1.67" stroke-linecap="round" stroke-linejoin="round"/><path d="m564.4 332.6h-1.66" stroke-linecap="round" stroke-linejoin="round"/><path d="m562.74 332.6h-83.36" stroke-linecap="round" stroke-linejoin="round"/><path d="m539.77 419.49v27.65" stroke-linecap="round" stroke-linejoin="round"/><path d="m479.38 332.6v307.32" stroke-linecap="round" stroke-linejoin="round"/><path d="m403.67 1101.71v-13.31" stroke-linecap="round" stroke-linejoin="round"/><path d="m451.49 1124.16v-22.45" stroke-linecap="round" stroke-linejoin="round"/><path d="m403.67 1101.71v22.45" stroke-linecap="round" stroke-linejoin="round"/><path d="m451.49 1088.4v13.31" stroke-linecap="round" stroke-linejoin="round"/><path d="m504.79 897.1c-.1-.01-.22.11-.21.21" stroke-linecap="round" stroke-linejoin="round"/><path d="m504.58 1122.71c-.01-.1.11-.22.21-.21" stroke-linecap="round" stroke-linejoin="round"/><path d="m241.77 1153.27v-113.11h-7.49v113.11z" stroke-linecap="round" stroke-linejoin="round"/><path d="m351.48 1064.28h-88.16" stroke-linecap="round" stroke-linejoin="round"/><path d="m479.38 639.92h-128.36" stroke-linecap="round" stroke-linejoin="round"/><path d="m370.19 860.09h194.21" stroke-linecap="round" stroke-linejoin="round"/><path d="m344.37 718.28v-81.92" stroke-linecap="round" stroke-linejoin="round"/><path d="m256.21 636.36c-.17-1.64 1.69-3.49 3.33-3.33" stroke-linecap="round" stroke-linejoin="round"/><path d="m256.21 718.28v-81.92" stroke-linecap="round" stroke-linejoin="round"/><path d="m264.15 758.57h86.5v98.28h-2.99v3.24h-80.52v-3.24h-2.99z" stroke-linecap="round" stroke-linejoin="round"/><path d="m370.19 850.49h194.21" stroke-linecap="round" stroke-linejoin="round"/><path d="m451.49 1088.4v13.31" stroke-linecap="round" stroke-linejoin="round"/><path d="m403.67 1059.15v29.24" stroke-linecap="round" stroke-linejoin="round"/><path d="m451.49 1059.15c0-2.93-.49-6.07-1.68-9.14s-3.1-6.06-5.39-8.46c-4.59-4.8-10.71-7.22-16.84-7.22s-12.25 2.43-16.84 7.22c-2.29 2.4-4.2 5.39-5.39 8.46s-1.67 6.21-1.68 9.14" stroke-linecap="round" stroke-linejoin="round"/><path d="m451.49 1088.4v-29.24" stroke-linecap="round" stroke-linejoin="round"/><path d="m403.67 1101.71v22.45" stroke-linecap="round" stroke-linejoin="round"/><path d="m451.49 1124.16v-22.45" stroke-linecap="round" stroke-linejoin="round"/><path d="m403.67 1101.71v-13.31" stroke-linecap="round" stroke-linejoin="round"/><path d="m403.67 1124.16h47.82" stroke-linecap="round" stroke-linejoin="round"/><path d="m403.67 1101.71h47.82" stroke-linecap="round" stroke-linejoin="round"/><path d="m545.75 427.84h6.02v-15.35c.15 0-1.53 0-3.01 0s-3.16 0-3.01 0v1.25c-.19 0-.39 0-.61 0-.48 0-1 0-1.56 0-.55 0-1.14 0-1.75 0s-1.24 0-1.9 0c-.45 0-.91 0-1.38 0-.46 0-.93 0-1.4 0s-.94 0-1.41 0-.93 0-1.4 0c-.46 0-.92 0-1.37 0s-.89 0-1.33 0c-.07 0-.14 0-.22 0h-.11c-.32 0-.63 0-.94 0-.2 0-.41 0-.61 0-.15 0-.3 0-.44 0h-.07s-.05 0-.1 0c-.08 0-.13 0-.18 0-.07 0-.14 0-.21 0-.14 0-.29 0-.43 0-.29 0-.58 0-.86 0-.29 0-.57 0-.85 0s-.55 0-.82 0-.52 0-.77 0-.49 0-.72 0-.45 0-.67 0c-.21 0-.42 0-.61 0-.39 0-.74 0-1.04 0-.15 0-.3 0-.43 0-.14 0-.26 0-.37 0s-.22 0-.31 0-.17 0-.24 0-.13 0-.17 0-.08 0-.1 0c-.3 0-.55.05-.78.14s-.44.23-.61.41c-.18.18-.32.39-.41.61-.07.17-.12.35-.13.54v2.37c.02.18.06.37.13.54.09.23.24.44.41.61s.39.32.61.41c.23.09.48.14.78.14h.1.17.24.31.37.43 1.04.61.67.72.77.82.85.86.43.21.18.1.07.44.61.94.11.22 1.33 1.37 1.4 1.41 1.4 1.38 1.9 1.75 1.56.61v8.35z" stroke-linecap="round" stroke-linejoin="round"/><path d="m554.01 939.74-.13-.14" stroke-linecap="round" stroke-linejoin="round"/><path d="m553.88 939.6-.18-.15" stroke-linecap="round" stroke-linejoin="round"/><path d="m553.7 939.45-.21-.1" stroke-linecap="round" stroke-linejoin="round"/><path d="m553.49 939.35-.23-.04" stroke-linecap="round" stroke-linejoin="round"/><path d="m553.26 939.31h-.16" stroke-linecap="round" stroke-linejoin="round"/><path d="m553.1 939.31-12.07.01" stroke-linecap="round" stroke-linejoin="round"/><path d="m541.03 939.32h-.46" stroke-linecap="round" stroke-linejoin="round"/><path d="m540.39 939.11-.09-.34" stroke-linecap="round" stroke-linejoin="round"/><path d="m540.3 938.77-.06-.51" stroke-linecap="round" stroke-linejoin="round"/><path d="m540.51 939.29-.12-.16" stroke-linecap="round" stroke-linejoin="round"/><path d="m558.86 938.92-.1.15" stroke-linecap="round" stroke-linejoin="round"/><path d="m559.08 938.28-.22.64" stroke-linecap="round" stroke-linejoin="round"/><path d="m559.13 938.02-.04.17" stroke-linecap="round" stroke-linejoin="round"/><path d="m559.15 937.89-.02.13" stroke-linecap="round" stroke-linejoin="round"/><path d="m559.15 935.34v2.54" stroke-linecap="round" stroke-linejoin="round"/><path d="m559.13 935.17.02.15" stroke-linecap="round" stroke-linejoin="round"/><path d="m559.09 935.02.04.15" stroke-linecap="round" stroke-linejoin="round"/><path d="m558.86 934.3.22.64" stroke-linecap="round" stroke-linejoin="round"/><path d="m558.76 934.15.1.15" stroke-linecap="round" stroke-linejoin="round"/><path d="m558.5 933.73.19.3" stroke-linecap="round" stroke-linejoin="round"/><path d="m558.37 933.59.13.14" stroke-linecap="round" stroke-linejoin="round"/><path d="m540.24 938.26-.03-2.65" stroke-linecap="round" stroke-linejoin="round"/><path d="m540.21 935.61.03-.65" stroke-linecap="round" stroke-linejoin="round"/><path d="m540.24 934.96.06-.52" stroke-linecap="round" stroke-linejoin="round"/><path d="m540.3 934.44.08-.33" stroke-linecap="round" stroke-linejoin="round"/><path d="m540.39 934.07.12-.14" stroke-linecap="round" stroke-linejoin="round"/><path d="m540.57 933.9 12.53.01" stroke-linecap="round" stroke-linejoin="round"/><path d="m553.1 933.91h.16" stroke-linecap="round" stroke-linejoin="round"/><path d="m553.26 933.91.23-.04" stroke-linecap="round" stroke-linejoin="round"/><path d="m553.49 933.87.21-.1" stroke-linecap="round" stroke-linejoin="round"/><path d="m553.7 933.77.17-.15" stroke-linecap="round" stroke-linejoin="round"/><path d="m553.87 933.62.14-.15" stroke-linecap="round" stroke-linejoin="round"/><path d="m554.01 933.47.1-.07" stroke-linecap="round" stroke-linejoin="round"/><path d="m554.11 933.4.15-.15" stroke-linecap="round" stroke-linejoin="round"/><path d="m558.69 939.19-.19.3" stroke-linecap="round" stroke-linejoin="round"/><path d="m558.5 939.49-.13.13" stroke-linecap="round" stroke-linejoin="round"/><path d="m558.37 939.62-.09.12" stroke-linecap="round" stroke-linejoin="round"/><path d="m554.26 933.25.3-.19" stroke-linecap="round" stroke-linejoin="round"/><path d="m554.68 932.99.15-.1" stroke-linecap="round" stroke-linejoin="round"/><path d="m554.83 932.89.64-.22" stroke-linecap="round" stroke-linejoin="round"/><path d="m555.47 932.67.49-.06" stroke-linecap="round" stroke-linejoin="round"/><path d="m558.28 939.74-.12.09" stroke-linecap="round" stroke-linejoin="round"/><path d="m558.16 939.83-.14.14" stroke-linecap="round" stroke-linejoin="round"/><path d="m558.02 939.97-.29.18" stroke-linecap="round" stroke-linejoin="round"/><path d="m557.61 940.23-.16.1" stroke-linecap="round" stroke-linejoin="round"/><path d="m557.45 940.33-.64.22" stroke-linecap="round" stroke-linejoin="round"/><path d="m555.96 932.61.11-.01" stroke-linecap="round" stroke-linejoin="round"/><path d="m556.22 932.6.1.01" stroke-linecap="round" stroke-linejoin="round"/><path d="m556.32 932.61.49.06" stroke-linecap="round" stroke-linejoin="round"/><path d="m556.81 932.67.64.22" stroke-linecap="round" stroke-linejoin="round"/><path d="m557.45 932.89.16.1" stroke-linecap="round" stroke-linejoin="round"/><path d="m557.72 933.06.3.19" stroke-linecap="round" stroke-linejoin="round"/><path d="m558.02 933.25.14.14" stroke-linecap="round" stroke-linejoin="round"/><path d="m558.16 933.39.12.08" stroke-linecap="round" stroke-linejoin="round"/><path d="m558.28 933.47.09.12" stroke-linecap="round" stroke-linejoin="round"/><path d="m556.81 940.55-.67.07" stroke-linecap="round" stroke-linejoin="round"/><path d="m556.14 940.62-.67-.07" stroke-linecap="round" stroke-linejoin="round"/><path d="m555.47 940.55-.64-.22" stroke-linecap="round" stroke-linejoin="round"/><path d="m554.83 940.33-.15-.1" stroke-linecap="round" stroke-linejoin="round"/><path d="m554.64 940.21-.08-.06" stroke-linecap="round" stroke-linejoin="round"/><path d="m554.56 940.15-.3-.18" stroke-linecap="round" stroke-linejoin="round"/><path d="m554.26 939.97-.19-.19" stroke-linecap="round" stroke-linejoin="round"/><path d="m514.26 912.44h32.1" stroke-linecap="round" stroke-linejoin="round"/><path d="m512.8 959.31v-45.4" stroke-linecap="round" stroke-linejoin="round"/><path d="m546.36 960.78h-32.1" stroke-linecap="round" stroke-linejoin="round"/><path d="m547.83 913.91v19.99" stroke-linecap="round" stroke-linejoin="round"/><path d="m547.83 939.32v19.99" stroke-linecap="round" stroke-linejoin="round"/><path d="m547.83 959.31c.07.72-.74 1.54-1.46 1.46" stroke-linecap="round" stroke-linejoin="round"/><path d="m546.36 912.44c.72-.07 1.54.74 1.46 1.46" stroke-linecap="round" stroke-linejoin="round"/><path d="m512.8 913.91c-.07-.72.74-1.54 1.46-1.46" stroke-linecap="round" stroke-linejoin="round"/><path d="m514.26 960.78c-.72.07-1.54-.74-1.46-1.46" stroke-linecap="round" stroke-linejoin="round"/><path d="m258.95 936.68v-106.6h-7.49v106.6z" stroke-linecap="round" stroke-linejoin="round"/><path d="m241.77 1040.16v8.37" stroke-linecap="round" stroke-linejoin="round"/><path d="m241.77 1054.2v5.67" stroke-linejoin="round"/><path d="m241.77 1065.53v5.67" stroke-linejoin="round"/><path d="m241.77 1076.87v5.67" stroke-linejoin="round"/><path d="m241.77 1088.21v5.67" stroke-linejoin="round"/><path d="m241.77 1099.55v5.67" stroke-linejoin="round"/><path d="m241.77 1110.89v5.67" stroke-linejoin="round"/><path d="m241.77 1122.23v5.67" stroke-linejoin="round"/><path d="m241.77 1133.57v5.67" stroke-linejoin="round"/><path d="m241.77 1144.9v8.37h-8.36" stroke-linecap="round" stroke-linejoin="round"/><path d="m227.74 1153.27h-5.67" stroke-linejoin="round"/><path d="m218.4 1153.27h-5.67" stroke-linejoin="round"/><path d="m207.06 1153.27h-5.67" stroke-linejoin="round"/><path d="m195.72 1153.27h-5.67" stroke-linejoin="round"/><path d="m184.38 1153.27h-5.67" stroke-linejoin="round"/><path d="m173.04 1153.27h-5.67" stroke-linejoin="round"/><path d="m161.7 1153.27h-5.66" stroke-linejoin="round"/><path d="m150.37 1153.27h-5.67" stroke-linejoin="round"/><path d="m139.03 1153.27h-8.37c.1-2 .24-4.01.44-6.04" stroke-linejoin="round"/><path d="m131.78 1141.61c.27-1.85.58-3.72.93-5.58" stroke-linejoin="round"/><path d="m133.89 1130.49c.43-1.83.91-3.65 1.43-5.48" stroke-linejoin="round"/><path d="m137.01 1119.6c.6-1.78 1.24-3.56 1.93-5.33" stroke-linejoin="round"/><path d="m141.11 1109.03c.76-1.72 1.57-3.43 2.42-5.13" stroke-linejoin="round"/><path d="m146.19 1098.87c.92-1.65 1.88-3.27 2.88-4.88" stroke-linejoin="round"/><path d="m152.18 1089.26c1.07-1.55 2.18-3.08 3.33-4.59" stroke-linejoin="round"/><path d="m159.06 1080.25c1.22-1.45 2.47-2.86 3.76-4.24" stroke-linejoin="round"/><path d="m166.78 1071.95c1.35-1.32 2.74-2.61 4.15-3.86" stroke-linejoin="round"/><path d="m175.27 1064.44c1.48-1.18 2.99-2.33 4.51-3.43" stroke-linejoin="round"/><path d="m184.47 1057.81c1.59-1.03 3.21-2.02 4.84-2.96" stroke-linejoin="round"/><path d="m194.28 1052.15c1.69-.86 3.4-1.68 5.11-2.45" stroke-linejoin="round"/><path d="m204.63 1047.51c1.77-.69 3.55-1.32 5.34-1.91" stroke-linejoin="round"/><path d="m215.39 1043.96c1.84-.5 1.67-.95 3.51-1.35" stroke-linejoin="round"/><path d="m224.47 1041.56c1.88-.31 3.74-.56 5.6-.76" stroke-linecap="round" stroke-linejoin="round"/><path d="m235.72 1040.33c2.03-.11 4.05-.17 6.05-.17" stroke-linecap="round" stroke-linejoin="round"/><path d="m555.07 618.38v-68.11h-66.54v68.11z" stroke-linecap="round" stroke-linejoin="round"/><path d="m.5 634.7v-194.63" stroke-linecap="round" stroke-linejoin="round"/><path d="m29.61 634.7v-194.63" stroke-linecap="round" stroke-linejoin="round"/><path d="m9.1499 634.7v-194.63" stroke-linecap="round" stroke-linejoin="round"/><path d="m.5 537.38h8.6499" stroke-linecap="round" stroke-linejoin="round"/><path d="m464.18 1.34009h-194.62" stroke-linecap="round" stroke-linejoin="round"/><path d="m464.18 10h-194.62" stroke-linecap="round" stroke-linejoin="round"/><path d="m366.87 10.0001v-8.66001" stroke-linecap="round" stroke-linejoin="round"/><path d="m464.18 30.4501h-194.62" stroke-linecap="round" stroke-linejoin="round"/><path d="m593.51 475.01v-114.78" stroke-linecap="round" stroke-linejoin="round"/><path d="m584.86 475.01v-114.78" stroke-linecap="round" stroke-linejoin="round"/><path d="m564.4 475.01v-115.42" stroke-linecap="round" stroke-linejoin="round"/><path d="m593.51 1113.77v-114.78" stroke-linecap="round" stroke-linejoin="round"/><path d="m584.86 1113.77v-114.78" stroke-linecap="round" stroke-linejoin="round"/><path d="m564.4 1113.77v-115.42" stroke-linecap="round" stroke-linejoin="round"/><path d="m130.66 1153.27h111.11" stroke-linecap="round" stroke-linejoin="round"/><path d="m29.61 901.47v222.69" stroke-linecap="round" stroke-linejoin="round"/><path d="m29.61 1124.16 101.05.02" stroke-linecap="round" stroke-linejoin="round"/><path d="m130.66 1124.18v29.13" stroke-linecap="round" stroke-linejoin="round"/><path d="m130.66 1153.31-130.16-.04" stroke-linecap="round" stroke-linejoin="round"/><path d="m.5 637.19v-2.49" stroke-linecap="round" stroke-linejoin="round"/><path d="m.5 634.7h29.11" stroke-linecap="round" stroke-linejoin="round"/><path d="m29.61 634.7v90.24" stroke-linecap="round" stroke-linejoin="round"/><path d="m127.33 901.47h-97.72" stroke-linecap="round" stroke-linejoin="round"/><path d="m29.61 724.94h97.72" stroke-linecap="round" stroke-linejoin="round"/><path d="m555.4 807.86c.94-.91 1.59-2.04 1.99-3.24h7.1v-5.25h-7.11c-.4-1.21-1.06-2.34-1.98-3.25-1.56-1.53-3.82-2.43-5.87-2.43s-3.9.9-5.24 2.43c-1.33 1.53-2.15 3.71-2.17 5.87s.74 4.32 2.17 5.87 3.51 2.51 5.24 2.43c1.93.08 4.28-.88 5.87-2.43z" stroke-linecap="round" stroke-linejoin="round"/><path d="m29.61 901.47h97.73v-176.53h-97.73v-90.24h-29.11v518.58c43.39.01 86.7799.03 130.16.04v-29.14c-33.6801 0-67.37 0-101.05-.01v-222.69z" fill="#e6e6e6" stroke-miterlimit="10"/><path d="m564.4 1113.77v10.4h-196.7v-111.03h-16.22v111.03h-88.16v-134.46h-16.22v134.46h-5.33v29.11h351.74v-39.51z" fill="#e6e6e6" stroke-miterlimit="10"/><path d="m564.4 751.55v247.44h29.11v-523.98h-29.11v249.93h-317.3v158.3h16.22v-134.18h88.16v111.03h18.71v-108.54z" fill="#e6e6e6" stroke-miterlimit="10"/><path d="m2.98999 440.07h26.61001v-409.6199h239.95v-29.11001h-269.06001v438.72991z" fill="#e6e6e6" stroke-miterlimit="10"/><path d="m564.4 360.23h29.11v-358.88991h-129.33v29.11001h100.22z" fill="#e6e6e6" stroke-miterlimit="10"/></g><path d="m57.64 1024.75c.41.81 1.02 1.58 1.19 2.44 1.61 8.03 3.14 16.07 4.81 24.66 7.68-1.19 15.17-2.36 22.83-3.55-2.01-9.25-4.29-18.99-6.27-28.12" stroke="#999" stroke-linecap="round" stroke-linejoin="round"/><path d="m64.3099 1113.42c-.23-2.06-.42-4.72-.65-6.85h-20.35c0 1.79.4 3.72-1.65 4.45.28 1.01.4701 1.72.7001 2.56h24.4c.07.41.2199 1.32.4199 2.5-7.09.24-13.8.43-20.51.72-1.92.08-2.3399-1.51-2.1899-3.08" stroke="#999" stroke-linecap="round" stroke-linejoin="round"/><path d="m80.1899 1020.17c-7.11 1.52-15.4399 3.05-22.5499 4.57" stroke="#999" stroke-linecap="round" stroke-linejoin="round"/><path d="m63.99 1110.07c-4.67.2-9.9001.49-14.5801.57-1.93.03-4.4699-.54-6.3999-.74" stroke="#999" stroke-linecap="round" stroke-linejoin="round"/><path d="m47.2799 1103.67h15.1101c.05 1.11.0899 1.93.1299 2.74" stroke="#999" stroke-linecap="round" stroke-linejoin="round"/><path d="m47.2799 1103.67v2.74" stroke="#999" stroke-linecap="round" stroke-linejoin="round"/><path d="m112.31 316.39c3.25 3.49 6.55 6.94 9.75 10.49 4.74 5.26 9.5 10.51 14.08 15.92 3.77 4.45 7.48 4.59 12.76 2.33 5.55-2.38 11.73-3.31 17.63-4.88 1.62-.43 3.23-.88 4.83-1.31-1.68-3.13-3.14-5.84-4.42-8.23 5.87-6.08 12.96-5.74 19.82-5.18 9.04.75 18 1.78 27.12 1.14 3.19-.23 6.47 1.77 9.75 1.92 7.09.32 14.21-.02 21.32.15 3.98.1 7.96 1.01 11.93.96 6.15-.07 12.28-.78 18.43-.97 5.66-.18 11.33-.16 16.98 0 3.26.1 6.52.57 9.76 1.06 6.26.94 11.17-1.09 14.44-6.54 3.14-5.23 5.05-10.76 3.28-16.97-3.53-12.41-5.32-25.06-6.31-37.94-.7-9.06 2.66-17.14 4.11-25.68.86-5.04 1.98-10.1 2.09-15.18.23-10.59.37-21.24-.43-31.79-.56-7.42-2.77-14.7-4.15-22.06-2.34-12.48-2.25-24.87.99-37.24.88-3.36.78-6.97 1.17-10.46.41-3.64.87-7.27 1.42-11.88-1.48-4.03-3.45-5.16-8.65-4.01-1.71.38-3.35 1.18-5.07 1.38-3.47.4-6.98.51-10.47.78-4.58.34-9.2.43-13.72 1.14-10.09 1.58-20.17 2.16-30.37 1.43-8.06-.58-16.15-.65-24.21-1.16-6.64-.42-13.25-1.18-19.88-1.77-3.01-.27-6.02-.6-9.04-.71-11.92-.41-23.89-.26-35.76-1.31-6.01-.53-11.96-2.82-17.66-5.03-2.22-.86-3.85-3.55-5.45-5.6399-2.79-3.63-5.1-7.65-8.06-11.11-2.38-2.78-4.77-2.0199-6.44 1.3801-3.79 7.69-8.02 14.7898-14.99 20.4698-5.6 4.56-9.8001 10.94-14.1801 16.83-2.11 2.83-2.27 6.71-1.09 10.02 2.23 6.28.93 12.53.68 18.83-.14 3.36-.26 6.84.42 10.1 1.18 5.68 1.09 11.29.71 17.01-.24 3.7.19 7.49.68 11.19.8 6.05 2.68 12.06 2.66 18.08-.03 9.4-1.27 18.79-1.98 28.19-.06.84-.17 1.72.02 2.52 1.4 5.91 3.2301 11.75 4.2101 17.73.96 5.83 1.07 11.79 1.55 17.69.61 7.47.42 15.12 2.06 22.35 1.24 5.47 4.8 10.42 7.33 15.6" stroke="#999" stroke-linecap="round" stroke-linejoin="round"/><path d="m549.46 192.75v-15.54c0-5.66-.05-11.32.01-16.99.05-4.7.38-9.4.3-14.09-.06-3.73-.54-7.46-.88-11.75h-44.61c0 3.79-.1 7.77.02 11.75.69 22.29 1.67 44.57 2.04 66.86.17 9.99-1.02 19.99-1.29 30-.24 8.79-.14 17.59-.02 26.38.09 6.63.6 13.25.66 19.88.11 11.44.03 22.89.04 34.33 0 .37.15.74.32 1.47 13.89-.31 27.75-.62 41.6-.94 0-8.37-.09-16.56.02-24.75.15-11.33.46-22.65.7-33.97s.52-22.65.71-33.97c.17-10.36.26-20.72.37-31.08.03-2.41 0-4.82 0-7.23" stroke="#999" stroke-linecap="round" stroke-linejoin="round"/><path d="m63.1599 213.39c-3.98-.93-7.9699-1.85-11.9599-2.78-.35-6.37-.88-12.63-1-18.9-.17-8.67-.2-17.35.04-26.02.09-3.15 1.54-6.25 1.64-9.4.18-6.13.0599-12.3-.3401-18.43-.32-5.06-1.21-10.08-1.86-15.2.83-.18 1.3101-.15 1.5501-.37 5.67-5.14 11.91-3.2 18.08-1.41 3.59 1.04 7.01 2.02 10.9.86 1.64-.49 3.8799.61 5.7099 1.35 1.22.5 2.2 1.62 3.11 2.33-.43 5.9-1.3099 11.7-1.1799 17.47.23 9.77 1.1899 19.51 1.6699 29.28.22 4.57.0001 9.15.0501 13.73.02 1.57.3199 3.13.3299 4.7.04 5.79.02 11.57.02 17.67-6.85.53-12.9999 1.33-19.1599 1.35-3.15.01-5.4101 2.42-7.5901 3.75" stroke="#999" stroke-linecap="round" stroke-linejoin="round"/><path d="m104.36 113.28c-7.59.12-15.18.32-22.77.34-5.66.01-11.32-.28-16.99-.32-9.03-.06-18.07-.02-27.47-.02 0 2.17-.08 4.34.01 6.5.45 10.72 1.0499 21.44 1.3999 32.17.2 6.26.12 12.53 0 18.79-.07 3.86-.5399 7.71-.6699 11.57-.12 3.85-.09 7.71-.02 11.56.21 11.2.5199 22.41.6999 33.61.18 11.68.1501 23.37.4101 35.06.16 7.11.75 14.21 1.01 21.33.1 2.64-.3101 5.3-.3001 7.95.02 3.86.2701 7.71.3201 11.57.06 4.82.01 9.64.01 15.17 5.43-.24 10.85-.58 16.26-.68 3.61-.07 7.24.43 10.84.28 8.2-.34 16.3799-1.05 24.5799-1.36 6.02-.22 12.0501-.03 18.0701-.06.72 0 1.45-.22 2.17-.35" stroke="#999" stroke-linecap="round" stroke-linejoin="round"/><path d="m59.11 212.45c-1.21.2-4.89.98-5.96 1.16-2.35 3.93-1.48 7.83-.47 11.7 1.14 4.35 1.58 8.67.01 13.02-.28.78-.36 1.68-.37 2.52-.14 8.55-.24 17.11-.38 25.66-.09 5.54-.41 11.09-.28 16.62.06 2.78 1.43 5.58 1.26 8.31-.32 5.09-1.3399 10.13-2.0399 15.19-.1.71-.0101 1.45-.0101 2.17 7.35 0 14.41-.63 21.3.17 7.23.84 14.25.57 21.32-.87 2.52-.76 2.4601-3.01 2.1501-5.08-1.16-7.61-.98-15.18 0-22.78.17-1.29-.2701-2.64-.3101-3.97-.15-4.7-.0199-9.42-.4399-14.09-.42-4.61-1.4401-9.15-2.0701-13.74-.28-2.03-.22-4.1-.4-6.14-.33-3.86-.7-7.71-1.08-11.57-.34-3.5-.8-6.98-1.05-10.48-.16-2.29-.0299-4.6-.0299-7.53-9.29-.28-18.5201 2.75-27.1101.66" stroke="#999" stroke-linecap="round" stroke-linejoin="round"/><path d="m255.81 456.34c5.18-7.61 15.02-18.26 21.04-22.76 1.77-1.77 4.62-2.53 7.06-3.56 9.69-4.1 19.78-6.81 30.29-7.03 6.48-.13 12.76 2.04 18.48 5.01 5.26 2.73 10.51 5.78 15.04 9.57 4.7 3.93 8.61 8.83 12.69 13.46 1.08 1.22 1.6 2.96 2.25 4.51 1.31 3.12 2.73 6.21 3.74 9.43.81 2.6 1.16 5.37 1.58 8.08.58 3.77 1.78 7.64 1.37 11.31-1.04 9.2.48 19.03-6.34 27.01-2.08 2.43-3.41 5.61-4.65 8.63-2.43 5.94-7.19 9.61-12.16 13.1-10.77 7.57-22.36 13.09-35.84 13.01-9.66-.06-18.56-2.7-27.17-7.49-9.75-5.43-18.07-12.4-24.42-21.22-7.28-10.12-11.85-21.64-10.6-34.57.83-8.67 3.44-18.68 7.65-26.48" stroke="#999" stroke-linecap="round" stroke-linejoin="round"/><path d="m225.87 458.4c.27-1.92.89-3.73 1.13-5.5-4.24-2.24-7.34-1.13-9.32 2.93-2.13 4.39-3.11 9.03-3.76 13.86-1.53 11.25-1.49 22.47.47 33.62.6 3.41 2.16 6.68 3.6 9.88.59 1.31 2.01 2.25 3.13 3.44 1.26-.21 2.5-.41 3.82-.62 1.27-2.73 1.74-5.28 1.22-8.37-2.15-12.61-3.86-25.31-2.56-38.15.37-3.63 1.46-7.18 2.28-11.08 7.83-.5 15.17-.97 22.51-1.45.11 0 6.75.51 6.82.54" stroke="#999" stroke-linecap="round" stroke-linejoin="round"/><path d="m358.65 374.67c-6.26 5.36-11.71 12.34-15.36 19.59-2.46 4.89-4.61 9.93-6.81 14.95-3.35 7.66-.47 10.47 5.23 14.68 8.51 6.28 18.57 9.71 28.11 14.06 2.38 1.09 5.03 2.26 7.55 2.25 5.45-.02 8.94-4.29 11.02-8.27 4.5-8.59 8.06-17.72 11.54-26.8 1.76-4.61-.2-8.61-4.97-11.96-11.22-7.89-22.91-14.91-36.33-18.5-.66-.18-1.32-.37-1.93-.67-2.27-1.13-3.97-2.78-3.46-5.51.55-2.93 3.16-3.58 5.48-3.41 3.95.28 7.96.82 11.77 1.87 8.1 2.23 15.78 5.68 22.48 10.75 5.07 3.84 9.82 8.18 14.24 12.75 3.66 3.78 3.4 5.21.07 10.41-2.31-.95-5.71-2.58-8.15-3.59" stroke="#999" stroke-linecap="round" stroke-linejoin="round"/><path d="m305.6 811.17c-.12-7.23.02-14.47-.47-21.68-.25-3.74-5.31-6.93-10.01-6.84-6.75.12-13.49.42-20.24.73-1.11.05-2.2.56-3 .77-2.9 14.7-.68 28.83 2.3 43.04 3.34 2.51 7.33 2.31 11.17 1.98 5.44-.46 10.86-1.31 16.26-2.13 2.74-.42 3.76-2.66 3.92-5.03.24-3.48.06-6.98.06-10.48" stroke="#999" stroke-linecap="round" stroke-linejoin="round"/><path d="m340.52 567.65c-2.49 1.22-4.99 2.43-7.8 3.8.74 1.52 1.32 2.71 1.93 3.95 7.23 2.33 13.96.59 20.17-3.14 6.66-3.99 13.19-8.23 19.52-12.74 5.11-3.64 9.45-8.23 12.59-13.73 1.77-3.1 1.99-6.36-1.21-9.4-3.7-1.03-5.75 2.17-8.02 4.36-9.62 9.28-19.89 17.67-31.8 23.89-1.71.89-3.36 1.9-5.04 2.85" stroke="#999" stroke-linecap="round" stroke-linejoin="round"/><path d="m378.88 949.18c8.91-2.41 16.79-3.95 25.65-6.55 8.37-2.45 16.61-5.34 24.96-7.88 6.71-2.05 13.48-3.9 20.23-5.8 3.6-1.01 7.23-1.92 10.45-2.77-5.77-16.99-11.53-33.99-17.33-51.09-26.09 9.09-53.83 14.03-79.66 25.18 2.22 7.7 4.14 16.19 7.18 24.27 2.56 6.81 4.29 13.84 6.73 20.65.49 1.37 1.19 2.66 1.79 3.98" stroke="#999" stroke-linecap="round" stroke-linejoin="round"/><path d="m124.45 1062.66c2.86 4.27 10.08 5.14 13.68 1.39 1.66-1.73 2.85-3.96 4-6.11 2.04-3.79 4.06-7.62 5.75-11.58.99-2.32 1.3-4.92 1.86-7.16-6.1-3.47-9.69-2.36-13.72 3.57-2.38 3.51-4.42 7.38-7.34 10.37-2.64 2.71-3.77 5.66-4.22 9.15" stroke="#999" stroke-linecap="round" stroke-linejoin="round"/><path d="m69.8999 627.53c2.84-4.25 5.67-8.5 8.62-12.92 20.74 12.89 41.3301 25.68 62.1901 38.65-2.45 3.54-4.83 6.98-7.21 10.41" stroke="#999" stroke-linecap="round" stroke-linejoin="round"/><path d="m309.49 1076.39c2.29-.24 4.58-.46 6.87-.73 3.98-.46 7.95-.98 11.93-1.42.71-.08 1.45.16 2.22.25.92 9.96 1.83 19.84 2.76 29.94-6.66.85-13.41 1.72-20.94 2.69-1.06-10.07-2.13-20.23-3.2-30.38" stroke="#999" stroke-linecap="round" stroke-linejoin="round"/><path d="m326.2 768.47c-3.73.48-7.83.6-11.56 1.09-2.53.33-3.5 1.61-4.1 4.31-2.51 11.34-.71 22.47.9 33.63.33 2.27 1.33 4.44 2.03 6.7 8.17 1.06 15.89.42 23.56-.63 2.33-.32 3.75-2.21 4.36-4.62 1.94-7.61 2.55-15.29 1.86-23.14-.36-4.08-.32-8.01-2.09-11.99-1.88-4.23-5-5.1-8.83-5.33-2.04-.12-4.09-.02-6.14-.02" stroke="#999" stroke-linecap="round" stroke-linejoin="round"/><path d="m51.83 659.34c-4.34 7.11-8.68 14.21-12.94 21.18 17.61 14.81 37.99 24.92 59.08 35.09 5.04-6.87 10.17-13.86 15.3-20.85" stroke="#999" stroke-linecap="round" stroke-linejoin="round"/><path d="m521.64 1015.31c4.16-1.71 4.72-5.32 4.25-9.02-.46-3.65-.07-6.7 2.12-9.86 1.45-2.1 1.65-5.06 2.49-7.93-3.81-.77-5.25 1.71-5.45 3.34-.7 5.65-3.97 9.58-7.3 13.79-3.04 3.84-1.27 7.93 3.52 9.68" stroke="#999" stroke-linecap="round" stroke-linejoin="round"/><path d="m517.29 1105.28c.72 1.45 1.82 3.64 2.61 5.22 2.14-1.01 4.24-2.16 6.45-2.98 1.85-.69 3.82-1.31 5.77-1.43 6.5-.41 13.02-.58 19.82-.85-.5-8.38-.99-16.45-1.52-25.23-7.57 0-14.93.02-22.28-.02-1.21 0-6.01-.22-7.21-.35" stroke="#999" stroke-linecap="round" stroke-linejoin="round"/><path d="m522.72 300.81c-.43 2.92.79 5.03 3.09 6.5 11.45.3 11.82.16 11.73-9.39-.04-4.16-2.73-5.96-8.68-5.78-4.1.12-6.31 3.11-6.14 8.31" stroke="#999" stroke-linecap="round" stroke-linejoin="round"/><path d="m514.05 1098.93v-18.85c10.9.77 19.57-5.94 29.91-7.02.78 1.97 1.87 4.64 2.79 6.95" stroke="#999" stroke-linecap="round" stroke-linejoin="round"/><path d="m113.63 694.39c1.86 1.19 3.73 2.37 6.09 3.87 6.14-10.55 12.09-20.76 18.49-31.76-2.95-1.19-5.1-2.06-7.28-2.95-7.29 9.82-14.07 18.95-20.89 28.14 1.27 1.06 2.26 1.88 3.24 2.7" stroke="#999" stroke-linecap="round" stroke-linejoin="round"/><path d="m47.13 655.36c3.78-9.19 9.7199-17.02 15.5299-24.95.93-1.26 1.7001-2.64 2.6801-4.19 3.07-1.01 4.3799 2.3 7.1899 3.26-5.15 10.63-10.2599 21.2-15.5699 32.17-3.58-2.09-6.8801-4.02-10.1901-5.94" stroke="#999" stroke-linecap="round" stroke-linejoin="round"/><path d="m134.57 1027.96c.36.6.96 1.95 1.47 2.11 4.11 1.33 11.5-2.93 12.63-7.17-2.35-2.3-5.84-2.65-9.34-.27-1.91 1.3-3.19 3.52-4.76 5.33z" stroke="#999" stroke-linecap="round" stroke-linejoin="round"/><path d="m364.37 511c3.39 5.31 6.85 10.59 10.16 15.96 2.09 3.39 3.94 6.92 5.9 10.39" stroke="#999" stroke-linecap="round" stroke-linejoin="round"/><path d="m320.86 545.47c2.81 4.39 5.34 9.01 8.52 13.11 2.88 3.72 6.6 6.73 10.98 8.75" stroke="#999" stroke-linecap="round" stroke-linejoin="round"/><path d="m226.35 509.91c8.87 3.43 19.24 3.76 28.58 1.75" stroke="#999" stroke-linecap="round" stroke-linejoin="round"/><path d="m399.48 689.32c-4.54 1.78-5.42 3.25-3.9 7.82.93.43 2 .93 3.01 1.4 2.78-1.05 4.18-2.77 4.15-5.61-.01-2.02-.85-3.29-2.91-3.61" stroke="#999" stroke-linecap="round" stroke-linejoin="round"/><path d="m514.05 1083.62c-2.18.82-4.36 1.63-6.55 2.46 2.13 6.46 8.62 11.16 6.74 19.23 3.3 0 6.08-.11 8.84.05 1.34.08 5.61.67 6.94 1.04" stroke="#999" stroke-linecap="round" stroke-linejoin="round"/><path d="m390.81 684.26c.96.97 1.92 1.93 2.88 2.89 4.64-.93 4.91-1.4 3.99-6.87-4.15-1.94-5.81-1.03-7.22 3.93-2.43.94-4.99 1.7-4.66 5.54.94 1.48 1.99 3.23 4.66 2.84 3.05-.45 3.07-2.92 3.61-5.08" stroke="#999" stroke-linecap="round" stroke-linejoin="round"/><path d="m500.31 73.8401c1.33 0 2.66-.13 3.97.02 3.28.38 6.1-.55 8.68-2.55 9.62-7.42 20.09-7.87 31.07-3.6 2.1.82 4.26 1.68 6.11 2.93 1.95 1.32 3.55 3.13 5.38 4.79-4.99 8.9-11.79 13.75-21.24 13.78-3.25.01-6.71-1.36-9.71-2.83-4.4-2.15-8.56-4.84-12.67-7.53-3.06-2-6.6-2.74-10.23-1.75" stroke="#999" stroke-linecap="round" stroke-linejoin="round"/><path d="m504.65 102.76c2.11 7.55 4.85 14.79 10.86 20.22 2.03 1.84 4.21 3.57 6.51 5.04 2.33 1.49 4.49.77 5.33-1.78.76-2.32 1.21-4.78 1.47-7.21.5-4.68.95-9.39 1.08-14.09.15-5.5099-2.43-9.9999-6.87-12.9199-5.75-3.78-11.87-6.9999-17.28-11.2999-1.81-1.44-3.54-2.9801-5.12-4.3201-3.03 1.77-6.23 2.98-8.52 5.16-3.39 3.22-6.32 6.9901-9.04 10.8001-1.24 1.74-2.49 3.0399-4.41 3.9399-9.29 4.3799-13.42 11.8899-13.02 22.0199.16 4.07-.84 8.38 2.17 11.92 1.1 1.29 2.33 2.48 3.67 3.91 7.47-6.1 13.91-12.11 15.45-21.61.85-5.21.82-10.38-.6-15.5698-.44-1.62-.26-4.1201.73-5.2901 2.98-3.51 5.94-7.0999 10.33-9.2099 3.71-1.79 4.38-2.0001 7.26.7999 1.16 1.13 2.3 2.29 3.19 3.19-1.12 5.59-2.15 10.7701-3.19 15.9599" stroke="#999" stroke-linecap="round" stroke-linejoin="round"/><path d="m465.62 52.5201c-.12 0-.24.01-.36 0-9.21-1.31-14.84 3.15-18.48 11.18-1.72 3.79-2.24 8.23 2.72 13.17 3.39-1.3 7.5-2.06 10.6-4.26 5.4-3.84 10.93-4.59 17.09-3.12.46.11 1.89-.15 2.37-.15" stroke="#999" stroke-linecap="round" stroke-linejoin="round"/><path d="m499.59 76.9601c.48-2.41 1-5.76 1.42-8.18.14-.82-.15-1.73.06-2.52.33-1.24.61-2.75 1.46-3.57 3.2-3.03 4.92-6.66 6.22-10.86 1.33-4.28 3.79-8.2001 5.62-12.3401 1.21-2.74 2.94-3.2099 5.45-1.7999 2.63 1.48 5.46 2.67 7.9 4.41 2.17 1.56 3.48 3.89 2.57 6.79-1 3.18-3.84 3.49-6.5 3.95-.94.16-1.99.25-2.88-.01-5.26-1.56-8.46.85-11.3 5.04-2.23 3.29-5.82 6.45-8.47 9.47" stroke="#999" stroke-linecap="round" stroke-linejoin="round"/><path d="m502.12 62.2801c-3.86-10.66-16.25-20.27-29.28-16.64-1.4.39-2.9.43-4.33.76-2.82.65-4.37 3.46-2.83 5.72 2.16 3.18 4.71 6.11 7.18 9.07 3.45 4.13 6.87 8.29 10.5 12.27 3.15 3.46 7.47 4.81 11.9 5.81" stroke="#999" stroke-linecap="round" stroke-linejoin="round"/><path d="m482.04 72c-2.7 6.38-2.79 14.65.68 20.79" stroke="#999" stroke-linecap="round" stroke-linejoin="round"/><path d="m486.64 98.2101c2.29.96 5.16 2.8999 7.54 3.3599 3.3.63 6.73.58 10.1.82" stroke="#999" stroke-linecap="round" stroke-linejoin="round"/><path d="m508.11 60.1801c2.9 2.13 8.32 4.24 9.96 7.89" stroke="#999" stroke-linecap="round" stroke-linejoin="round"/><path d="m520.13 90.1501c.72-1.2 1.87-3.5 2.59-4.7" stroke="#999" stroke-linecap="round" stroke-linejoin="round"/><path d="m500.91 59.28c.96.12 3.18.4 4.14.52" stroke="#999" stroke-linecap="round" stroke-linejoin="round"/><path d="m84.33 592.83c1.69 1.08 3.2499 2.47 5.0799 3.2 7.3 2.9 14.7001 5.54 22.0201 8.38 9.95 3.86 19.65 8.35 29.98 11.27 4.6 1.3 8.95 3.49 14.08 5.54 5.37-15.77 10.74-31.56 16.12-47.37-23.45-8.69-46.36-17.19-69.68-25.83-2.5701 6.75-5.34 13.63-7.81 20.61-2.87 8.11-5.27 16.41-9.79 23.84" stroke="#999" stroke-linecap="round" stroke-linejoin="round"/><path d="m120.83 1035.91c1.19 1.67 1.69 4.64 3.92 5.85 2.78-1.21 5.65-1.76 7.55-3.43 4.23-3.72 9.44-5.52 14.18-8.23 1.27-.73 2.65-1.47 3.57-2.56 1.44-1.7 2.64-3.8 1.45-6.07-1.15-2.2-3.03-4.17-5.71-3.55-3.7.85-7.38 2.04-10.83 3.61-3.42 1.56-6.51 3.84-9.8 5.68-3.47 1.94-4.46 5.01-4.33 8.69" stroke="#999" stroke-linecap="round" stroke-linejoin="round"/><path d="m58.46 80.7501c2.36 6.95 4.01 14.24 9.75 19.5299 7.13 6.57 18.8599 9.14 28.1999 4.69 3.26-1.55 6.8101-2.71 9.7001-4.78 5.89-4.2399 10.77-9.9499 10.98-17.2699.18-6.05 1.68-12.39-.79-18.43-3.22-7.87-8.82-13.16-17.0101-15.5-3.42-.98-7.0199-2.24-10.4599-2.04-5.7.34-11.88.62-16.86 3-6.59 3.16-12.04 8.5-12.76 16.71-.4 4.56-.51 9.15-.75 13.73" stroke="#999" stroke-linecap="round" stroke-linejoin="round"/><path d="m134.57 1050.37c.78.91 1.55 2.17 2.23 2.96 6.23-1.41 10.06-6.99 8.98-12.72-5.08-.53-8.74 2.66-11.2 9.76" stroke="#999" stroke-linecap="round" stroke-linejoin="round"/><path d="m270.82 1092.29c.24 5.06.53 10.12.71 15.18.1 2.77.02 5.54.02 8.67h20.96v-33.07h-21.68v8.85" stroke="#999" stroke-linecap="round" stroke-linejoin="round"/><path d="m274.43 1108.2c.6 1.45.9 3.15 1.87 4.28 2.23 2.59 5.7 2 7.53-1.03.5-.83 1.01-1.66 1.8-2.94-1.03-2.02-2.15-4.23-3.01-5.93-6.08-1-7.76.26-8.18 5.26" stroke="#999" stroke-linecap="round" stroke-linejoin="round"/><path d="m51.96 356.15c.84 4.1 1.4799 8.25 2.6099 12.26.62 2.18 1.72 4.45 3.24 6.1 4 4.35 8.03 8.6 14 10.63 8.98 3.06 24.6801-.63 30.3001-8.1 2.61-3.47 5.87-6.52 7.03-11.12 3.16-12.54 3.52-22.79-8.65-31.96-7.29-5.49-15.3001-8.23-23.9501-8.32-6.18-.07-12.34 2.1-16.24 7.75-2.42 3.52-5.2199 6.98-6.7099 10.89-1.34 3.53-1.15 7.64-1.63 11.5" stroke="#999" stroke-linecap="round" stroke-linejoin="round"/><path d="m368.4 685.35c1.18 5.73 2.8 10.82 7.78 15.02 5.23 4.41 15.17 5.17 21.52 1.66 6.14-3.4 9.85-8.5 10.65-15.25.37-3.14-.52-6.7-1.74-9.7-3.29-8.06-10.14-11.38-18.33-12.31-11.16-1.27-20.9 7.37-19.88 20.22" stroke="#999" stroke-linecap="round" stroke-linejoin="round"/><path d="m312.54 466.67c1.4.12 2.93.67 4.18.29 4.22-1.29 4.36-3.67 2.84-6.52-.4-.74-.74-1.51-1.16-2.36-2.24.08-4.48-1.19-6.56 1.55-2.11 2.79-.27 4.55.54 6.72" stroke="#999" stroke-linecap="round" stroke-linejoin="round"/></svg>