<svg fill="none" height="1873" viewBox="0 0 594 1873" width="594" xmlns="http://www.w3.org/2000/svg"><g stroke-linejoin="round"><path d="m264.15 1172.71h86.5" stroke="#000" stroke-linecap="round"/><path d="m564.4 1216.41h-59.82" stroke="#000" stroke-linecap="round"/><path d="m504.58 1443.26v-226.85" stroke="#000" stroke-linecap="round"/><path d="m102.46 1577.17h-72.85" stroke="#000" stroke-linecap="round"/><path d="m491.55 295.489h72.85" stroke="#000" stroke-linecap="round"/><path d="m102.46 1467.38v219.58" stroke="#000" stroke-linecap="round"/><path d="m491.55 405.279v-219.58" stroke="#000" stroke-linecap="round"/><path d="m109.45 1686.96v-219.58" stroke="#000" stroke-linecap="round"/><path d="m484.56 185.699v219.58" stroke="#000" stroke-linecap="round"/><path d="m538.65 896.949c-5.17 0-9.4-4.23-9.4-9.4s4.23-9.4 9.4-9.4 9.4 4.23 9.4 9.4-4.23 9.4-9.4 9.4z" stroke="#000" stroke-linecap="round"/><path d="m510.66 928.699c-5.17 0-9.4-4.23-9.4-9.4s4.23-9.4 9.4-9.4 9.4 4.23 9.4 9.4-4.23 9.4-9.4 9.4z" stroke="#000" stroke-linecap="round"/><path d="m538.65 928.81c-6.48 0-11.77-5.3-11.77-11.77s5.3-11.77 11.77-11.77 11.77 5.3 11.77 11.77-5.3 11.77-11.77 11.77z" stroke="#000" stroke-linecap="round"/><path d="m510.66 901.6c-6.48 0-11.77-5.3-11.77-11.77s5.3-11.77 11.77-11.77 11.77 5.3 11.77 11.77-5.3 11.77-11.77 11.77z" stroke="#000" stroke-linecap="round"/><path d="m259.53 952.13h81.51" stroke="#000" stroke-linecap="round"/><path d="m341.04 952.13c1.64-.17 3.49 1.69 3.33 3.33" stroke="#000" stroke-linecap="round"/><path d="m256.21 1037.38h88.16" stroke="#000" stroke-linecap="round"/><path d="m351.02 959.02v83.35" stroke="#000" stroke-linecap="round"/><path d="m533.94 772.069h-40.75" stroke="#000" stroke-linecap="round"/><path d="m487.37 766.24v-59.051" stroke="#000" stroke-linecap="round"/><path d="m493.19 701.369h40.75" stroke="#000" stroke-linecap="round"/><path d="m539.77 707.189v27.65" stroke="#000" stroke-linecap="round"/><path d="m539.77 766.24c.29 2.86-2.96 6.11-5.82 5.82" stroke="#000" stroke-linecap="round"/><path d="m533.94 701.37c2.86-.29 6.11 2.96 5.82 5.82" stroke="#000" stroke-linecap="round"/><path d="m487.37 707.19c-.29-2.86 2.96-6.11 5.82-5.82" stroke="#000" stroke-linecap="round"/><path d="m493.19 772.07c-2.86.29-6.11-2.96-5.82-5.82" stroke="#000" stroke-linecap="round"/><path d="m351.02 1042.37v1.67" stroke="#000" stroke-linecap="round"/><path d="m564.4 651.699h-1.66" stroke="#000" stroke-linecap="round"/><path d="m562.74 651.699h-83.36" stroke="#000" stroke-linecap="round"/><path d="m539.77 738.59v27.65" stroke="#000" stroke-linecap="round"/><path d="m479.38 651.699v307.32" stroke="#000" stroke-linecap="round"/><path d="m403.67 1420.81v-13.31" stroke="#000" stroke-linecap="round"/><path d="m451.49 1443.26v-22.45" stroke="#000" stroke-linecap="round"/><path d="m403.67 1420.81v22.45" stroke="#000" stroke-linecap="round"/><path d="m451.49 1407.5v13.31" stroke="#000" stroke-linecap="round"/><path d="m504.79 1216.2c-.1-.01-.22.11-.21.21" stroke="#000" stroke-linecap="round"/><path d="m504.58 1441.81c-.01-.1.11-.22.21-.21" stroke="#000" stroke-linecap="round"/><path d="m113.61 1432.04v-7.49h-113.109634v7.49z" stroke="#000" stroke-linecap="round"/><path d="m351.48 1383.38h-88.16" stroke="#000" stroke-linecap="round"/><path d="m479.38 959.02h-128.36" stroke="#000" stroke-linecap="round"/><path d="m370.19 1179.19h194.21" stroke="#000" stroke-linecap="round"/><path d="m344.37 1037.38v-81.92" stroke="#000" stroke-linecap="round"/><path d="m256.21 955.46c-.17-1.64 1.69-3.49 3.33-3.33" stroke="#000" stroke-linecap="round"/><path d="m256.21 1037.38v-81.92" stroke="#000" stroke-linecap="round"/><path d="m264.15 1077.67h86.5v98.28h-2.99v3.24h-80.52v-3.24h-2.99z" stroke="#000" stroke-linecap="round"/><path d="m370.19 1169.59h194.21" stroke="#000" stroke-linecap="round"/><path d="m451.49 1407.5v13.31" stroke="#000" stroke-linecap="round"/><path d="m403.67 1378.25v29.24" stroke="#000" stroke-linecap="round"/><path d="m451.49 1378.25c0-2.93-.49-6.07-1.68-9.13-1.19-3.07-3.1-6.06-5.39-8.46-4.59-4.8-10.71-7.22-16.84-7.22s-12.25 2.43-16.84 7.22c-2.29 2.4-4.2 5.39-5.39 8.46s-1.67 6.21-1.68 9.13" stroke="#000" stroke-linecap="round"/><path d="m451.49 1407.5v-29.24" stroke="#000" stroke-linecap="round"/><path d="m403.67 1420.81v22.45" stroke="#000" stroke-linecap="round"/><path d="m451.49 1443.26v-22.45" stroke="#000" stroke-linecap="round"/><path d="m403.67 1420.81v-13.31" stroke="#000" stroke-linecap="round"/><path d="m403.67 1443.26h47.82" stroke="#000" stroke-linecap="round"/><path d="m403.67 1420.81h47.82" stroke="#000" stroke-linecap="round"/><path d="m545.75 746.94h6.02v-13.35c.15 0-1.53 0-3.01 0s-3.16 0-3.01 0v1.25c-.19 0-.39 0-.61 0-.48 0-1 0-1.56 0-.55 0-1.14 0-1.75 0s-1.24 0-1.9 0c-.45 0-.91 0-1.38 0-.46 0-.93 0-1.4 0s-.94 0-1.41 0-.93 0-1.4 0c-.46 0-.92 0-1.37 0s-.89 0-1.33 0c-.07 0-.14 0-.22 0-.04 0-.07 0-.11 0-.32 0-.63 0-.94 0-.2 0-.41 0-.61 0-.15 0-.3 0-.44 0h-.07s-.05 0-.1 0c-.08 0-.13 0-.18 0h-.21c-.14 0-.29 0-.43 0-.29 0-.58 0-.86 0-.29 0-.57 0-.85 0s-.55 0-.82 0-.52 0-.77 0-.49 0-.72 0-.45 0-.67 0c-.21 0-.42 0-.61 0-.39 0-.74 0-1.04 0-.15 0-.3 0-.43 0-.14 0-.26 0-.37 0s-.22 0-.31 0-.17 0-.24 0-.13 0-.17 0-.08 0-.1 0c-.3 0-.55.05-.78.14s-.44.24-.61.41c-.18.18-.32.39-.41.61-.07.17-.12.35-.13.54v.37c.02.18.06.37.13.54.09.23.24.44.41.61s.39.32.61.41c.23.09.48.14.78.14h.1.17.24.31.37.43 1.04.61.67.72.77.82.85.86.43.21.18.17.44.61.94.11.22 1.33 1.37 1.4 1.41 1.4 1.38 1.9 1.75 1.56.61v8.35z" stroke="#000" stroke-linecap="round"/><path d="m554.01 1258.84-.13-.14" stroke="#000" stroke-linecap="round"/><path d="m553.88 1258.7-.18-.15" stroke="#000" stroke-linecap="round"/><path d="m553.7 1258.55-.21-.1" stroke="#000" stroke-linecap="round"/><path d="m553.49 1258.45-.23-.04" stroke="#000" stroke-linecap="round"/><path d="m553.26 1258.41h-.16" stroke="#000" stroke-linecap="round"/><path d="m553.099 1258.41-12.07.01" stroke="#000" stroke-linecap="round"/><path d="m541.03 1258.42h-.46" stroke="#000" stroke-linecap="round"/><path d="m540.39 1258.21-.091-.34" stroke="#000" stroke-linecap="round"/><path d="m540.3 1257.87-.06-.51" stroke="#000" stroke-linecap="round"/><path d="m540.51 1258.39-.12-.16" stroke="#000" stroke-linecap="round"/><path d="m558.86 1258.02-.1.15" stroke="#000" stroke-linecap="round"/><path d="m559.08 1257.38-.22.64" stroke="#000" stroke-linecap="round"/><path d="m559.13 1255.12-.04 2.17" stroke="#000" stroke-linecap="round"/><path d="m559.15 1254.99-.02.13" stroke="#000" stroke-linecap="round"/><path d="m559.15 1254.44v.54" stroke="#000" stroke-linecap="round"/><path d="m559.13 1254.27.02.15" stroke="#000" stroke-linecap="round"/><path d="m559.09 1254.12.04.15" stroke="#000" stroke-linecap="round"/><path d="m558.86 1253.4.22.64" stroke="#000" stroke-linecap="round"/><path d="m558.76 1253.25.1.15" stroke="#000" stroke-linecap="round"/><path d="m558.5 1252.83.19.3" stroke="#000" stroke-linecap="round"/><path d="m558.37 1252.69.13.14" stroke="#000" stroke-linecap="round"/><path d="m540.24 1257.36-.03-2.65" stroke="#000" stroke-linecap="round"/><path d="m540.21 1254.71.03-.65" stroke="#000" stroke-linecap="round"/><path d="m540.24 1254.06.06-.52" stroke="#000" stroke-linecap="round"/><path d="m540.3 1253.54.08-.33" stroke="#000" stroke-linecap="round"/><path d="m540.39 1253.17.12-.14" stroke="#000" stroke-linecap="round"/><path d="m540.569 1253 12.53.01" stroke="#000" stroke-linecap="round"/><path d="m553.1 1253.01h.16" stroke="#000" stroke-linecap="round"/><path d="m553.26 1253.01.23-.04" stroke="#000" stroke-linecap="round"/><path d="m553.49 1252.97.21-.1" stroke="#000" stroke-linecap="round"/><path d="m553.7 1252.87.17-.15" stroke="#000" stroke-linecap="round"/><path d="m553.87 1252.72.14-.15" stroke="#000" stroke-linecap="round"/><path d="m554.01 1252.57.1-.07" stroke="#000" stroke-linecap="round"/><path d="m554.11 1252.5.15-.15" stroke="#000" stroke-linecap="round"/><path d="m558.69 1258.29-.19.3" stroke="#000" stroke-linecap="round"/><path d="m558.5 1258.59-.13.13" stroke="#000" stroke-linecap="round"/><path d="m558.37 1258.72-.09.12" stroke="#000" stroke-linecap="round"/><path d="m554.26 1252.35.3-.19" stroke="#000" stroke-linecap="round"/><path d="m554.68 1252.09.15-.1" stroke="#000" stroke-linecap="round"/><path d="m554.83 1251.99.64-.22" stroke="#000" stroke-linecap="round"/><path d="m555.47 1251.77.49-.06" stroke="#000" stroke-linecap="round"/><path d="m558.28 1258.84-.12.09" stroke="#000" stroke-linecap="round"/><path d="m558.16 1258.93-.14.14" stroke="#000" stroke-linecap="round"/><path d="m558.02 1259.07-.29.18" stroke="#000" stroke-linecap="round"/><path d="m557.61 1259.33-.16.1" stroke="#000" stroke-linecap="round"/><path d="m557.45 1259.43-.64.22" stroke="#000" stroke-linecap="round"/><path d="m555.96 1251.71.11-.01" stroke="#000" stroke-linecap="round"/><path d="m556.22 1251.7.1.01" stroke="#000" stroke-linecap="round"/><path d="m556.32 1251.71.49.06" stroke="#000" stroke-linecap="round"/><path d="m556.81 1251.77.64.22" stroke="#000" stroke-linecap="round"/><path d="m557.45 1251.99.16.1" stroke="#000" stroke-linecap="round"/><path d="m557.72 1252.16.3.19" stroke="#000" stroke-linecap="round"/><path d="m558.02 1252.35.14.14" stroke="#000" stroke-linecap="round"/><path d="m558.16 1252.49.12.08" stroke="#000" stroke-linecap="round"/><path d="m558.28 1252.57.09.12" stroke="#000" stroke-linecap="round"/><path d="m556.81 1259.65-.67.07" stroke="#000" stroke-linecap="round"/><path d="m556.14 1259.72-.67-.07" stroke="#000" stroke-linecap="round"/><path d="m555.47 1259.65-.64-.22" stroke="#000" stroke-linecap="round"/><path d="m554.83 1259.43-.15-.1" stroke="#000" stroke-linecap="round"/><path d="m554.64 1259.31-.08-.06" stroke="#000" stroke-linecap="round"/><path d="m554.56 1259.25-.3-.18" stroke="#000" stroke-linecap="round"/><path d="m554.26 1259.07-.19-.19" stroke="#000" stroke-linecap="round"/><path d="m514.26 1231.54h32.1" stroke="#000" stroke-linecap="round"/><path d="m512.8 1278.41v-45.4" stroke="#000" stroke-linecap="round"/><path d="m546.36 1279.88h-32.1" stroke="#000" stroke-linecap="round"/><path d="m547.83 1233.01v19.99" stroke="#000" stroke-linecap="round"/><path d="m547.83 1258.42v19.99" stroke="#000" stroke-linecap="round"/><path d="m547.83 1278.41c.07.72-.74 1.54-1.46 1.46" stroke="#000" stroke-linecap="round"/><path d="m546.36 1231.54c.72-.07 1.54.74 1.46 1.46" stroke="#000" stroke-linecap="round"/><path d="m512.8 1233.01c-.07-.72.74-1.54 1.46-1.46" stroke="#000" stroke-linecap="round"/><path d="m514.26 1279.88c-.72.07-1.54-.74-1.46-1.46" stroke="#000" stroke-linecap="round"/><path d="m258.95 1255.78v-106.6h-7.49v106.6z" stroke="#000" stroke-linecap="round"/><path d="m293.82 1456.12v-7.49h-106.6v7.49z" stroke="#000" stroke-linecap="round"/><path d="m113.61 1432.03h-8.37" stroke="#000" stroke-linecap="round"/><path d="m99.5703 1432.03h-5.67" stroke="#000"/><path d="m88.23 1432.03h-5.6701" stroke="#000"/><path d="m76.8901 1432.03h-5.66" stroke="#000"/><path d="m65.5601 1432.03h-5.67" stroke="#000"/><path d="m54.2202 1432.03h-5.67" stroke="#000"/><path d="m42.8799 1432.03h-5.6701" stroke="#000"/><path d="m31.54 1432.03h-5.6699" stroke="#000"/><path d="m20.2002 1432.03h-5.67" stroke="#000"/><path d="m8.86035 1432.03h-8.359984v-8.36" stroke="#000" stroke-linecap="round"/><path d="m.5 1418v-5.67" stroke="#000"/><path d="m.5 1406.66v-5.67" stroke="#000"/><path d="m.5 1395.32v-5.67" stroke="#000"/><path d="m.5 1383.98v-5.67" stroke="#000"/><path d="m.5 1372.64v-5.67" stroke="#000"/><path d="m.5 1361.3v-5.66" stroke="#000"/><path d="m.5 1349.97v-5.67" stroke="#000"/><path d="m.5 1338.63v-5.67" stroke="#000"/><path d="m.500122 1327.29v-8.37c1.999998.1 4.009918.24 6.039918.44" stroke="#000"/><path d="m12.1602 1320.04c1.85.27 3.72.58 5.58.93" stroke="#000"/><path d="m23.2802 1322.15c1.83.43 3.6501.91 5.4801 1.43" stroke="#000"/><path d="m34.1699 1325.27c1.78.6 3.5601 1.24 5.3301 1.93" stroke="#000"/><path d="m44.7401 1329.37c1.72.76 3.43 1.57 5.13 2.42" stroke="#000"/><path d="m54.8901 1334.45c1.65.92 3.2699 1.88 4.8799 2.88" stroke="#000"/><path d="m64.5101 1340.44c1.55 1.07 3.08 2.18 4.59 3.33" stroke="#000"/><path d="m73.5201 1347.32c1.45 1.22 2.8602 2.47 4.2402 3.76" stroke="#000"/><path d="m81.8202 1355.04c1.32 1.35 2.61 2.74 3.86 4.15" stroke="#000"/><path d="m89.3302 1363.53c1.18 1.48 2.3301 2.99 3.4301 4.51" stroke="#000"/><path d="m95.9502 1372.73c1.03 1.59 2.02 3.21 2.96 4.84" stroke="#000"/><path d="m101.62 1382.54c.86 1.69 1.68 3.4 2.45 5.11" stroke="#000"/><path d="m106.26 1392.89c.69 1.77 1.32 3.55 1.91 5.34" stroke="#000"/><path d="m109.8 1403.65c.5 1.84.95 3.67 1.35 5.51" stroke="#000"/><path d="m112.21 1414.74c.31 1.88.56 3.74.76 5.6" stroke="#000" stroke-linecap="round"/><path d="m113.44 1425.99c.11 2.03.17 4.05.17 6.05" stroke="#000" stroke-linecap="round"/><path d="m555.07 937.479v-68.11h-66.54v68.11z" stroke="#000" stroke-linecap="round"/><path d="m109.45 1686.96h-79.8398" stroke="#000" stroke-linecap="round"/><path d="m484.56 185.699h79.84" stroke="#000" stroke-linecap="round"/><path d="m.5 947.14v-194.62" stroke="#000" stroke-linecap="round"/><path d="m9.1499 947.14v-194.62" stroke="#000" stroke-linecap="round"/><path d="m.5 849.83h8.6499" stroke="#000" stroke-linecap="round"/><path d="m29.6104 947.14v-194.62" stroke="#000" stroke-linecap="round"/><path d="m269.56 1.05957h194.62" stroke="#000" stroke-linecap="round"/><path d="m269.56 9.71973h194.62" stroke="#000" stroke-linecap="round"/><path d="m366.87 1.05957v8.66" stroke="#000" stroke-linecap="round"/><path d="m269.56 30.1699h194.62" stroke="#000" stroke-linecap="round"/><path d="m593.51 794.11v-114.78" stroke="#000" stroke-linecap="round"/><path d="m584.86 794.11v-114.78" stroke="#000" stroke-linecap="round"/><path d="m564.4 794.11v-114.78" stroke="#000" stroke-linecap="round"/><path d="m593.51 1432.87v-114.78" stroke="#000" stroke-linecap="round"/><path d="m584.86 1432.87v-114.78" stroke="#000" stroke-linecap="round"/><path d="m564.4 1432.87v-114.78" stroke="#000" stroke-linecap="round"/><path d="m129.829 1871.6h114.77" stroke="#000" stroke-linecap="round"/><path d="m129.829 1862.94h114.77" stroke="#000" stroke-linecap="round"/><path d="m129.829 1842.49h114.77" stroke="#000" stroke-linecap="round"/><path d="m.5 280.1v114.78" stroke="#000" stroke-linecap="round"/><path d="m9.1499 280.1v114.78" stroke="#000" stroke-linecap="round"/><path d="m29.6104 280.1v114.78" stroke="#000" stroke-linecap="round"/><path d="m.5 1318.92v113.11" stroke="#000" stroke-linecap="round"/><path d="m29.6104 947.14v96.9" stroke="#000" stroke-linecap="round"/><path d="m29.6101 1044.04h97.7199" stroke="#000" stroke-linecap="round"/><path d="m29.6104 1220.57v98.35" stroke="#000" stroke-linecap="round"/><path d="m29.6104 1318.92h-29.110034" stroke="#000" stroke-linecap="round"/><path d="m.500366 947.14h29.110034" stroke="#000" stroke-linecap="round"/><path d="m127.33 1044.04v176.53" stroke="#000" stroke-linecap="round"/><path d="m127.33 1220.57h-97.7199" stroke="#000" stroke-linecap="round"/><path d="m555.4 1126.96c.96-.94 1.63-2.1 2.02-3.35v.1h7.86v-5.25h-7.86v.15c-.4-1.27-1.07-2.45-2.02-3.39-1.56-1.53-3.82-2.43-5.87-2.43s-3.9.9-5.24 2.43c-1.33 1.53-2.15 3.71-2.17 5.87s.74 4.32 2.17 5.87 3.51 2.51 5.24 2.43c1.93.08 4.28-.88 5.87-2.43z" stroke="#000" stroke-linecap="round"/><path d="m149.569 108.92c2.03-.51 4.13-.84 6.08-1.56 3.39-1.25 6.88-1.3 10.37-1.15 8.03.32 16.08.52 24.07 1.28 6.24.59 12.38 2.12 18.6 2.92 6.81.87 13.57 1.4 20.44-.44 4.7-1.26 9.71-1.72 14.6-1.86 6.39-.18 12.82.06 19.19.59 5.21.43 10.36 1.61 15.55 2.33 1.59.22 3.25.11 4.87.02 2.34-.13 4.67-.46 7.01-.58 9.9-.53 16.65 4.54 21.61 12.5 3.71 5.94 6.74 12.36 7.75 19.21.91 6.16.19 12.57.19 18.87 0 3.35.23 6.72-.06 10.05-.38 4.39-1.25 8.73-1.74 13.11-.35 3.13-.57 6.29-.61 9.44-.09 6.3-.07 12.6 0 18.89.02 1.53.64 3.07.53 4.57-.38 5.19-.98 10.36-1.47 15.55-.14 1.52-.25 3.05-.3 4.57-.22 6.7-.31 13.41-.65 20.11-.21 4.07-.99 8.12-1.11 12.19-.08 2.83.54 9.04.84 11.88" stroke="#999" stroke-linecap="round"/><path d="m315.35 281.399c.72 9.4 3.61 18.33 5.74 27.44 1.35 5.76 1.52 11.62-3.68 15.75-2.66 2.11-5.88 3.78-9.11 4.84-3.69 1.22-7.71 2.22-11.53 2.08-4.7-.18-9.34-1.72-14.03-2.55-4.45-.79-8.92-1.69-13.41-2.06-3.01-.25-6.16.84-9.12.41-6.33-.92-12.09 1.06-18.01 2.5-1.34.33-2.83.05-4.25.05-4.91 0-9.77.08-14.65 1.11-4.36.92-8.91 1.01-13.39 1.31-7.31.48-14.63.84-21.94 1.23-1.32.07-2.65-.07-3.96.02-5.18.37-10.36.9-15.55 1.15-2.12.1-4.27-.34-6.4-.56-1.73-.18-4.63-.61-6.36-.81" stroke="#999" stroke-linecap="round"/><path d="m102.03 122.329c-1.12-.1-2.2301-.25-3.3501-.3-5.89-.22-11.7799-.58-17.6699-.57-6.4 0-12.8001.46-19.2001.53-4.67.06-9.34-.24-14.02-.25-2.65 0-5.3.24-8.23.39v30.98c0 4.88-.07 9.75.01 14.63.16 9.65.4601 19.3.5601 28.95.03 3.45-1.09 7.06-.4 10.32.98 4.61 1.08 9.15 1.02 13.75-.11 7.92-.43 15.85-.55 23.77-.03 2.13.56 4.27.54 6.4-.15 16.76-.51 33.52-.51 50.28 0 6.5.68 13.01 1.25 19.49.06.68 1.48 1.65 2.35 1.75 2.21.25 4.4599.1 6.6899.08 13.21-.1 26.4101-.18 39.6201-.31 4.77-.05 9.55-.19 14.32-.3" stroke="#999" stroke-linecap="round"/><path d="m96.8501 231.42c-4.73-3.72-9.9501-4.06-15.5501-2.47-2.39.68-4.8799 1.5-7.2999 1.44-3.46-.08-6.92-.82-10.36-1.43-7.3-1.29-12.6101 2.92-13.1001 9.77-.14 1.93-.2099 3.86-.3099 5.79" stroke="#999" stroke-linecap="round"/><path d="m50.2203 244.53c.2 5.28.39 20.01.61 25.29.18 4.37.85 8.77.49 13.09-.43 5.22-1.78 10.36-2.59 15.56-.25 1.59-.4399 3.37.0301 4.85 1.71 5.37 5.8099 7.55 11.1999 7.63 2.7.04 5.29-.15 7.96-1.1 4.26-1.52 8.53-.08 12.78 1.05 5.87 1.56 11.4201 1.19 15.5601-4.18.43-.55 1.3399-.73 1.4099-.76-.28-7.79-.56-15.41-.84-23.03-.21-5.89-.75-11.8-.51-17.67.25-6 .38-12.01 1.52-18.02.85-4.47-.17-9.31-.41-13.98-.14-2.64-.44-5.28-.59-7.92-.43-7.92-.7999-15.85-1.2299-23.77-.38-7.01-.8301-14.02-1.2001-21.03-.25-4.77-.68-9.55-.56-14.32.22-9.55.62-19.11 1.22-28.64.32-5.22 3.1901-9.51 6.0497-13.71 2.22-3.26 4.61-6.42 6.66-9.78 1.96-3.22 4.9-4.98 8.28-6.03 5.74-1.77 11.54-3.42 17.37-4.86 2.35-.58 4.86-.48 7.3-.64.19-.01 8.66 6.39 8.84 6.37" stroke="#999" stroke-linecap="round"/><path d="m47.7099 108h37.6899c.92-8.8404-1.3798-18.2704-.2698-27.7304 1.12-9.49-1.2001-18.85-.3001-28.16-.58-.4-.86-.76-1.14-.77-10.75-.23-21.49-.46-32.24-.59-1.32-.02-2.64.51-4.16.82 0 3.4.05 6.76-.01 10.11-.09 4.37-.3101 8.73-.3801 13.11-.02 1.31.3401 2.64.3801 3.96.17 6.5.34 13 .41 19.5.04 3.2504-.12 6.5004-.19 9.7504" stroke="#999" stroke-linecap="round"/><path d="m155.7 333.3c-1.84 7.73-5.25 5.67-12.54 5.15-9.72-.69-18.23-5.06-27.12-8.29-4.37-1.59-7.45-4.8-10.36-8.23" stroke="#999" stroke-linecap="round"/><path d="m94.4098 139.389c-4.69-4.63-10.23-5.41-16.47-4.01-6.94 1.56-13.86 1.41-20.72-.83-4.63-1.51-7.99 1-7.89 5.75.13 6.4.43 12.8.57 19.2.09 3.86-.06 7.72.04 11.58.12 4.98.5701 9.96.5501 14.93-.03 7.23.15 14.47-1.36 21.66-.61 2.89 1.91 6.36 5.38 6.88 3.28.49 6.6899.11 10.0399.11 4.06 0 8.25-.6 12.15.18 3.44.69 6.6001.15 9.4201-.96 3.59-1.41 7.23-3.33 9.51-6.84" stroke="#999" stroke-linecap="round"/><path d="m79.9598 333.82c-7.29 0-27.13.46-34.92.46v54.35c13.4-2.2 26.8601 1.49 40.5901-1.18v-54.06c-2.11.16-3.8901.3-5.6701.43z" stroke="#999" stroke-linecap="round"/><path d="m98.6703 306.39c2.1297 5.08 4.2697 10.16 6.3997 15.24" stroke="#999" stroke-linecap="round"/><path d="m83.1699 1691.98c-4.35.1-8.6899.31-13.0399.26-4.05-.04-8.1-.45-12.15-.52-1.87-.03-3.76.55-5.63.52-5.53-.1-11.06-.36-16.6-.55-1.09-.04-2.1801 0-3.8401 0 .3 5.74.6601 11.17.8401 16.6.06 1.67-.5 3.35-.53 5.04-.08 4.44-.1 8.89 0 13.34.1 4.55.4799 9.09.5499 13.63.1 7.11.03 14.22.03 21.34 0 5.04.05 10.08-.01 15.11-.17 13.44-.4199 26.87-.5699 40.31-.07 6.52-.01 13.04-.01 19.75 2.36.28 4.14.65 5.93.67 7.9.07 15.81-.03 23.71.06 3.36.04 6.7199.52 10.0799.54 11.66.07 23.31.03 34.9701.03h2.96v-3.56c0-1.58.04-3.16 0-4.74-.18-5.43-.4-10.87-.58-16.3-.06-1.88 0-3.75 0-5.63v-23.71c0-7.21-.11-14.43.03-21.63.18-9.49.62-18.97.83-28.45.08-3.65-.24-7.31-.25-10.96-.04-9.78-.01-19.56-.01-29.34v-2.36c-2.59.32-4.85.73-7.11.83-1.37.06-2.76-.51-4.15-.51-3.16 0-6.32.22-9.48.24-1.88.01-4.05.12-5.93.02" stroke="#999" stroke-linecap="round"/><path d="m109.23 1811.11c9.61-1.21 18.63-5.04 25.79-11.57 2.22-2.02 4.35-4.14 6.53-6.22 2.54-2.43 2.83-5.84 3.16-8.9 1.51-14.15-2.5-26.69-12.08-37.3-1.9-2.1-4.25-3.61-7.38-2.71-.36.11-.9.18-1.16-.01-4.17-3.03-8.99-2.2-13.65-2.35" stroke="#999" stroke-linecap="round"/><path d="m89.6902 1754.21v-7.11h-11.41v43.86h11.71c0-12.15 0-24.01-.01-35.86 0-.2-.19-.4-.28-.59" stroke="#999" stroke-linecap="round"/><path d="m49.4802 1775.17v24.48h3.49v-61.23h-3.5799v35.86c0 .2.0599.4.0899.59" stroke="#999" stroke-linecap="round"/><path d="m138.57 1796.2c-3.67-1.47-3.73-4.88-3.82-7.62-.07-2.17.31-4.4-.08-6.51-1-5.47-1.91-11.01-3.62-16.27-1.33-4.06-3.81-7.75-5.81-11.6-.53-1.02-1.22-1.96-1.76-2.97-1.85-3.45-1.8-3.73.88-6.52" stroke="#999" stroke-linecap="round"/><path d="m49.28 1775.7h-8.63v-14.37h8.7401" stroke="#999" stroke-linecap="round"/><path d="m68.3801 1733.21c2.17 1.38 4.2999 2.85 6.5399 4.12 1.64.93 3.3101.38 4.0401-1.2.5-1.1.31-2.59-1.08-3.54-2.44-1.67-4.7201-3.64-8.3501-2.54-.33.82-.7399 1.84-1.1399 2.86" stroke="#999" stroke-linecap="round"/><path d="m53.1002 1775.79c.69-.05 1.39.02 2.37-.06v-14.45c-.98-.08-1.68.01-2.37-.04" stroke="#999" stroke-linecap="round"/><path d="m54.02 1587.52c.41.81 1.0201 1.58 1.1901 2.44 1.61 8.03 3.1399 16.07 4.8099 24.66 7.68-1.19 15.1701-2.36 22.8301-3.55-2.01-9.25-4.29-18.99-6.27-28.12" stroke="#999" stroke-linecap="round"/><path d="m60.6798 1676.19c-.23-2.06-.42-4.72-.65-6.85h-20.35c0 1.79.4 3.72-1.65 4.45.28 1.01.4701 1.72.7001 2.56h24.4c.07.41.2199 1.32.4199 2.5-7.09.24-13.8.43-20.51.72-1.92.08-2.3399-1.51-2.1899-3.08" stroke="#999" stroke-linecap="round"/><path d="m76.5703 1582.95c-7.11 1.52-15.44 3.05-22.55 4.57" stroke="#999" stroke-linecap="round"/><path d="m60.3701 1672.85c-4.67.2-9.9001.49-14.5801.57-1.93.03-4.4699-.54-6.3999-.74" stroke="#999" stroke-linecap="round"/><path d="m43.65 1666.45h15.1101c.05 1.11.09 1.93.13 2.74" stroke="#999" stroke-linecap="round"/><path d="m43.6499 1666.45v2.74" stroke="#999" stroke-linecap="round"/><path d="m483.44 1554.2c-3.25-3.49-6.55-6.94-9.75-10.49-4.74-5.26-9.5-10.51-14.08-15.92-3.77-4.45-7.48-4.59-12.76-2.33-5.55 2.38-11.73 3.31-17.63 4.88-1.62.43-3.23.88-4.83 1.31 1.68 3.13 3.14 5.84 4.42 8.23-5.87 6.08-12.96 5.74-19.82 5.18-9.04-.75-18-1.78-27.12-1.14-3.19.23-6.47-1.77-9.75-1.92-7.09-.32-14.21.02-21.32-.15-3.98-.1-7.96-1.01-11.93-.96-6.15.07-12.28.78-18.43.97-5.66.18-11.33.16-16.98 0-3.26-.1-6.52-.57-9.76-1.06-6.26-.94-11.17 1.09-14.44 6.54-3.14 5.23-5.05 10.76-3.28 16.97 3.53 12.41 5.32 25.06 6.31 37.94.7 9.06-2.66 17.14-4.11 25.68-.86 5.04-1.98 10.1-2.09 15.18-.23 10.59-.37 21.24.43 31.79.56 7.42 2.77 14.7 4.15 22.06 2.34 12.48 2.25 24.87-.99 37.24-.88 3.36-.78 6.97-1.17 10.46-.41 3.64-.87 7.27-1.42 11.88 1.48 4.03 3.45 5.16 8.65 4.01 1.71-.38 3.35-1.18 5.07-1.38 3.47-.4 6.98-.51 10.47-.78 4.58-.34 9.2-.43 13.72-1.14 10.09-1.58 20.17-2.16 30.37-1.43 8.06.58 16.15.65 24.21 1.16 6.64.42 13.25 1.18 19.88 1.77 3.01.27 6.02.6 9.04.71 11.92.41 23.89.26 35.76 1.31 6.01.53 11.96 2.82 17.66 5.03 2.22.86 3.85 3.55 5.45 5.64 2.79 3.63 5.1 7.65 8.06 11.11 2.38 2.78 4.77 2.02 6.44-1.38 3.79-7.69 8.02-14.79 14.99-20.47 5.6-4.56 9.8-10.94 14.18-16.83 2.11-2.83 2.27-6.71 1.09-10.02-2.23-6.28-.93-12.53-.68-18.83.14-3.36.26-6.84-.42-10.1-1.18-5.68-1.09-11.29-.71-17.01.24-3.7-.19-7.49-.68-11.19-.8-6.05-2.68-12.06-2.66-18.08.03-9.4 1.27-18.79 1.98-28.19.06-.84.17-1.72-.02-2.52-1.4-5.91-3.23-11.75-4.21-17.73-.96-5.83-1.07-11.79-1.55-17.69-.61-7.47-.42-15.12-2.06-22.35-1.24-5.47-4.8-10.42-7.33-15.6" stroke="#999" stroke-linecap="round"/><path d="m532.59 1657.2c3.98.93 7.97 1.85 11.96 2.78.35 6.37.88 12.63 1 18.9.17 8.67.2 17.35-.04 26.02-.09 3.15-1.54 6.25-1.64 9.4-.18 6.13-.06 12.3.34 18.43.32 5.06 1.21 10.08 1.86 15.2-.83.18-1.31.15-1.55.37-5.67 5.14-11.91 3.2-18.08 1.41-3.59-1.04-7.01-2.02-10.9-.86-1.64.49-3.88-.61-5.71-1.35-1.22-.5-2.2-1.62-3.11-2.33.43-5.9 1.31-11.7 1.18-17.47-.23-9.77-1.19-19.51-1.67-29.28-.22-4.57 0-9.15-.05-13.73-.02-1.57-.32-3.13-.33-4.7-.04-5.79-.02-11.57-.02-17.67 6.85-.53 13-1.33 19.16-1.35 3.15-.01 5.41-2.42 7.59-3.75" stroke="#999" stroke-linecap="round"/><path d="m491.389 1757.31c7.59-.12 15.18-.32 22.77-.34 5.66-.01 11.32.28 16.99.32 9.03.06 18.07.02 27.47.02 0-2.17.08-4.34-.01-6.5-.45-10.72-1.05-21.44-1.4-32.17-.2-6.26-.12-12.53 0-18.79.07-3.86.54-7.71.67-11.57.12-3.85.09-7.71.02-11.56-.21-11.2-.52-22.41-.7-33.61-.18-11.68-.15-23.37-.41-35.06-.16-7.11-.75-14.21-1.01-21.33-.1-2.64.31-5.3.3-7.95-.02-3.86-.27-7.71-.32-11.57-.06-4.82-.01-9.64-.01-15.17-5.43.24-10.85.58-16.26.68-3.61.07-7.24-.43-10.84-.28-8.2.34-16.38 1.05-24.58 1.36-6.02.22-12.05.03-18.07.06-.72 0-1.45.22-2.17.35" stroke="#999" stroke-linecap="round"/><path d="m536.64 1658.14c1.21-.2 4.89-.98 5.96-1.16 2.35-3.93 1.48-7.83.47-11.7-1.14-4.35-1.58-8.67-.01-13.02.28-.78.36-1.68.37-2.52.14-8.55.24-17.11.38-25.66.09-5.54.41-11.09.28-16.62-.06-2.78-1.43-5.58-1.26-8.31.32-5.09 1.34-10.13 2.04-15.19.1-.71.01-1.45.01-2.17-7.35 0-14.41.63-21.3-.17-7.23-.84-14.25-.57-21.32.87-2.52.76-2.46 3.01-2.15 5.08 1.16 7.61.98 15.18 0 22.78-.17 1.29.27 2.64.31 3.97.15 4.7.02 9.42.44 14.09.42 4.61 1.44 9.15 2.07 13.74.28 2.03.22 4.1.4 6.14.33 3.86.7 7.71 1.08 11.57.34 3.5.8 6.98 1.05 10.48.16 2.29.03 4.6.03 7.53 9.29.28 18.52-2.75 27.11-.66" stroke="#999" stroke-linecap="round"/><path d="m537.29 1789.83c-2.36-6.95-4.01-14.24-9.75-19.53-7.13-6.57-18.86-9.14-28.2-4.69-3.26 1.55-6.81 2.71-9.7 4.78-5.89 4.24-10.77 9.95-10.98 17.27-.18 6.05-1.68 12.39.79 18.43 3.22 7.87 8.82 13.16 17.01 15.5 3.42.98 7.02 2.24 10.46 2.04 5.7-.34 11.88-.62 16.86-3 6.59-3.16 12.04-8.5 12.76-16.71.4-4.56.51-9.15.75-13.73" stroke="#999" stroke-linecap="round"/><path d="m543.8 1514.44c-.84-4.1-1.48-8.25-2.61-12.26-.62-2.18-1.72-4.45-3.24-6.1-4-4.35-8.03-8.6-14-10.63-8.98-3.06-24.68.63-30.3 8.1-2.61 3.47-5.87 6.52-7.03 11.12-3.16 12.54-3.52 22.79 8.65 31.96 7.29 5.49 15.3 8.23 23.95 8.32 6.18.07 12.34-2.1 16.24-7.75 2.42-3.52 5.22-6.98 6.71-10.89 1.34-3.53 1.15-7.64 1.63-11.5" stroke="#999" stroke-linecap="round"/><path d="m117.01 1019.65c1.18-5.64-.62-10.43-3.93-14.95-6.14-8.39-14.5698-13.02-24.4098-15.52-1.31-.33-2.64-.61-3.96-.92" stroke="#999" stroke-linecap="round"/><path d="m74.6498 984.6c1.22-3.66 2.6901-8.09 4.3401-11.55 3.77-7.89 9.38-14.15 17.61-17.69.43-.18 1.0099-.02 1.7399-.02-3.25 9.15-9.34 16.86-14.55 24.68" stroke="#999" stroke-linecap="round"/><path d="m83.79 980.029c-2.13 2.34-6.62 6.48-8.76 8.81" stroke="#999" stroke-linecap="round"/><path d="m75.26 1038.24c2.78-3.03 3.7499-6.85 4.9199-10.65 1.87-6.12.04-12.36.85-18.53" stroke="#999" stroke-linecap="round"/><path d="m74.96 1039.15c-1.12-4.47-2.65-8.89-3.24-13.42-.61-4.71-.7901-9.58-.3001-14.3.6-5.74 2.1401-11.39 3.1901-17.09.09-.5-.3701-1.11-.5701-1.67" stroke="#999" stroke-linecap="round"/><path d="m117.01 1019.65c-3.87-2.68-9.75-5.99-13.71-8.53-.62-.4-1.35-.7-1.81-1.23-6.2398-7.23-14.6598-11.611-22.2698-17.051-.71-.51-2.03-1.02-2.74-1.52" stroke="#999" stroke-linecap="round"/><path d="m73.1301 989.48c-8.88-4.86-14.4901-13.05-18.5901-21.94-3.5-7.58-3.7899-8.56-3.3099-11.19 11.49 6.28 19.9 14.95 23.12 27.95" stroke="#999" stroke-linecap="round"/><path d="m74.6503 984.6c.11 1.23.22 2.45.39 4.24 3.49-.31 7.1.21 9.9-1.05 7.28-3.27 13.42-9.19 15.0897-13.58-3.1797 1.13-6.3596 2.25-9.5296 3.38-2.24.8-4.4701 1.62-6.7101 2.44" stroke="#999" stroke-linecap="round"/><path d="m74.04 992.679c-6.06 9.251-14.4799 18.281-22.8599 25.441-.88.75-1.82 1.44-2.74 2.13-.25.19-.5701.28-1.0301.49-.19-.55-.5699-1.07-.4499-1.39 2.41-6.25 4.36-12.69 8.77-18.02 4.29-5.201 9.84-8.38 15.88-10.95.54-.23 1.02-.601 1.53-.901" stroke="#999" stroke-linecap="round"/><path d="m63.0002 994.88c-2.95-.71-7.44-1.39-10.27-2.41-4.1-1.48-8.05-3.36-12.06-5.08-.15-.32-.3-.64-.46-.96.61-.3 1.19-.68 1.83-.9 7.24-2.5 14.56-2.65 21.95-.65.45.12 1.66-.34 2.17-.44" stroke="#999" stroke-linecap="round"/><path d="m90.7998 1001.06c-2.08 4.37-10.13 8.17-9.77 8-.85-6.05-1.4999-11.491-4.5199-16.241-.23-.36-.03-1-.03-1.5" stroke="#999" stroke-linecap="round"/><path d="m81.0498 967.84c-5-2.66-10.1499-3.53-15.5399-1.22" stroke="#999" stroke-linecap="round"/><path d="m49.6599 983.76c.87-4.47 2.9201-9 6.0901-12.26" stroke="#999" stroke-linecap="round"/><path d="m71.3604 1012.03c-3.11-.69-7.51-1.04-9.87-3.71" stroke="#999" stroke-linecap="round"/><path d="m94.8502 990.89c.6-2.89.63-6.16-1-8.72" stroke="#999" stroke-linecap="round"/><path d="m53.9302 1002.89c-3.26-2.93-4.48-7.33-4.57-11.58" stroke="#999" stroke-linecap="round"/><path d="m91.5303 977.229c-.81-1.12-2.05-3.09-2.86-4.2" stroke="#999" stroke-linecap="round"/><path d="m328.62 1086.27c-3.73.48-7.83.6-11.56 1.09-2.53.33-3.5 1.61-4.1 4.31-2.51 11.34-.71 22.47.9 33.63.33 2.27 1.33 4.44 2.03 6.7 8.17 1.06 15.89.42 23.56-.63 2.33-.32 3.75-2.21 4.36-4.62 1.94-7.61 2.55-15.29 1.86-23.14-.36-4.08-.32-8.01-2.09-11.99-1.88-4.23-5-5.1-8.83-5.33-2.04-.12-4.09-.02-6.14-.02" stroke="#999" stroke-linecap="round"/><path d="m404.15 1007.12c-4.54 1.78-5.42 3.25-3.9 7.82.93.43 2 .93 3.01 1.4 2.78-1.05 4.18-2.77 4.15-5.61-.01-2.02-.85-3.29-2.91-3.61" stroke="#999" stroke-linecap="round"/><path d="m373.07 1003.15c1.18 5.73 2.8 10.82 7.78 15.02 5.23 4.41 15.17 5.17 21.52 1.66 6.14-3.4 9.85-8.5 10.65-15.25.37-3.14-.52-6.7-1.74-9.7-3.29-8.06-10.14-11.38-18.33-12.31-11.16-1.27-20.9 7.37-19.88 20.22" stroke="#999" stroke-linecap="round"/><path d="m330.54 888.159c-7.41 5.46-20.231 12.24-27.401 14.49-2.26 1.09-5.2.85-7.84 1.02-10.5.65-20.92-.14-30.91-3.42-6.16-2.03-11.36-6.16-15.77-10.86-4.06-4.32-7.989-8.94-11.009-14.01-3.13-5.26-5.19-11.19-7.5-16.91-.61-1.51-.53-3.32-.63-5-.2-3.38-.521-6.76-.401-10.13.1-2.73.691-5.45 1.191-8.15.71-3.74.85-7.8 2.46-11.12 4.03-8.33 5.859-18.12 14.949-23.38 2.77-1.6 5.08-4.16 7.25-6.6 4.27-4.8 9.97-6.67 15.81-8.32 12.67-3.57 25.44-4.93 38.13-.38 9.09 3.26 16.61 8.71 23.14 16.08 7.39 8.36 12.94 17.69 15.99 28.13 3.51 11.97 3.991 24.34-1.469 36.13-3.66 7.9-9.44 16.48-16 22.44" stroke="#999" stroke-linecap="round"/><path d="m359.47 896.15c-.89 1.72-2.07 3.23-2.89 4.82 3.25 3.52 6.55 3.5 9.76.33 3.47-3.43 5.92-7.48 8.15-11.82 5.18-10.11 8.86-20.7 10.71-31.87.57-3.41.18-7.02-.12-10.51-.12-1.43-1.15-2.79-1.81-4.28-1.26-.22-2.49-.45-3.81-.68-2.1 2.15-3.4 4.4-3.93 7.5-2.16 12.61-4.76 25.16-10.24 36.84-1.55 3.3-3.76 6.29-5.83 9.69-7.55-2.12-14.63-4.12-21.72-6.1-.11-.03-6.19-2.72-6.25-2.78" stroke="#999" stroke-linecap="round"/><path d="m206.42 931.07c7.69-2.98 15.14-7.75 20.99-13.38 3.94-3.8 7.65-7.84 11.38-11.84 5.7-6.11 3.92-9.72-.06-15.58-5.94-8.75-14.301-15.32-21.851-22.59-1.89-1.82-3.99-3.8-6.38-4.63-5.15-1.79-9.859 1.08-13.139 4.14-7.1 6.61-13.491 14.04-19.781 21.45-3.19 3.76-2.67 8.19.72 12.93 7.97 11.16 16.66 21.66 28.13 29.5.56.38 1.12.79 1.6 1.27 1.77 1.82 2.831 3.94 1.441 6.35-1.49 2.58-4.17 2.32-6.3 1.4-3.63-1.58-7.231-3.42-10.481-5.67-6.9-4.79-13-10.59-17.64-17.6-3.51-5.3-6.549-10.97-9.199-16.75-2.2-4.78-1.481-6.04 3.389-9.84 1.86 1.66 4.53 4.33 6.5 6.09" stroke="#999" stroke-linecap="round"/><path d="m287.57 755.05c2.76-.32 5.51-.64 8.62-1-.19-1.68-.35-2.99-.51-4.37-6.04-4.6-12.97-5.19-20.07-3.74-7.61 1.55-15.18 3.39-22.64 5.54-6.03 1.74-11.64 4.63-16.43 8.78-2.7 2.34-3.99 5.34-1.98 9.27 3.15 2.2 6.14-.14 9.02-1.45 12.16-5.56 24.62-10.07 37.92-11.98 1.91-.27 3.8-.67 5.7-1.01" stroke="#999" stroke-linecap="round"/><path d="m246.27 800.58c-1.44-6.14-2.95-12.26-4.29-18.43-.84-3.89-1.42-7.84-2.12-11.76" stroke="#999" stroke-linecap="round"/><path d="m298.75 782.5c-1.19-5.08-2.04-10.27-3.68-15.2-1.48-4.47-3.99-8.54-7.46-11.89" stroke="#999" stroke-linecap="round"/><path d="m376.099 847.4c-7.23-6.17-16.91-9.93-26.38-11.14" stroke="#999" stroke-linecap="round"/><path d="m280.45 859.589c-1.28-.58-2.54-1.6-3.84-1.66-4.41-.19-5.33 2.02-4.85 5.21.13.83.2 1.67.31 2.61 2.14.66 3.83 2.61 6.7.71 2.92-1.93 1.76-4.21 1.72-6.52" stroke="#999" stroke-linecap="round"/><path d="m551.47 231.539c1.02-.7 2.04-1.41 3.57-2.47-6.65-10.24-13.29-20.47-20.25-31.2-8.08 4.74-15.78 9.26-23.44 13.76 3.47 5.77 7.62 12.69 10.86 18.08" stroke="#999" stroke-linecap="round"/><path d="m521.64 228.75c1.75 6.32 3.78 14.2 5.65 20.93 9.22-1.48 17.95-4.03 26.79-6.59-1.02-3.99-1.97-7.67-2.93-11.41-6.7 3.78-13.1 7.4-19.59 11.07-3.34-4.66-6.34-8.86-9.35-13.05" stroke="#999" stroke-linecap="round"/><path d="m507.28 272.07c.43-1.9.87-3.8 1.36-5.94h-5.99c.15 2 .3 3.83.46 5.94h3.87" stroke="#999" stroke-linecap="round"/><path d="m78.6899 666.689c4.79-.12 9.57-.28 14.36-.34 4.9-.06 9.8001-.01 14.7101-.01 3.03 0 6.07-.08 9.1.02 4.9.16 9.82.27 14.7.73 4.82.46 8.09 3.88 8.37 8.71.39 6.88.72 13.77.65 20.66-.04 3.66-.58 7.36-2.99 10.56-1.11 1.47-2.2 1.99-3.92 2.08-10.86.53-21.71 1.28-32.57 1.67-5.8201.21-11.6701-.17-17.5101-.29-11.32-.23-22.65-.43-33.97-.73-1.86-.05-3.71-.55-6.17-.94-3.96-2.89-4.8-7.54-5.11-12.68-.44-7.19-.5599-14.32 1.1701-21.36.34-1.39 1.18-2.66 1.63-3.63-.69-2.6-1.8101-5.07-1.9301-7.59-.44-9.33-.67-18.67-.75-28.01-.12-13.54.06-27.08-.06-40.62-.09-10.39-.4-20.78-.69-31.16-.14-5.14-.58-10.27-.64-15.41-.03-3.03.56-6.07.62-9.1.11-5.83-.1099-11.68.0701-17.51.18-6.07.8499-12.14.9699-18.21.17-8.75 0-17.51.06-26.26.05-7.35.2001-14.71.3501-22.06.05-2.57.2199-5.14.3399-7.7.14-2.88 1.38-5.12 3.84-6.76 1.53-.08 3.0501-.19 4.5701-.24 10.15-.36 20.3299-.42 30.4599-1.13 12.41-.87 24.7301-1.06 37.1401.31 7.75.86 15.63.55 23.45.83 5.25.18 10.5.52 15.76.66 2.92.08 4.81 1.59 6.12 3.49-.17 37.39-.35 74.39-.47 111.39 0 .7.66 1.4.94 1.97 9.66 3.1 19.61 3 29.48 3.23 10.62.25 21.24.01 31.86.07 6.65.04 13.32.54 19.96.25 7.02-.31 14.02-1.23 21.01-2.08 1.6-.19 3.11-1.18 5.1-1.98.52-5.28 1.33-10.54 1.5-15.82.33-10.15.32-20.31.4-30.46.05-6.3-.08-12.61.04-18.91.08-4.07-.89-7.58-4.23-10.16" stroke="#999" stroke-linecap="round"/><path d="m548.64 438.499c-2.55 0-5.1-.02-7.65 0-9.96.11-19.92.23-29.87.37-.49 0-.97.23-1.82.44 0 1-.1 2.11.02 3.19 1.24 11.28 1 22.57.43 33.89-.33 6.41.32 12.87.25 19.3-.15 15.42-.21 30.85-.77 46.26-.57 15.57.5 31.09.73 46.63.14 9.34-.49 18.7-.64 28.05-.12 7.29-.02 14.58-.02 22.22h45.17c0-4.12-.08-7.89.02-11.66.18-6.56.59-13.11.68-19.67.12-9.11 0-18.21.04-27.32.09-18.58.35-37.16.3-55.74-.02-7.04-.81-14.08-.98-21.13-.09-3.51.57-7.04.64-10.56.12-5.58-.06-11.17.06-16.76.13-6.32.55-12.63.68-18.94.12-5.83.03-11.67.03-17.54-2.78-.42-4.85-.73-6.92-1.04" stroke="#999" stroke-linecap="round"/><path d="m41.9201 671.59c2.17 2.36 4.86 3.25 8.05 3.18 4.9-.11 9.82.2 14.7-.1 4.78-.29 8.6501-2.98 12.2101-5.95.92-.77 1.6099-2.23 1.7299-3.45.61-6.17.97-12.37 1.48-18.55.67-8.17 1.39-16.34 2.09-24.51.34-3.97.82-7.93 1.03-11.91.54-10.5 1.13-21.01 1.36-31.52.13-5.94-.4-11.9-.63-17.86-.23-5.95-.49-11.9-.69-17.86-.26-7.47-.43-14.94-.72-22.41-.43-11.21-.9199-22.41-1.3899-33.62-.09-2.18-.7501-3.96-2.4001-5.65-11.53-11.82-22.9299-23.76-34.3599-35.67-.97-1.01-1.8701-2.1-2.8101-3.15" stroke="#999" stroke-linecap="round"/><path d="m160.63 480.75c4.03 2.72 8.55 3.59 13.31 3.49 9.81-.2 19.61-.47 29.41-.69 6.42-.14 12.84-.24 19.26-.35 7.24-.12 14.47-.27 21.71-.34 5.49-.05 10.97.07 16.46-.06 1.76-.04 3.5-.65 5.22-1 6.08-4.69 5.11-11.48 5.24-17.87.09-4.31-.41-8.64-.25-12.95.19-5.27-2.87-9.77-8.12-10.07-8.15-.46-16.34-.32-24.51-.44-6.77-.11-13.54-.21-20.31-.36-3.62-.08-7.24-.31-10.86-.33-11.32-.04-22.65-.13-33.97.04-4.54.07-8.84 1.45-12.61 4.15" stroke="#999" stroke-linecap="round"/><path d="m159.93 481.1c-5.33 4.11-11.66 2.19-17.52 2.66-7.31.59-14.7.19-22.05.13-9.22-.07-18.44-.2-27.6603-.35-3.97-.06-7.94-.22-11.91-.34" stroke="#999" stroke-linecap="round"/><path d="m161.33 558.479c-.12 4.9-.18 9.81-.37 14.71-.13 3.39-.45 6.77-.68 10.16-.02.35 0 .7 0 1.05 0 7 .13 14.01-.04 21.01-.14 5.49-.85 10.97-.96 16.46-.11 6.07.29 12.14.27 18.21-.03 10.58 1.06 21.271-3.06 31.681-4.81 2.84-10.15 4.699-16.18 3.339" stroke="#999" stroke-linecap="round"/><path d="m83.8101 1285.73c.24.61.78 2.08.9 2.71.06.3-.2799.68-.5699 1.29-1.18.49-2.64 1.09-4.38 1.8-.77-1.17-1.5401-2.32-2.2101-3.33m0 0c-8.53 1.09-16.2-1.5-22.48-6.57-2.87-2.32-3.85-7.19-5.24-11.07-2.11-5.89-2.31-11.98 1.11-17.42 3.73-5.93 9.2-9.97 15.96-12.06 9.33-2.88 20.2 1.76 24.75 9.11 4.27 6.9 5.1101 14.48 3.2201 22.19-2.08 8.51-9.1401 13.44-17.3201 15.82z" stroke="#999" stroke-linecap="round"/><path d="m93.2302 1253.1c1.21-.98 3.23-2.04 4.68-3.21-.56-1.25-1.65-2.69-2.42-4.4-1.93.86-3.27 1.77-4.92 2.51" stroke="#999" stroke-linecap="round"/><path d="m50.3401 1254.19c-.95-1.01-2.85-2.01-4.01-3.23 1.12-1.23 2.1-2.59 3.02-3.6 1.29.64 2.63 2.33 3.71 2.86" stroke="#999" stroke-linecap="round"/><path d="m278.64 627.82c-6.27-3.5-14.06-4.35-16.45-1.32 4.67 3.82 10.3 3.66 15.91 4.69.24-1.35.38-2.18.53-3.01" stroke="#999" stroke-linecap="round"/><path d="m297.9 642.879c-.35-2.92-1.06-5.85-.98-8.75.23-7.77-1.96-15-5.44-21.65-4.61-8.83-11.22-15.64-21.94-16.89-5.97-.7-11.95-2.49-17.85-2.21-7.48.36-15.61-.96-22.08 4.67-.13.12-.47-.04-.69.02-8.68 2.39-12.74 9.64-17.14 16.46-3.96 6.15-5.81 13.05-5.92 20.3-.12 8.28-.2 16.6.4 24.85.6 8.17 4.92 15.02 9.33 21.73 6.65 10.13 16.83 13.31 28.04 14.26 3.34.29 6.78-.27 10.15-.65 5.38-.6 10.79-1.13 16.1-2.14 5.87-1.12 10.81-4.05 14.39-9.03.82-1.13 1.78-2.19 2.8-3.15 6.9-6.47 9.03-14.77 9.48-23.82.23-4.56.89-9.11 1.36-13.66" stroke="#999" stroke-linecap="round"/></g><path d="m29.6099 1044.04v-96.9h-29.110022v371.78h29.110022v-98.35h97.7301v-176.53z" fill="#e6e6e6" stroke="#000" stroke-miterlimit="10"/><path d="m306.98 429.4v-24.12h-277.3797v-10.4h-29.109944v357.64h29.109944v-323.12z" fill="#e6e6e6" stroke="#000" stroke-miterlimit="10"/><path d="m240.45 1467.38h323.95v375.11h-319.8v29.11h348.91v-438.73h-29.11v10.4h-196.7v-111.03h-16.22v111.03h-88.16v-134.32h-16.22v134.32h-6.65v24.12z" fill="#e6e6e6" stroke="#000" stroke-miterlimit="10"/><path d="m129.83 1842.49h-100.2198v-375.11h104.3798v-24.12h-104.3798v-11.23h-29.109956v439.56h129.329756v-29.11z" fill="#e6e6e6" stroke="#000" stroke-miterlimit="10"/><path d="m564.4 1070.65v247.44h29.11v-523.981h-29.11v249.931h-317.3v158.44h16.22v-134.32h88.16v111.03h18.71v-108.54z" fill="#e6e6e6" stroke="#000" stroke-miterlimit="10"/><path d="m464.18 1.05957v29.11003h100.22v375.1104h-97.73v24.12h97.73v249.93h29.11v-678.27043z" fill="#e6e6e6" stroke="#000" stroke-miterlimit="10"/><path d="m269.56 1.05957h-269.059512v279.04043h29.110012v-249.9304h239.9495z" fill="#e6e6e6" stroke="#000" stroke-miterlimit="10"/></svg>