<svg width="384" height="586" viewBox="0 0 384 586" fill="none" xmlns="http://www.w3.org/2000/svg">
<path d="M195.533 463.113L222.725 463.113" stroke="black" stroke-width="0.25" stroke-linecap="round" stroke-linejoin="round"/>
<path d="M195.533 509.237L222.725 509.237" stroke="black" stroke-width="0.25" stroke-linecap="round" stroke-linejoin="round"/>
<path d="M222.725 416.989L222.725 571.061" stroke="black" stroke-width="0.25" stroke-linecap="round" stroke-linejoin="round"/>
<path d="M189.062 463.113L161.871 463.113" stroke="black" stroke-width="0.25" stroke-linecap="round" stroke-linejoin="round"/>
<path d="M189.062 509.237L161.871 509.237" stroke="black" stroke-width="0.25" stroke-linecap="round" stroke-linejoin="round"/>
<path d="M161.871 416.989L161.871 571.061" stroke="black" stroke-width="0.25" stroke-linecap="round" stroke-linejoin="round"/>
<path d="M159.928 416.989L159.928 571.061" stroke="black" stroke-width="0.25" stroke-linecap="round" stroke-linejoin="round"/>
<path d="M224.666 416.989L224.666 571.061" stroke="black" stroke-width="0.25" stroke-linecap="round" stroke-linejoin="round"/>
<path d="M260.801 317.079L260.801 326.532C260.77 326.851 261.132 327.213 261.447 327.178L276.982 327.178C277.302 327.209 277.664 326.847 277.629 326.532L277.629 305.494C277.66 305.174 277.302 304.813 276.982 304.848L261.447 304.848C261.128 304.816 260.766 305.174 260.801 305.494L260.801 314.974" stroke="black" stroke-width="0.25" stroke-linecap="round" stroke-linejoin="round"/>
<path d="M284.494 207.212C282.482 207.212 280.836 205.566 280.836 203.554C280.836 201.542 282.482 199.896 284.494 199.896C286.506 199.896 288.152 201.542 288.152 203.554C288.152 205.566 286.506 207.212 284.494 207.212Z" stroke="black" stroke-width="0.25" stroke-linecap="round" stroke-linejoin="round"/>
<path d="M309.584 206.71C307.062 206.71 304.999 204.647 304.999 202.125C304.999 199.604 307.062 197.541 309.584 197.541C312.105 197.541 314.168 199.604 314.168 202.125C314.168 204.647 312.105 206.71 309.584 206.71Z" stroke="black" stroke-width="0.25" stroke-linecap="round" stroke-linejoin="round"/>
<path d="M309.584 217.19C307.062 217.19 304.999 215.128 304.999 212.606C304.999 210.084 307.062 208.021 309.584 208.021C312.105 208.021 314.168 210.084 314.168 212.606C314.168 215.128 312.105 217.19 309.584 217.19Z" stroke="black" stroke-width="0.25" stroke-linecap="round" stroke-linejoin="round"/>
<path d="M295.488 217.284C291.561 217.284 288.35 214.073 288.35 210.147C288.35 206.22 291.561 203.009 295.488 203.009C299.414 203.009 302.625 206.22 302.625 210.147C302.625 214.073 299.414 217.284 295.488 217.284Z" stroke="black" stroke-width="0.25" stroke-linecap="round" stroke-linejoin="round"/>
<path d="M365.145 138.419L365.145 122.272L343.783 122.272L343.783 157.554L365.145 157.554L365.145 140.696" stroke="black" stroke-width="0.25" stroke-linecap="round" stroke-linejoin="round"/>
<path d="M257.197 185.068L215.603 185.068" stroke="black" stroke-width="0.25" stroke-linecap="round" stroke-linejoin="round"/>
<path d="M215.604 185.068L215.604 221.483" stroke="black" stroke-width="0.25" stroke-linecap="round" stroke-linejoin="round"/>
<path d="M257.197 221.483L257.197 185.068" stroke="black" stroke-width="0.25" stroke-linecap="round" stroke-linejoin="round"/>
<path d="M339.25 11.7334L339.25 188.466" stroke="black" stroke-width="0.25" stroke-linecap="round" stroke-linejoin="round"/>
<path d="M257.198 188.466L339.25 188.466" stroke="black" stroke-width="0.25" stroke-linecap="round" stroke-linejoin="round"/>
<path d="M280.342 281.065L280.342 350.956" stroke="black" stroke-width="0.25" stroke-linecap="round" stroke-linejoin="round"/>
<path d="M362.152 337.038L362.152 342.214" stroke="black" stroke-width="0.25" stroke-linecap="round" stroke-linejoin="round"/>
<path d="M343.537 325.655L343.537 337.038" stroke="black" stroke-width="0.25" stroke-linecap="round" stroke-linejoin="round"/>
<path d="M362.151 325.656C362.237 323.411 361.171 320.679 359.427 318.826C357.684 316.974 355.267 315.997 352.846 315.997C350.426 315.997 348.009 316.974 346.266 318.826C344.522 320.679 343.456 323.411 343.541 325.656" stroke="black" stroke-width="0.25" stroke-linecap="round" stroke-linejoin="round"/>
<path d="M362.152 337.038L362.152 325.655" stroke="black" stroke-width="0.25" stroke-linecap="round" stroke-linejoin="round"/>
<path d="M343.537 342.214L343.537 350.955" stroke="black" stroke-width="0.25" stroke-linecap="round" stroke-linejoin="round"/>
<path d="M362.152 350.955L362.152 342.214" stroke="black" stroke-width="0.25" stroke-linecap="round" stroke-linejoin="round"/>
<path d="M343.537 342.214L343.537 337.038" stroke="black" stroke-width="0.25" stroke-linecap="round" stroke-linejoin="round"/>
<path d="M343.538 350.956L362.152 350.956" stroke="black" stroke-width="0.25" stroke-linecap="round" stroke-linejoin="round"/>
<path d="M343.538 342.214L362.152 342.214" stroke="black" stroke-width="0.25" stroke-linecap="round" stroke-linejoin="round"/>
<path d="M316.869 219.541C317.052 219.561 317.262 219.346 317.243 219.16" stroke="black" stroke-width="0.25" stroke-linecap="round" stroke-linejoin="round"/>
<path d="M278.398 219.157L278.398 192.409" stroke="black" stroke-width="0.25" stroke-linecap="round" stroke-linejoin="round"/>
<path d="M316.869 192.027L278.774 192.027" stroke="black" stroke-width="0.25" stroke-linecap="round" stroke-linejoin="round"/>
<path d="M317.242 219.157L317.242 192.409" stroke="black" stroke-width="0.25" stroke-linecap="round" stroke-linejoin="round"/>
<path d="M316.869 219.542L278.774 219.542" stroke="black" stroke-width="0.25" stroke-linecap="round" stroke-linejoin="round"/>
<path d="M316.869 192.027C317.052 192.008 317.262 192.222 317.243 192.408" stroke="black" stroke-width="0.25" stroke-linecap="round" stroke-linejoin="round"/>
<path d="M278.773 192.027C278.591 192.008 278.38 192.222 278.4 192.408" stroke="black" stroke-width="0.25" stroke-linecap="round" stroke-linejoin="round"/>
<path d="M278.773 219.541C278.591 219.561 278.38 219.346 278.4 219.16" stroke="black" stroke-width="0.25" stroke-linecap="round" stroke-linejoin="round"/>
<path d="M22.4428 342.214L41.0566 342.214" stroke="black" stroke-width="0.25" stroke-linecap="round" stroke-linejoin="round"/>
<path d="M22.4428 350.956L41.0566 350.956" stroke="black" stroke-width="0.25" stroke-linecap="round" stroke-linejoin="round"/>
<path d="M22.4434 342.214L22.4434 337.038" stroke="black" stroke-width="0.25" stroke-linecap="round" stroke-linejoin="round"/>
<path d="M41.0566 350.955L41.0566 342.214" stroke="black" stroke-width="0.25" stroke-linecap="round" stroke-linejoin="round"/>
<path d="M22.4434 342.214L22.4434 350.955" stroke="black" stroke-width="0.25" stroke-linecap="round" stroke-linejoin="round"/>
<path d="M41.0566 337.038L41.0566 325.655" stroke="black" stroke-width="0.25" stroke-linecap="round" stroke-linejoin="round"/>
<path d="M41.0577 325.656C41.1433 323.411 40.077 320.679 38.3335 318.826C36.5901 316.974 34.1733 315.997 31.7527 315.997C29.3321 315.997 26.9153 316.974 25.1718 318.826C23.4284 320.679 22.3621 323.411 22.4477 325.656" stroke="black" stroke-width="0.25" stroke-linecap="round" stroke-linejoin="round"/>
<path d="M22.4434 325.655L22.4434 337.038" stroke="black" stroke-width="0.25" stroke-linecap="round" stroke-linejoin="round"/>
<path d="M41.0566 337.038L41.0566 342.214" stroke="black" stroke-width="0.25" stroke-linecap="round" stroke-linejoin="round"/>
<path d="M78.7051 331.564L78.7051 344.056" stroke="black" stroke-width="0.25" stroke-linecap="round" stroke-linejoin="round"/>
<path d="M60.4607 330.991L78.1328 330.991" stroke="black" stroke-width="0.25" stroke-linecap="round" stroke-linejoin="round"/>
<path d="M59.8926 344.056L59.8926 331.564" stroke="black" stroke-width="0.25" stroke-linecap="round" stroke-linejoin="round"/>
<path d="M78.1328 344.624L70.3495 344.624" stroke="black" stroke-width="0.25" stroke-linecap="round" stroke-linejoin="round"/>
<path d="M68.2441 344.624L60.4608 344.624" stroke="black" stroke-width="0.25" stroke-linecap="round" stroke-linejoin="round"/>
<path d="M60.4609 344.623C60.1807 344.651 59.8616 344.335 59.8928 344.055" stroke="black" stroke-width="0.25" stroke-linecap="round" stroke-linejoin="round"/>
<path d="M78.7054 344.055C78.7326 344.335 78.4174 344.654 78.1372 344.623" stroke="black" stroke-width="0.25" stroke-linecap="round" stroke-linejoin="round"/>
<path d="M78.1328 330.991C78.413 330.964 78.7321 331.279 78.701 331.559" stroke="black" stroke-width="0.25" stroke-linecap="round" stroke-linejoin="round"/>
<path d="M59.8928 331.563C59.8655 331.282 60.1807 330.963 60.4609 330.994" stroke="black" stroke-width="0.25" stroke-linecap="round" stroke-linejoin="round"/>
<path d="M90.0156 327.633L48.5848 327.633L48.5848 350.956" stroke="black" stroke-width="0.25" stroke-linecap="round" stroke-linejoin="round"/>
<path d="M90.0156 277.639L90.0156 234.43" stroke="black" stroke-width="0.25" stroke-linecap="round" stroke-linejoin="round"/>
<path d="M90.0156 234.43L90.0156 277.639" stroke="black" stroke-width="0.25" stroke-linecap="round" stroke-linejoin="round"/>
<path d="M90.0156 234.43L90.0156 277.639" stroke="black" stroke-width="0.25" stroke-linecap="round" stroke-linejoin="round"/>
<path d="M12.3299 234.43L90.0156 234.43" stroke="black" stroke-width="0.25" stroke-linecap="round" stroke-linejoin="round"/>
<path d="M90.0156 250.807L90.0156 259.26" stroke="black" stroke-width="0.25" stroke-linecap="round" stroke-linejoin="round"/>
<path d="M12.3281 234.43L12.3281 277.639" stroke="black" stroke-width="0.25" stroke-linecap="round" stroke-linejoin="round"/>
<path d="M160.936 327.675L97.7814 327.675" stroke="black" stroke-width="0.25" stroke-linecap="round" stroke-linejoin="round"/>
<path d="M294.58 234.43L294.58 277.639" stroke="black" stroke-width="0.25" stroke-linecap="round" stroke-linejoin="round"/>
<path d="M294.58 234.43L372.266 234.43" stroke="black" stroke-width="0.25" stroke-linecap="round" stroke-linejoin="round"/>
<path d="M372.266 234.43L372.266 277.639" stroke="black" stroke-width="0.25" stroke-linecap="round" stroke-linejoin="round"/>
<path d="M372.266 277.639L372.266 234.43" stroke="black" stroke-width="0.25" stroke-linecap="round" stroke-linejoin="round"/>
<path d="M339.249 58.3437L372.266 58.3438" stroke="black" stroke-width="0.25" stroke-linecap="round" stroke-linejoin="round"/>
<path d="M12.3281 327.653L12.3281 281.042" stroke="black" stroke-width="0.25" stroke-linecap="round" stroke-linejoin="round"/>
<path d="M372.266 327.653L372.266 281.042" stroke="black" stroke-width="0.25" stroke-linecap="round" stroke-linejoin="round"/>
<path d="M372.266 163.217L372.266 116.606" stroke="black" stroke-width="0.25" stroke-linecap="round" stroke-linejoin="round"/>
<path d="M317.242 11.7334L238.91 11.7334" stroke="black" stroke-width="0.25" stroke-linecap="round" stroke-linejoin="round"/>
<path d="M12.3281 132.146L12.3281 54.46" stroke="black" stroke-width="0.25" stroke-linecap="round" stroke-linejoin="round"/>
<path d="M372.266 445.473L372.266 398.863" stroke="black" stroke-width="0.25" stroke-linecap="round" stroke-linejoin="round"/>
<path d="M12.3281 476.545L12.3281 398.863" stroke="black" stroke-width="0.25" stroke-linecap="round" stroke-linejoin="round"/>
<path d="M316.592 573.652L238.91 573.652" stroke="black" stroke-width="0.25" stroke-linecap="round" stroke-linejoin="round"/>
<path d="M369.811 143.907L369.811 137.933C369.869 137.933 369.215 137.933 368.639 137.933C368.063 137.933 367.41 137.933 367.468 137.933L367.468 138.42C367.394 138.42 367.316 138.42 367.231 138.42C367.044 138.42 366.841 138.42 366.624 138.42C366.409 138.42 366.18 138.42 365.942 138.42C365.705 138.42 365.46 138.42 365.203 138.42C365.028 138.42 364.849 138.42 364.666 138.42C364.487 138.42 364.304 138.42 364.121 138.42C363.938 138.42 363.755 138.42 363.572 138.42C363.39 138.42 363.211 138.42 363.028 138.42C362.849 138.42 362.67 138.42 362.494 138.42C362.319 138.42 362.148 138.42 361.977 138.42C361.95 138.42 361.922 138.42 361.891 138.42C361.876 138.42 361.864 138.42 361.848 138.42C361.724 138.42 361.603 138.42 361.483 138.42C361.405 138.42 361.323 138.42 361.245 138.42C361.187 138.42 361.128 138.42 361.074 138.42C361.066 138.42 361.055 138.42 361.047 138.42C361.039 138.42 361.027 138.42 361.008 138.42C360.977 138.42 360.957 138.42 360.938 138.42C360.911 138.42 360.883 138.42 360.856 138.42C360.802 138.42 360.743 138.42 360.689 138.42C360.576 138.42 360.463 138.42 360.354 138.42C360.241 138.42 360.132 138.42 360.023 138.42C359.914 138.42 359.809 138.42 359.704 138.42C359.599 138.42 359.502 138.42 359.404 138.42C359.307 138.42 359.214 138.42 359.124 138.42C359.035 138.42 358.949 138.42 358.864 138.42C358.782 138.42 358.7 138.42 358.626 138.42C358.474 138.42 358.338 138.42 358.221 138.42C358.163 138.42 358.105 138.42 358.054 138.42C358.003 138.42 357.953 138.42 357.91 138.42C357.867 138.42 357.824 138.42 357.789 138.42C357.754 138.42 357.723 138.42 357.696 138.42C357.669 138.42 357.645 138.42 357.63 138.42C357.614 138.42 357.599 138.42 357.591 138.42C357.474 138.42 357.377 138.439 357.287 138.474C357.198 138.509 357.116 138.567 357.05 138.634C356.98 138.704 356.925 138.785 356.89 138.871C356.863 138.937 356.844 139.007 356.836 139.081L356.836 140.003C356.844 140.074 356.859 140.147 356.89 140.214C356.925 140.303 356.98 140.385 357.05 140.451C357.12 140.521 357.202 140.576 357.287 140.611C357.373 140.646 357.474 140.665 357.591 140.665C357.599 140.665 357.61 140.665 357.63 140.665C357.645 140.665 357.669 140.665 357.696 140.665C357.723 140.665 357.754 140.665 357.789 140.665C357.824 140.665 357.863 140.665 357.91 140.665C357.953 140.665 358.003 140.665 358.054 140.665C358.105 140.665 358.163 140.665 358.221 140.665C358.342 140.665 358.478 140.665 358.626 140.665C358.7 140.665 358.782 140.665 358.864 140.665C358.945 140.665 359.035 140.665 359.124 140.665C359.214 140.665 359.307 140.665 359.404 140.665C359.502 140.665 359.603 140.665 359.704 140.665C359.805 140.665 359.914 140.665 360.023 140.665C360.128 140.665 360.241 140.665 360.354 140.665C360.463 140.665 360.576 140.665 360.689 140.665C360.743 140.665 360.798 140.665 360.856 140.665C360.883 140.665 360.911 140.665 360.938 140.665C360.957 140.665 360.977 140.665 361.008 140.665C361.027 140.665 361.035 140.665 361.047 140.665C361.058 140.665 361.066 140.665 361.074 140.665C361.132 140.665 361.191 140.665 361.245 140.665C361.323 140.665 361.405 140.665 361.483 140.665C361.603 140.665 361.728 140.665 361.848 140.665C361.864 140.665 361.88 140.665 361.891 140.665C361.918 140.665 361.946 140.665 361.977 140.665C362.148 140.665 362.319 140.665 362.494 140.665C362.673 140.665 362.852 140.665 363.028 140.665C363.211 140.665 363.393 140.665 363.572 140.665C363.755 140.665 363.942 140.665 364.121 140.665C364.304 140.665 364.487 140.665 364.666 140.665C364.849 140.665 365.028 140.665 365.203 140.665C365.46 140.665 365.705 140.665 365.942 140.665C366.184 140.665 366.409 140.665 366.624 140.665C366.841 140.665 367.044 140.665 367.231 140.665C367.312 140.665 367.39 140.665 367.468 140.665L367.468 143.915L369.811 143.915L369.811 143.907Z" stroke="black" stroke-width="0.25" stroke-linecap="round" stroke-linejoin="round"/>
<path d="M263.688 315.039L263.692 315.051L263.727 315.183L263.75 315.382L263.758 315.635L263.75 316.666L263.727 316.868L263.692 316.997L263.688 317.012L263.641 317.067L263.633 317.075L263.618 317.079L258.741 317.075L258.683 317.075L258.594 317.09L258.512 317.129L258.442 317.188L258.391 317.246L258.352 317.273L258.294 317.332L258.29 317.332L258.173 317.406L258.146 317.429L258.13 317.433L258.068 317.472L257.823 317.557L257.628 317.581L257.589 317.585L257.566 317.588L257.554 317.588L257.531 317.585L257.492 317.581L257.298 317.557L257.052 317.472L256.99 317.433L256.975 317.429L256.947 317.406L256.827 317.332L256.776 317.277L256.729 317.246L256.694 317.199L256.644 317.145L256.566 317.028L256.547 316.997L256.539 316.981L256.504 316.923L256.414 316.674L256.41 316.643L256.399 316.584L256.391 316.526L256.391 316.518L256.391 315.53L256.391 315.526L256.399 315.475L256.41 315.409L256.414 315.374L256.504 315.125L256.539 315.067L256.547 315.051L256.57 315.02L256.644 314.903L256.694 314.853L256.729 314.806L256.776 314.771L256.827 314.716L256.943 314.646L256.975 314.623L256.99 314.615L257.052 314.576L257.298 314.491L257.558 314.463L257.823 314.491L258.068 314.576L258.13 314.615L258.146 314.623L258.177 314.646L258.29 314.716L258.368 314.79L258.387 314.806L258.391 314.806L258.442 314.86L258.512 314.919L258.594 314.958L258.683 314.973L258.741 314.973L263.443 314.969L263.618 314.969L263.633 314.973L263.641 314.981L263.688 315.043L263.688 315.039Z" stroke="black" stroke-width="0.25" stroke-linecap="round" stroke-linejoin="round"/>
<path d="M68.3104 341.744L68.322 341.74L68.4543 341.705L68.6528 341.682L69.2949 341.67L69.9409 341.682L70.1394 341.705L70.2717 341.74L70.2834 341.744L70.3379 341.787L70.3496 341.799L70.3496 341.811L70.3496 346.687L70.3496 346.749L70.3651 346.839L70.4002 346.92L70.4624 346.99L70.5169 347.041L70.5481 347.08L70.6064 347.138L70.6026 347.142L70.6765 347.259L70.6999 347.286L70.7076 347.302L70.7427 347.364L70.8322 347.609L70.8516 347.8L70.8555 347.843L70.8594 347.866L70.8594 347.878L70.8555 347.901L70.8516 347.94L70.8322 348.134L70.7427 348.38L70.7037 348.442L70.6999 348.457L70.6765 348.485L70.6026 348.601L70.552 348.656L70.5169 348.703L70.4702 348.738L70.4196 348.788L70.299 348.866L70.2717 348.886L70.2562 348.893L70.1939 348.928L69.9487 349.014L69.9137 349.018L69.8592 349.033L69.8008 349.041L69.7892 349.041L69.1938 349.041L69.186 349.041L68.7462 349.033L68.6839 349.022L68.645 349.014L68.3999 348.928L68.3376 348.893L68.322 348.886L68.2948 348.862L68.1741 348.788L68.1236 348.738L68.0768 348.703L68.0418 348.656L67.9912 348.601L67.9173 348.489L67.8939 348.457L67.8861 348.442L67.8511 348.38L67.7616 348.134L67.7344 347.87L67.7655 347.609L67.8511 347.364L67.8861 347.302L67.8939 347.286L67.9173 347.255L67.9912 347.138L68.0652 347.064L68.0807 347.045L68.0768 347.041L68.1313 346.99L68.1936 346.92L68.2286 346.839L68.2442 346.749L68.2442 346.691L68.2442 341.99L68.2442 341.811L68.2481 341.799L68.2559 341.787L68.3142 341.74L68.3104 341.744Z" stroke="black" stroke-width="0.25" stroke-linecap="round" stroke-linejoin="round"/>
<path d="M18.1161 258.275C18.9139 258.275 19.6339 257.925 20.1554 257.33C20.673 256.734 20.9921 255.886 20.9999 255.045C21.0076 254.205 20.7119 253.364 20.1554 252.761C19.5989 252.158 18.7894 251.784 18.1162 251.815C17.3651 251.784 16.4505 252.158 15.8317 252.761C15.4659 253.115 15.2129 253.555 15.0572 254.022L12.3292 254.022L12.3292 256.065L15.0611 256.065C15.2168 256.536 15.4737 256.976 15.8317 257.33C16.4388 257.925 17.3184 258.275 18.1161 258.275Z" stroke="black" stroke-width="0.25" stroke-linecap="round" stroke-linejoin="round"/>
<path d="M368.755 257.33C369.113 256.98 369.37 256.54 369.526 256.065L372.258 256.065L372.258 254.022L369.53 254.022C369.374 253.551 369.121 253.115 368.755 252.761C368.137 252.158 367.222 251.784 366.471 251.815C365.802 251.784 364.988 252.158 364.432 252.761C363.875 253.364 363.579 254.205 363.587 255.045C363.595 255.886 363.914 256.734 364.432 257.33C364.949 257.925 365.669 258.275 366.471 258.275C367.273 258.275 368.148 257.925 368.755 257.33Z" stroke="black" stroke-width="0.25" stroke-linecap="round" stroke-linejoin="round"/>
<path d="M218.32 292.187L247.967 292.187" stroke="black" stroke-width="0.25" stroke-linecap="round" stroke-linejoin="round"/>
<path d="M158.602 277.999L123.643 277.999" stroke="black" stroke-width="0.25" stroke-linecap="round" stroke-linejoin="round"/>
<path d="M121.316 278.478L97.7795 278.478" stroke="black" stroke-width="0.25" stroke-linecap="round" stroke-linejoin="round"/>
<path d="M121.316 280.516L97.7795 280.516" stroke="black" stroke-width="0.25" stroke-linecap="round" stroke-linejoin="round"/>
<path d="M97.7795 280.516L121.316 280.516" stroke="black" stroke-width="0.25" stroke-linecap="round" stroke-linejoin="round"/>
<path d="M121.316 280.516L121.316 233.925" stroke="black" stroke-width="0.25" stroke-linecap="round" stroke-linejoin="round"/>
<path d="M123.643 241.008L158.602 241.008L158.602 279.255L157.438 279.255L157.438 280.516L124.81 280.516L124.81 279.255L123.643 279.255L123.643 241.008Z" stroke="black" stroke-width="0.25" stroke-linecap="round" stroke-linejoin="round"/>
<path d="M90.0098 273.398L12.3279 273.398" stroke="black" stroke-width="0.25" stroke-linecap="round" stroke-linejoin="round"/>
<path d="M90.0098 277.134L12.3279 277.134" stroke="black" stroke-width="0.25" stroke-linecap="round" stroke-linejoin="round"/>
<path d="M218.32 350.45L218.32 233.925" stroke="black" stroke-width="0.25" stroke-linecap="round" stroke-linejoin="round"/>
<path d="M215.6 350.45L215.6 233.925" stroke="black" stroke-width="0.25" stroke-linecap="round" stroke-linejoin="round"/>
<path d="M257.033 369.212L257.033 366.492L215.602 366.492L215.602 369.212L257.033 369.212Z" stroke="black" stroke-width="0.25" stroke-linecap="round" stroke-linejoin="round"/>
<path d="M168.992 369.212L168.992 366.492L127.561 366.492L127.561 369.212L168.992 369.212Z" stroke="black" stroke-width="0.25" stroke-linecap="round" stroke-linejoin="round"/>
<path d="M95.1133 303.217L95.1133 257.902L92.393 257.902L92.393 303.217L95.1133 303.217Z" stroke="black" stroke-width="0.25" stroke-linecap="round" stroke-linejoin="round"/>
<path d="M372.258 277.134L294.576 277.134" stroke="black" stroke-width="0.25" stroke-linecap="round" stroke-linejoin="round"/>
<path d="M372.258 273.398L294.576 273.398" stroke="black" stroke-width="0.25" stroke-linecap="round" stroke-linejoin="round"/>
<path d="M345.072 354.789L345.072 352.068L303.641 352.068L303.641 354.789L345.072 354.789Z" stroke="black" stroke-width="0.25" stroke-linecap="round" stroke-linejoin="round"/>
<path d="M1.00088 437.705L4.36719 437.705" stroke="black" stroke-width="0.25" stroke-linecap="round" stroke-linejoin="round"/>
<path d="M1.00088 93.3037L4.36719 93.3037" stroke="black" stroke-width="0.25" stroke-linecap="round" stroke-linejoin="round"/>
<path d="M278.068 3.64659L278.068 0.280273" stroke="black" stroke-width="0.25" stroke-linecap="round" stroke-linejoin="round"/>
<path d="M317.234 3.646L238.903 3.64599" stroke="black" stroke-width="0.25" stroke-linecap="round" stroke-linejoin="round"/>
<path d="M379.531 162.716L379.527 116.105" stroke="black" stroke-width="0.25" stroke-linecap="round" stroke-linejoin="round"/>
<path d="M379.529 327.142L379.529 280.536" stroke="black" stroke-width="0.25" stroke-linecap="round" stroke-linejoin="round"/>
<path d="M379.529 445.473L379.529 398.863" stroke="black" stroke-width="0.25" stroke-linecap="round" stroke-linejoin="round"/>
<path d="M4.36719 327.142L4.36719 280.536" stroke="black" stroke-width="0.25" stroke-linecap="round" stroke-linejoin="round"/>
<path d="M4.36718 476.545L4.36719 398.863" stroke="black" stroke-width="0.25" stroke-linecap="round" stroke-linejoin="round"/>
<path d="M4.36718 132.142L4.36719 54.46" stroke="black" stroke-width="0.25" stroke-linecap="round" stroke-linejoin="round"/>
<path d="M382.898 327.143L382.898 280.536" stroke="black" stroke-width="0.25" stroke-linecap="round" stroke-linejoin="round"/>
<path d="M382.898 445.473L382.898 398.863" stroke="black" stroke-width="0.25" stroke-linecap="round" stroke-linejoin="round"/>
<path d="M0.999997 476.545L1 398.863" stroke="black" stroke-width="0.25" stroke-linecap="round" stroke-linejoin="round"/>
<path d="M0.999998 327.142L1 280.536" stroke="black" stroke-width="0.25" stroke-linecap="round" stroke-linejoin="round"/>
<path d="M0.999997 132.142L1 54.46" stroke="black" stroke-width="0.25" stroke-linecap="round" stroke-linejoin="round"/>
<path d="M317.234 0.280273L238.903 0.28027" stroke="black" stroke-width="0.25" stroke-linecap="round" stroke-linejoin="round"/>
<path d="M382.898 162.716L382.898 116.105" stroke="black" stroke-width="0.25" stroke-linecap="round" stroke-linejoin="round"/>
<path d="M277.75 585.075L277.75 581.709" stroke="black" stroke-width="0.25" stroke-linecap="round" stroke-linejoin="round"/>
<path d="M238.91 581.709L316.592 581.709" stroke="black" stroke-width="0.25" stroke-linecap="round" stroke-linejoin="round"/>
<path d="M238.91 585.075L316.592 585.075" stroke="black" stroke-width="0.25" stroke-linecap="round" stroke-linejoin="round"/>
<path d="M170.4 11.1614C170.217 10.4414 170.058 9.72535 169.914 9.00928" stroke="black" stroke-width="0.25" stroke-linejoin="round"/>
<path d="M211.303 46.4904C210.579 46.3931 209.855 46.2803 209.127 46.1519" stroke="black" stroke-width="0.25" stroke-linejoin="round"/>
<path d="M206.963 45.7197C206.251 45.5601 205.535 45.385 204.822 45.1943" stroke="black" stroke-width="0.25" stroke-linejoin="round"/>
<path d="M202.705 44.5755C202.008 44.3537 201.312 44.1201 200.615 43.8672" stroke="black" stroke-width="0.25" stroke-linejoin="round"/>
<path d="M198.561 43.0684C197.883 42.7882 197.214 42.4925 196.545 42.1812" stroke="black" stroke-width="0.25" stroke-linejoin="round"/>
<path d="M194.564 41.2045C193.911 40.862 193.261 40.5079 192.619 40.1382" stroke="black" stroke-width="0.25" stroke-linejoin="round"/>
<path d="M190.734 38.99C190.116 38.5931 189.505 38.1844 188.901 37.7603" stroke="black" stroke-width="0.25" stroke-linejoin="round"/>
<path d="M187.131 36.4499C186.551 35.9984 185.979 35.5353 185.419 35.0605" stroke="black" stroke-width="0.25" stroke-linejoin="round"/>
<path d="M183.77 33.5934C183.232 33.0913 182.703 32.5776 182.19 32.0522" stroke="black" stroke-width="0.25" stroke-linejoin="round"/>
<path d="M180.687 30.4405C180.197 29.8917 179.718 29.3314 179.259 28.7593" stroke="black" stroke-width="0.25" stroke-linejoin="round"/>
<path d="M177.908 27.0123C177.472 26.4168 177.048 25.8136 176.643 25.2065" stroke="black" stroke-width="0.25" stroke-linejoin="round"/>
<path d="M175.465 23.3414C175.087 22.7071 174.722 22.0689 174.379 21.4229" stroke="black" stroke-width="0.25" stroke-linejoin="round"/>
<path d="M173.383 19.45C173.068 18.7806 172.768 18.1112 172.488 17.4341" stroke="black" stroke-width="0.25" stroke-linejoin="round"/>
<path d="M171.689 15.3794C171.44 14.6828 171.207 13.9861 170.993 13.2856" stroke="black" stroke-width="0.25" stroke-linejoin="round"/>
<path d="M169.533 6.838C169.424 6.10636 169.335 5.37473 169.261 4.65088" stroke="black" stroke-width="0.25" stroke-linecap="round" stroke-linejoin="round"/>
<path d="M215.658 46.8909L215.658 0.280273L212.697 0.280273L212.697 46.8909L215.658 46.8909Z" stroke="black" stroke-width="0.25" stroke-linecap="round" stroke-linejoin="round"/>
<path d="M169.047 2.44794C169.012 1.7202 168.992 0.996342 168.992 0.280273" stroke="black" stroke-width="0.25" stroke-linecap="round" stroke-linejoin="round"/>
<path d="M86.7586 386.44C86.7197 384.748 86.638 383.059 86.6575 381.366C86.673 379.79 86.8325 378.213 86.8598 376.637C86.8715 375.91 86.6458 375.174 86.6575 374.446C86.6964 372.294 86.7975 370.142 86.8715 367.986C86.887 367.562 86.8715 367.138 86.8715 366.492C84.6376 366.608 82.5245 366.749 80.4113 366.819C79.7614 366.842 79.1076 366.624 78.4499 366.612C76.722 366.581 74.9902 366.573 73.2584 366.612C71.4877 366.651 69.7208 366.799 67.954 366.826C65.187 366.865 62.4201 366.838 59.6492 366.838C57.6878 366.838 55.7264 366.858 53.7689 366.834C48.5385 366.768 43.3119 366.671 38.0815 366.612C35.5441 366.585 33.0067 366.608 30.3954 366.608C30.2865 367.527 30.1424 368.22 30.1347 368.916C30.1074 371.991 30.1464 375.069 30.1113 378.143C30.0958 379.451 29.909 380.759 29.9012 382.066C29.8739 386.604 29.8895 391.138 29.8895 395.675L29.8895 396.827L31.2749 396.827C31.8898 396.827 32.5047 396.843 33.1196 396.827C35.2328 396.757 37.3499 396.672 39.4631 396.602C40.1947 396.578 40.9224 396.602 41.6541 396.602L50.8812 396.602C53.6871 396.602 56.4969 396.559 59.2989 396.613C62.9921 396.683 66.6814 396.855 70.3707 396.936C71.7912 396.967 73.2156 396.843 74.6361 396.839C78.4421 396.823 82.2482 396.835 86.0542 396.835L86.9727 396.835C86.8481 395.827 86.6886 394.948 86.6497 394.068C86.6263 393.535 86.8481 392.994 86.8481 392.453C86.8481 391.223 86.7625 389.994 86.7547 388.764C86.7509 388.032 86.708 387.188 86.747 386.456" stroke="black" stroke-opacity="0.5" stroke-width="0.25" stroke-linecap="round" stroke-linejoin="round"/>
<path d="M40.3936 396.581C40.8645 400.321 42.355 403.831 44.8963 406.618C45.6824 407.482 46.5074 408.311 47.3169 409.159C48.2626 410.147 49.5896 410.26 50.7805 410.389C56.2872 410.976 61.1674 409.416 65.2965 405.688C66.1137 404.948 66.7014 404.034 66.3511 402.816C66.3083 402.675 66.2811 402.465 66.355 402.364C67.5342 400.741 67.2112 398.865 67.2695 397.052" stroke="black" stroke-opacity="0.5" stroke-width="0.25" stroke-linecap="round" stroke-linejoin="round"/>
<path d="M63.4615 388.977L66.2285 388.977L66.2285 384.537L49.1596 384.537L49.1596 389.094C53.888 389.094 58.5035 389.094 63.1152 389.09C63.193 389.09 63.2709 389.016 63.3448 388.981" stroke="black" stroke-opacity="0.5" stroke-width="0.25" stroke-linecap="round" stroke-linejoin="round"/>
<path d="M54.3836 373.328L44.8568 373.328L44.8568 374.686L68.6855 374.686L68.6855 373.293C63.9572 373.293 59.3416 373.293 54.73 373.293C54.6522 373.293 54.5743 373.316 54.5004 373.328" stroke="black" stroke-opacity="0.5" stroke-width="0.25" stroke-linecap="round" stroke-linejoin="round"/>
<path d="M46.1961 408C46.7682 406.572 48.0953 406.549 49.1616 406.514C50.0061 406.486 50.8739 406.634 51.6951 406.483C53.8238 406.093 55.9798 405.739 58.0268 405.074C59.6069 404.556 61.0429 403.591 62.5412 402.813C62.9381 402.606 63.304 402.338 63.697 402.128C65.0397 401.408 65.1486 401.427 66.2344 402.47" stroke="black" stroke-opacity="0.5" stroke-width="0.25" stroke-linecap="round" stroke-linejoin="round"/>
<path d="M54.1772 373.251L54.1772 369.893L59.7695 369.893L59.7695 373.294" stroke="black" stroke-opacity="0.5" stroke-width="0.25" stroke-linecap="round" stroke-linejoin="round"/>
<path d="M54.1423 374.737C54.1617 375.006 54.1345 375.278 54.1656 375.66L59.7891 375.66C59.8202 375.278 59.7852 375.006 59.8047 374.737" stroke="black" stroke-opacity="0.5" stroke-width="0.25" stroke-linecap="round" stroke-linejoin="round"/>
<path d="M39.2904 528.797C39.0919 528.007 38.9635 527.19 38.6833 526.431C38.1969 525.112 38.1774 523.753 38.2358 522.395C38.3603 519.27 38.4381 516.137 38.7339 513.028C38.9635 510.599 39.5589 508.21 39.8703 505.789C40.2088 503.139 40.4151 500.508 39.699 497.835C39.2087 496.006 39.0297 494.056 38.9752 492.153C38.9051 489.666 38.9985 487.164 39.2048 484.685C39.3721 482.657 39.8313 480.653 40.1115 478.633C40.1972 478.014 40.1544 477.368 40.1193 476.738C40.0687 475.827 39.9403 474.921 39.8936 474.01C39.6874 470.157 41.6605 467.53 44.7582 465.6C47.0699 464.156 49.5683 462.977 52.2341 462.584C54.6314 462.23 57.126 462.51 59.5777 462.51C60.8814 462.51 62.193 462.42 63.4889 462.533C65.1973 462.681 66.8863 463.02 68.5909 463.21C69.809 463.347 71.0387 463.432 72.2646 463.448C74.7163 463.483 77.1681 463.475 79.616 463.448C80.2114 463.44 80.8107 463.199 81.3945 463.242C83.4143 463.39 85.4263 463.623 87.446 463.814C88.0376 463.868 88.633 463.911 89.2246 463.93C91.832 464.016 94.4433 464.051 97.0507 464.183C98.6346 464.265 100.211 464.569 101.795 464.615C102.896 464.647 105.313 464.405 106.418 464.288" stroke="black" stroke-opacity="0.5" stroke-width="0.25" stroke-linecap="round" stroke-linejoin="round"/>
<path d="M106.416 464.281C110.074 464.001 113.549 462.876 117.094 462.047C119.336 461.522 121.617 461.456 123.224 463.48C124.045 464.515 124.695 465.768 125.107 467.025C125.582 468.461 125.971 470.025 125.917 471.512C125.847 473.341 125.248 475.147 124.925 476.972C124.617 478.704 124.267 480.443 124.123 482.191C124.026 483.362 124.45 484.588 124.282 485.74C123.924 488.203 124.695 490.445 125.255 492.749C125.384 493.27 125.275 493.85 125.275 494.403C125.275 496.314 125.306 498.205 125.707 500.104C126.065 501.801 126.1 503.572 126.217 505.315C126.403 508.16 126.544 511.009 126.695 513.853C126.723 514.367 126.668 514.885 126.703 515.395C126.847 517.41 127.053 519.426 127.151 521.446C127.189 522.271 127.018 523.108 126.933 523.937C126.863 524.61 126.695 525.739 126.617 526.412" stroke="black" stroke-opacity="0.5" stroke-width="0.25" stroke-linecap="round" stroke-linejoin="round"/>
<path d="M88.1516 119.681C86.1824 119.303 84.2249 119.183 82.2168 119.525C81.0259 119.728 79.765 119.467 78.5469 119.58C74.5696 119.945 70.8181 120.864 67.7242 123.678C66.6851 124.619 65.9846 125.658 65.502 126.915C64.9844 128.258 64.4279 129.589 63.9726 130.951C63.3032 132.948 62.8868 134.991 62.8829 137.116C62.8829 138.104 62.6689 139.093 62.6689 140.081C62.6689 143.918 63.8364 147.386 66.2375 150.382C66.8407 151.133 67.7086 151.678 68.4714 152.297C70.604 154.025 73.0246 155.177 75.706 155.722C77.1109 156.006 78.5469 156.169 79.9752 156.321C81.2361 156.453 82.5203 156.66 83.7657 156.535C86.5054 156.259 89.2335 156.22 91.981 155.5C95.7092 154.523 98.6436 152.542 100.753 149.623C102.329 147.444 103.181 144.697 103.356 141.863C103.426 140.75 103.932 139.641 103.886 138.544C103.792 136.127 103.878 133.691 103.232 131.301C102.193 127.441 99.6865 124.242 96.363 122.129C94.6312 121.027 92.8138 120.377 90.8758 119.934C90.0235 119.739 89.1401 119.685 88.2683 119.564" stroke="black" stroke-opacity="0.5" stroke-width="0.25" stroke-linecap="round" stroke-linejoin="round"/>
<path d="M44.5095 547.298C44.4705 547.734 44.4121 548.166 44.3927 548.602C44.3071 550.894 44.167 553.186 44.1709 555.479C44.1709 557.969 44.3499 560.46 44.3772 562.951C44.4005 564.768 44.2838 566.585 44.2799 568.407C44.2799 569.438 44.3733 570.469 44.4316 571.61L56.4881 571.61C58.3872 571.61 60.2824 571.637 62.1816 571.606C65.9371 571.543 69.6925 571.427 73.448 571.388C74.7906 571.376 76.1955 571.812 77.4642 571.543C79.2583 571.162 81.0251 571.123 82.8153 571.146C85.8975 571.189 88.9835 571.314 92.0658 571.36C92.8947 571.372 93.7275 571.143 94.5564 571.15C101.079 571.209 107.601 571.349 114.124 571.349C116.653 571.349 119.187 571.084 121.709 570.862C121.973 570.839 122.351 570.286 122.39 569.948C122.487 569.088 122.429 568.212 122.421 567.344C122.382 562.203 122.351 557.066 122.3 551.925C122.281 550.069 122.226 548.209 122.183 546.353" stroke="black" stroke-opacity="0.5" stroke-width="0.25" stroke-linecap="round" stroke-linejoin="round"/>
<path d="M336.525 543.369C335.459 544.711 334.517 546.066 333.521 547.463C332.21 549.292 330.517 550.658 328.512 551.572C326.785 552.362 324.924 552.576 323.072 551.837C322.511 551.611 321.858 551.315 321.173 551.012" stroke="black" stroke-opacity="0.5" stroke-width="0.25" stroke-linecap="round" stroke-linejoin="round"/>
<path d="M86.9683 549.314C85.5206 551.155 85.3883 553.186 86.0071 555.366C86.2717 556.296 86.5908 557.265 86.5675 558.206C86.5363 559.553 86.2484 560.9 86.011 562.238C85.509 565.079 87.1474 567.146 89.8132 567.336C90.5642 567.391 91.3153 567.418 92.0664 567.457" stroke="black" stroke-opacity="0.5" stroke-width="0.25" stroke-linecap="round" stroke-linejoin="round"/>
<path d="M92.067 567.462C94.1218 567.384 99.8542 567.31 101.909 567.224C103.61 567.154 105.322 566.893 107.003 567.034C109.035 567.201 111.035 567.726 113.059 568.042C113.677 568.139 114.37 568.213 114.946 568.03C117.036 567.364 117.884 565.769 117.916 563.671C117.931 562.62 117.857 561.612 117.487 560.573C116.896 558.916 117.456 557.254 117.896 555.6C118.503 553.315 118.359 551.156 116.269 549.544C116.055 549.377 115.985 549.023 115.974 548.996C112.942 549.105 109.976 549.214 107.011 549.323C104.719 549.404 102.419 549.614 100.134 549.521C97.7994 549.424 95.4605 549.373 93.1216 548.929C91.3821 548.599 89.4985 548.996 87.6811 549.089C86.6537 549.144 85.6263 549.26 84.5989 549.319C81.5166 549.486 78.4305 549.63 75.3483 549.797C72.6203 549.945 69.8922 550.12 67.1641 550.264C65.3078 550.362 63.4476 550.529 61.5913 550.482C57.8747 550.397 54.1542 550.241 50.4455 550.007C48.414 549.883 46.7445 548.766 45.11 547.653C43.8413 546.789 42.6115 545.859 41.3039 545.061C40.0508 544.298 39.3659 543.154 38.9572 541.839C38.2684 539.605 37.6263 537.348 37.0659 535.079C36.8402 534.164 36.8791 533.188 36.8168 532.238C36.8129 532.164 39.3036 528.868 39.2958 528.798" stroke="black" stroke-opacity="0.5" stroke-width="0.25" stroke-linecap="round" stroke-linejoin="round"/>
<path d="M38.9375 568.437L38.9375 553.77C35.4973 553.412 31.8274 554.307 28.1458 553.875C24.4526 553.439 20.8101 554.342 17.1869 553.992C17.0312 554.217 16.8911 554.326 16.8872 554.435C16.7977 558.619 16.7082 562.798 16.6576 566.982C16.6499 567.496 16.8561 568.009 16.9767 568.601C18.2999 568.601 19.6075 568.581 20.9112 568.605C22.6119 568.64 24.3086 568.725 26.0132 568.753C26.523 568.761 27.0406 568.62 27.5543 568.605C30.0839 568.539 32.6135 568.473 35.1431 568.445C36.4079 568.43 37.6727 568.492 38.9375 568.519" stroke="black" stroke-opacity="0.5" stroke-width="0.25" stroke-linecap="round" stroke-linejoin="round"/>
<path d="M117.004 175.281C116.949 177.317 117.109 184.793 117.163 186.805C117.253 190.159 117.047 193.525 116.977 196.884C116.953 197.989 116.977 199.098 116.977 200.204" stroke="black" stroke-opacity="0.5" stroke-width="0.25" stroke-linecap="round" stroke-linejoin="round"/>
<path d="M148.496 177.091C148.481 176.141 148.34 173.569 148.017 172.682C147.251 170.584 145.605 169.728 143.421 169.697C140.059 169.65 136.7 169.549 133.342 169.467C130.022 169.389 126.695 169.171 123.383 169.28C121.414 169.347 119.25 169.327 117.915 171.355C117.114 172.569 117.067 173.947 117.012 175.277" stroke="black" stroke-opacity="0.5" stroke-width="0.25" stroke-linecap="round" stroke-linejoin="round"/>
<path d="M117.908 171.358C116.503 170.175 115.394 169.525 111.907 169.518C110.148 169.288 108.315 169.451 106.537 169.37C102.98 169.21 99.4149 168.836 95.8657 168.961C92.7641 169.07 89.604 169.233 86.6152 170.319C86.2027 170.471 86.0548 170.545 85.4983 170.775C83.4902 169.486 80.7349 169.518 78.3143 169.409C73.617 169.198 68.9081 169.21 64.203 169.14C63.9267 169.136 63.6504 169.214 63.3741 169.253" stroke="black" stroke-opacity="0.5" stroke-width="0.25" stroke-linecap="round" stroke-linejoin="round"/>
<path d="M63.3655 169.253C61.7854 169.37 59.3726 169.549 57.7926 169.596C54.7454 169.685 53.8426 171.32 53.43 174.001C53.2822 174.966 53.4067 175.974 53.4067 177.134C53.9398 177.231 54.5002 177.364 55.0684 177.43C56.4461 177.597 57.2556 178.379 57.419 180.045C57.5903 181.816 57.6759 183.602 57.6642 185.381C57.6292 190.362 57.5202 195.343 57.4462 200.325C57.4423 200.601 57.4851 200.881 57.5241 201.356C58.3997 201.286 59.2286 201.231 60.0536 201.15C60.6491 201.091 61.2406 200.932 61.8322 200.928C64.2839 200.901 66.7357 200.975 69.1836 200.904C72.5071 200.803 75.8266 200.609 79.1462 200.441C80.45 200.375 81.7536 200.255 83.0613 200.212C88.3967 200.041 93.7361 199.889 99.0716 199.729C99.1923 199.729 99.309 199.655 99.4258 199.616" stroke="black" stroke-opacity="0.5" stroke-width="0.25" stroke-linecap="round" stroke-linejoin="round"/>
<path d="M99.4207 199.612C101.791 199.771 109.461 200.289 111.882 200.055C113.937 199.861 116.065 200.441 118.159 200.674C118.354 200.698 118.556 200.674 118.751 200.678C120.689 200.756 122.623 200.849 124.561 200.904C125.114 200.919 125.666 200.834 126.223 200.795" stroke="black" stroke-opacity="0.5" stroke-width="0.25" stroke-linecap="round" stroke-linejoin="round"/>
<path d="M126.223 200.799C129.228 200.916 133.302 201.169 136.303 201.11C138.319 201.071 140.284 201.126 142.234 201.624C142.456 201.682 142.712 201.663 142.942 201.624C144.6 201.355 145.779 202.099 146.877 203.27C148.036 204.504 148.764 205.905 148.725 207.559C148.678 209.816 148.608 212.096 148.223 214.311C147.935 215.976 147.709 216.587 145.818 217.366C144.557 217.432 143.689 217.51 142.821 217.517C140.529 217.537 138.237 217.494 135.945 217.533C134.205 217.564 132.466 217.724 130.726 217.743C129.738 217.755 128.749 217.584 127.761 217.529C127.13 217.494 126.488 217.451 125.865 217.533C122.748 217.957 119.639 218.241 116.49 217.79C115.65 217.669 114.755 217.992 113.887 217.981C112.424 217.961 110.96 217.829 109.497 217.763C108.905 217.735 108.31 217.759 107.718 217.759C106.376 217.759 105.029 217.732 103.687 217.77C102.776 217.798 101.869 217.981 100.959 217.981C100.091 217.981 99.219 217.782 98.3512 217.77C95.4246 217.743 92.502 217.739 89.5755 217.77C88.4274 217.782 87.2794 218.02 86.1352 217.977C83.5239 217.883 80.9165 217.661 78.3051 217.537C77.7953 217.514 77.2778 217.759 76.7641 217.747C74.9856 217.704 73.2071 217.556 71.4286 217.541C70.3233 217.529 69.2142 217.751 68.109 217.743C66.6457 217.735 65.1824 217.564 63.7191 217.533C61.8628 217.494 60.0026 217.525 58.1463 217.521C56.0214 217.521 55.0018 216.689 54.3363 214.68C53.3984 211.839 53.5346 209.014 54.095 206.134C54.4998 204.041 55.9397 202.78 57.4302 201.511C57.4924 201.457 57.5119 201.355 57.5508 201.277" stroke="black" stroke-opacity="0.5" stroke-width="0.25" stroke-linecap="round" stroke-linejoin="round"/>
<path d="M320.344 547.688C319.048 548.206 317.756 548.576 316.312 548.556C314.892 548.537 313.467 548.969 312.043 548.961C309.669 548.953 307.299 548.755 304.929 548.634C304.415 548.607 303.901 548.568 303.388 548.517C301.847 548.365 300.298 548.256 298.764 548.031C296.426 547.684 294.063 547.396 291.775 546.82C289.257 546.186 286.724 546.042 284.178 546.174C281.96 546.287 279.754 546.649 277.535 546.848C276.395 546.949 275.243 546.906 274.099 546.984C271.41 547.163 268.701 547.237 266.039 547.61C263.588 547.957 261.147 548.062 258.68 548.062C256.715 548.062 255.131 547.19 253.578 546.155C252.967 545.75 252.987 545.128 253.131 544.614C253.874 541.991 254.01 539.239 254.956 536.644C255.407 535.406 255.329 533.974 255.481 532.631C255.843 529.421 255.411 526.226 255.255 523.027C255.193 521.766 255.244 520.497 255.244 519.232C255.244 515.162 255.158 511.087 255.275 507.016C255.353 504.323 255.754 501.642 255.948 498.949C256.154 496.069 256.746 493.224 256.248 490.282C255.948 488.515 256.252 486.651 256.178 484.838C256.08 482.425 256.007 479.996 255.68 477.607C255.396 475.525 254.738 473.497 254.306 471.431C253.944 469.703 253.52 467.967 253.38 466.212C253.162 463.449 255.026 461.153 258.096 460.305C259.805 459.834 261.556 459.904 263.311 460.266C265.195 460.655 267.109 460.888 268.997 461.242C269.88 461.41 270.744 461.69 271.608 461.943C274.971 462.935 278.376 462.943 281.808 462.418C282.003 462.387 282.205 462.422 282.4 462.414C285.365 462.258 288.339 462.188 291.292 461.916C294.386 461.632 297.453 461.005 300.547 460.795C303.341 460.604 306.155 460.585 308.968 460.83C310.572 460.97 312.21 460.748 313.825 460.62C314.899 460.534 315.962 460.316 317.028 460.161" stroke="black" stroke-opacity="0.5" stroke-width="0.25" stroke-linecap="round" stroke-linejoin="round"/>
<path d="M24.5858 189.296C23.8619 190.148 23.8075 191.028 24.3367 192.028C25.7533 194.709 27.4189 194.939 29.5593 194.709C30.4817 194.612 31.2483 193.95 31.5791 192.969C31.6686 192.697 31.7387 192.417 31.8398 192.067C31.1238 190.572 29.9874 189.42 28.5008 188.58C27.022 187.743 25.7572 188.12 24.5157 189.354" stroke="black" stroke-opacity="0.5" stroke-width="0.25" stroke-linecap="round" stroke-linejoin="round"/>
<path d="M306.07 77.1092C303.77 80.0397 300.198 81.9466 296.933 83.4682C295.629 84.0753 294.352 84.7447 293.08 85.4141C290.531 86.7528 288.083 85.7487 286.768 83.7562C284.561 80.4171 282.483 76.9808 281.105 73.202C280.642 71.9333 280.467 70.5479 280.272 69.1974C280.218 68.8161 280.447 68.279 280.728 67.9832C281.323 67.3567 282.981 66.2904 283.646 65.7261" stroke="black" stroke-opacity="0.5" stroke-width="0.25" stroke-linecap="round" stroke-linejoin="round"/>
<path d="M283.65 65.7269C287.756 63.0027 292.282 61.3837 297.123 60.5859C297.31 60.5548 297.477 60.4186 297.656 60.3291" stroke="black" stroke-opacity="0.5" stroke-width="0.25" stroke-linecap="round" stroke-linejoin="round"/>
<path d="M263.426 60.9478C268.29 62.0141 272.52 64.2285 275.424 68.3536C277.786 71.7121 279.059 75.5493 279.035 79.7134C279.02 82.4298 278.806 85.1423 278.786 87.8587C278.771 90.1198 278.907 92.3847 278.977 94.6458C279.023 96.1791 279.082 97.7163 279.094 99.2497C279.105 100.655 279.066 102.056 279.055 103.46C279.043 104.826 279.035 106.189 279.031 107.555C279.02 110.687 279.023 113.82 279 116.953C278.981 119.156 278.922 121.358 278.883 123.561" stroke="black" stroke-opacity="0.5" stroke-width="0.25" stroke-linecap="round" stroke-linejoin="round"/>
<path d="M278.879 123.566C278.778 123.947 278.529 125.142 278.361 125.764C278.221 126.087 278.003 126.663 277.727 127.208C275.738 131.123 272.991 134.221 268.901 136.132C266.678 137.171 264.495 138.121 262.055 138.463C259.234 138.86 256.412 138.903 253.711 137.977C252.166 137.447 250.746 136.537 249.29 135.758C246.994 134.536 245.017 132.878 243.605 130.722C241.457 127.453 240.25 123.803 240.153 119.865C240.075 116.736 240.176 113.599 240.157 110.466C240.141 108.085 240.036 105.707 240.028 103.329C240.024 100.924 240.122 98.5188 240.122 96.1177C240.122 92.7358 240.024 89.3578 240.067 85.9759C240.098 83.5475 240.39 81.1191 240.394 78.6868C240.402 74.6551 241.951 71.1059 243.916 67.7746C245.348 65.3423 247.613 63.6183 250.341 62.6648C252.295 61.9799 254.272 61.3689 256.237 60.719C257.918 60.1625 259.65 60.287 261.37 60.3532C262.028 60.3765 262.678 60.6489 263.332 60.8085" stroke="black" stroke-opacity="0.5" stroke-width="0.25" stroke-linecap="round" stroke-linejoin="round"/>
<path d="M137.381 331.17C136.264 331.345 135.388 332.24 135.022 333.159C134.271 335.031 134.24 336.988 134.637 338.961C134.715 339.351 134.789 339.755 134.75 340.144C134.598 341.717 135.057 343.137 135.703 344.538C136.182 345.581 136.964 346.114 138.085 346.068C141.288 345.931 144.495 345.826 147.69 345.566C148.768 345.476 150.025 345.394 150.748 344.059L147.764 344.059C146.534 341.841 146.58 339.129 144.697 337.144C142.533 338.771 142.588 341.366 141.467 343.631C140.751 344.028 139.786 344.071 138.801 343.818C137.47 343.48 136.614 342.402 136.692 340.74C136.828 337.809 137.143 334.887 137.369 331.96C137.408 331.45 137.373 330.933 137.373 330.221C138.813 329.975 140.28 329.594 141.763 329.501C143.771 329.376 145.798 329.388 147.806 329.501C148.962 329.567 150.134 329.847 151.239 330.213C152.087 330.493 152.453 331.369 152.535 332.198C152.823 335.077 153.068 337.965 153.243 340.853C153.294 341.682 153.056 342.526 152.959 343.316C152.122 343.554 151.422 343.865 150.748 344.056" stroke="black" stroke-opacity="0.5" stroke-width="0.25" stroke-linecap="round" stroke-linejoin="round"/>
<path d="M297.563 60.1894C297.255 59.5122 296.948 58.8312 296.695 58.2669C296.991 57.2006 297.73 57.0605 298.571 57.0488C302.135 58.7145 303.855 62.108 305.786 65.3109C306.338 66.2254 306.79 67.1983 307.335 68.1167C308.856 70.6852 309.553 73.5145 309.884 76.4294C310.035 77.7564 309.806 79.0913 308.335 79.8151C306.973 79.2314 306.42 78.1106 305.965 76.803C305.12 74.3551 304.295 71.88 303.174 69.5567C301.641 66.3772 299.94 63.2677 297.757 60.4657" stroke="black" stroke-opacity="0.5" stroke-width="0.25" stroke-linecap="round" stroke-linejoin="round"/>
<path d="M126.616 526.413C129.625 527.129 128.823 528.456 128.62 531.293C128.352 535.075 126.651 538.387 125.394 541.847C124.775 543.548 123.526 544.746 122.191 545.879" stroke="black" stroke-opacity="0.5" stroke-width="0.25" stroke-linecap="round" stroke-linejoin="round"/>
<path d="M55.0645 216.572C53.6401 217.047 52.2391 217.837 50.7914 217.926C48.1178 218.09 45.4131 217.934 42.7317 217.728C40.6575 217.568 39.4783 216.016 39.3927 213.965C39.3031 211.789 39.0541 209.618 38.9529 207.442C38.914 206.578 39.1669 205.703 39.1553 204.835C39.1125 201.632 38.8829 198.429 38.9646 195.23C39.0541 191.669 39.3888 188.112 39.6495 184.555C39.7663 182.932 39.9998 181.317 40.1049 179.691C40.1827 178.484 40.8987 177.768 41.9067 177.472C43.1715 177.099 44.5063 176.966 45.81 176.729C46.0474 176.686 46.2848 176.651 46.5222 176.608" stroke="black" stroke-opacity="0.5" stroke-width="0.25" stroke-linecap="round" stroke-linejoin="round"/>
<path d="M46.5258 176.604C48.6156 176.479 51.3164 176.795 53.4023 177.129" stroke="black" stroke-opacity="0.5" stroke-width="0.25" stroke-linecap="round" stroke-linejoin="round"/>
<path d="M99.3173 271.526C103.676 271.764 108.039 272.001 112.401 272.239C112.475 269.226 112.541 266.475 112.615 263.564C108.097 263.385 103.82 263.218 99.4769 263.046C99.3835 265.883 99.294 268.697 99.2006 271.511" stroke="black" stroke-opacity="0.5" stroke-width="0.25" stroke-linecap="round" stroke-linejoin="round"/>
<path d="M341.215 472.5C341.254 474.24 341.277 475.98 341.339 477.719C341.398 479.459 341.53 481.198 341.561 482.938C341.6 485.113 341.48 487.293 341.592 489.46C341.736 492.27 342.044 495.076 342.281 497.882" stroke="black" stroke-opacity="0.5" stroke-width="0.25" stroke-linecap="round" stroke-linejoin="round"/>
<path d="M342.282 497.878C342.243 499.104 342.274 501.279 342.294 502.501C342.321 503.964 342.477 505.428 342.512 506.891C342.609 510.845 342.706 514.795 342.749 518.749C342.788 522.384 342.905 526.03 342.71 529.657C342.562 532.358 342.118 535.071 341.523 537.713C341.107 539.558 340.001 541.126 338.258 542.122C337.725 542.426 337.258 542.838 336.53 543.368C337.055 543.457 337.297 543.527 337.542 543.531C338.254 543.547 338.966 543.566 339.675 543.531C342.64 543.387 345.602 543.169 348.571 543.08C350.466 543.021 352.365 543.189 354.264 543.169C356.596 543.142 358.931 543.025 361.262 542.94C361.421 542.932 361.577 542.831 361.736 542.831C364.068 542.823 366.403 542.827 368.765 542.827C368.843 541.367 368.913 540.141 368.971 538.912C369.173 534.565 369.407 530.218 369.551 525.867C369.633 523.341 369.567 520.808 369.567 518.278C369.567 514.76 369.582 511.242 369.555 507.724C369.547 506.696 369.352 505.669 369.345 504.642C369.337 503.813 369.574 502.98 369.547 502.151C369.493 500.567 369.306 498.991 369.22 497.407C369.189 496.776 369.321 496.142 369.321 495.512C369.333 491.795 369.294 488.079 369.333 484.362C369.376 480.249 369.567 476.139 369.535 472.029C369.508 468.749 369.263 465.464 369.08 462.187C369.022 461.117 368.85 460.051 368.734 458.984" stroke="black" stroke-opacity="0.5" stroke-width="0.25" stroke-linecap="round" stroke-linejoin="round"/>
<path d="M147.215 216.688C148.714 217.735 150.508 217.79 152.201 217.945C154.606 218.163 157.046 218.05 159.431 217.517C160.587 217.257 161.63 216.805 162.268 215.735C162.412 215.498 162.502 215.186 162.506 214.91C162.525 213.17 162.385 211.419 162.541 209.695C162.996 204.636 162.642 199.573 162.743 194.514C162.809 191.194 162.665 187.871 162.794 184.555C162.864 182.753 162.984 180.986 162.541 179.212C162.342 178.41 161.945 177.865 161.214 177.561C160.112 177.106 159.034 176.67 157.777 176.697C156.042 176.733 154.294 176.448 152.563 176.526C151.014 176.592 149.449 176.853 147.943 177.231C145.884 177.74 144.974 179.048 144.974 181.118C144.974 187.287 144.97 193.451 144.978 199.619C144.978 200.293 145.052 200.962 145.09 201.635" stroke="black" stroke-opacity="0.5" stroke-width="0.25" stroke-linecap="round" stroke-linejoin="round"/>
<path d="M217.542 433.009C217.939 432.736 218.336 432.46 218.932 432.047C216.344 428.062 213.76 424.081 211.051 419.905C207.907 421.75 204.91 423.509 201.929 425.26C203.279 427.506 204.894 430.199 206.155 432.296" stroke="black" stroke-opacity="0.5" stroke-width="0.25" stroke-linecap="round" stroke-linejoin="round"/>
<path d="M205.934 431.925C206.615 434.385 207.405 437.451 208.133 440.071C211.721 439.495 215.118 438.502 218.559 437.506C218.162 435.953 217.792 434.521 217.418 433.066C214.811 434.537 212.32 435.945 209.795 437.374C208.495 435.56 207.327 433.926 206.156 432.295" stroke="black" stroke-opacity="0.5" stroke-width="0.25" stroke-linecap="round" stroke-linejoin="round"/>
<path d="M228.303 91.5473C228.253 91.8197 228.144 92.0961 228.163 92.3646C228.26 93.5827 228.078 93.8707 226.762 94.3182C224.563 93.104 224.073 90.9286 223.906 88.687C223.711 86.0679 223.548 83.4254 223.672 80.8102C223.832 77.3855 224.338 73.9881 225.922 70.8553C226.33 70.0458 226.98 69.5632 227.79 69.2753C228.595 68.9912 229.447 69.6528 229.358 70.5206C229.198 72.015 229.027 73.5133 228.774 74.996C228.622 75.8911 228.163 76.7473 228.093 77.6424C227.86 80.6234 227.326 83.5927 227.63 86.6049C227.786 88.1616 227.863 89.7221 227.984 91.4228C230.183 91.9715 232.281 92.6214 234.429 92.9834C235.95 93.2402 237.542 93.1079 239.099 93.1624C239.371 93.1702 239.644 93.2558 239.916 93.3064" stroke="black" stroke-opacity="0.5" stroke-width="0.25" stroke-linecap="round" stroke-linejoin="round"/>
<path d="M157.572 32.0444C155.479 32.0833 136.483 31.5462 134.39 31.5696C132.728 31.589 72.1849 31.9237 70.5232 31.9237C67.1218 31.9237 63.7244 31.9237 60.3231 31.9198C60.0857 31.9198 30.5556 31.6085 30.3183 31.5696" stroke="black" stroke-opacity="0.5" stroke-width="0.25" stroke-linecap="round" stroke-linejoin="round"/>
<path d="M30.3173 31.5692C30.2005 30.6197 30.0137 29.674 29.9748 28.7205C29.8619 25.8368 29.7451 22.9492 29.7451 20.0654C29.7451 18.2052 29.9475 16.3489 30.0682 14.3719C32.0179 14.3719 33.956 14.3447 35.894 14.3797C38.661 14.4303 41.428 14.5509 44.195 14.6015C45.378 14.621 46.565 14.5315 47.752 14.4925" stroke="black" stroke-opacity="0.5" stroke-width="0.25" stroke-linecap="round" stroke-linejoin="round"/>
<path d="M47.7529 14.4927C50.0841 14.5316 63.9229 14.8351 66.254 14.8351C67.2425 14.8351 68.231 14.6289 69.2195 14.6289C70.208 14.6289 71.1964 14.7573 72.1849 14.8546C72.7803 14.913 73.3719 15.0686 73.9634 15.0764C75.8587 15.1076 77.7578 15.092 79.6569 15.0803C119.449 14.7962 157.296 14.5355 157.572 14.4966" stroke="black" stroke-opacity="0.5" stroke-width="0.25" stroke-linecap="round" stroke-linejoin="round"/>
<path d="M157.572 14.4971L157.572 32.0447" stroke="black" stroke-opacity="0.5" stroke-width="0.25" stroke-linecap="round" stroke-linejoin="round"/>
<path d="M79.8073 293.347C79.3247 289.218 78.846 285.151 78.3596 280.995C68.86 282.221 59.4188 283.439 49.8413 284.677C49.9892 285.879 49.7752 287.191 50.25 288.584C50.6975 289.895 50.4368 291.429 50.7092 292.822C50.9816 294.207 50.7559 295.682 51.4876 296.99C51.6238 297.231 51.4953 297.613 51.507 297.928C51.5459 298.916 51.5926 299.905 51.6471 301.127C52.8691 300.959 53.9704 300.831 55.064 300.648C58.0722 300.15 61.0883 299.702 64.0732 299.091C68.1517 298.262 72.273 297.943 76.4098 297.675C77.7252 297.589 79.0289 297.36 80.4961 297.177C80.2237 295.889 80.0524 294.519 79.8034 293.343" stroke="black" stroke-opacity="0.5" stroke-width="0.25" stroke-linecap="round" stroke-linejoin="round"/>
<path d="M317.02 460.165C318.701 457.833 320.538 457.806 323.192 457.627C326.43 457.409 329.594 458.188 331.933 460.667C333.443 462.27 335.303 463.216 337.183 464.196C339.086 465.189 340.596 466.481 340.736 468.824C340.756 469.139 340.724 469.458 340.744 469.773C340.767 470.131 341.176 472.147 341.215 472.501" stroke="black" stroke-opacity="0.5" stroke-width="0.25" stroke-linecap="round" stroke-linejoin="round"/>
<path d="M342.421 505.003C342.499 504.964 342.958 504.696 342.989 504.633C343.857 502.944 345.266 503.061 346.791 503.446C350.422 504.365 361.471 504.05 364.654 502.038C364.557 502.781 364.471 503.524 364.362 504.264C364.133 505.805 363.895 507.35 363.65 508.891C363.502 509.84 363.281 510.782 363.191 511.74C363.063 513.117 362.977 514.507 362.95 515.888C362.911 517.943 362.852 520.005 362.961 522.053C363.113 524.862 363.409 527.668 363.654 530.474C363.798 532.097 363.763 533.774 364.211 535.311C364.436 536.086 364.257 536.6 364.238 537.168C362.724 536.615 361.327 535.895 359.848 535.631C358.513 535.393 349.706 535.226 348.336 535.378C346.823 535.549 345.336 535.981 343.822 536.144C343.297 536.199 342.721 535.79 342.164 535.592" stroke="black" stroke-opacity="0.5" stroke-width="0.25" stroke-linecap="round" stroke-linejoin="round"/>
<path d="M342.282 497.877C342.578 498.621 343.344 500.313 343.629 501.033C344.847 500.586 346.135 500.169 347.376 499.644C349.26 498.846 358.53 499.434 360.448 499.745C361.666 499.944 362.9 500.045 364.402 500.224C364.266 499.415 364.145 498.636 364.005 497.858C363.577 495.523 363.04 493.207 362.733 490.857C362.495 489.02 362.503 487.144 362.472 485.288C362.433 482.68 362.375 480.065 362.484 477.462C362.632 473.94 362.92 470.421 363.188 466.907C363.227 466.386 363.488 465.88 363.647 465.366" stroke="black" stroke-opacity="0.5" stroke-width="0.25" stroke-linecap="round" stroke-linejoin="round"/>
<path d="M292.915 103.464C294.417 104.749 295.215 106.348 295.293 108.356C295.379 110.559 295.597 112.758 295.76 114.956C295.939 117.369 295.394 119.7 294.935 122.039C294.701 123.242 294.305 124.413 294.063 125.62C293.795 126.982 292.865 127.725 291.833 128.34C290.911 128.173 289.88 128.25 289.708 127.106C289.623 126.538 289.794 125.927 289.887 125.339C290.257 123.036 290.736 120.747 290.993 118.432C291.187 116.688 291.137 114.914 291.137 113.151C291.137 110.454 291.078 107.757 291.063 105.056C291.063 104.663 291.137 104.274 291.179 103.85C291.771 103.702 292.285 103.573 292.798 103.445" stroke="black" stroke-opacity="0.5" stroke-width="0.25" stroke-linecap="round" stroke-linejoin="round"/>
<path d="M85.4261 199.733L85.4261 191.432C85.4261 188.825 85.3989 186.213 85.4339 183.606C85.4845 179.811 85.5896 176.017 85.6596 172.219C85.6674 171.783 85.5857 171.351 85.5468 170.915" stroke="black" stroke-opacity="0.5" stroke-width="0.25" stroke-linecap="round" stroke-linejoin="round"/>
<path d="M106.188 260.555C109.36 261.294 112.536 261.956 115.824 261.905C116.883 261.89 117.945 262.147 119 262.279C119.346 259.531 119.673 256.901 120.02 254.161C115.626 253.608 111.353 253.075 107.193 252.554C106.854 255.262 106.527 257.85 106.204 260.438" stroke="black" stroke-opacity="0.5" stroke-width="0.25" stroke-linecap="round" stroke-linejoin="round"/>
<path d="M321.174 551.007C320.438 550.096 320.255 548.789 320.345 547.687" stroke="black" stroke-opacity="0.5" stroke-width="0.25" stroke-linecap="round" stroke-linejoin="round"/>
<path d="M51.1526 550.265C49.3508 552.09 49.0472 554.246 49.5921 556.674C50.1992 559.375 50.1408 562.068 49.2691 564.738C48.6814 566.54 49.6582 567.847 51.5068 567.808C53.9975 567.758 56.4882 567.641 58.9788 567.587C60.481 567.552 61.9832 567.61 63.4854 567.571C65.4234 567.524 67.3615 567.349 69.2956 567.357C72.1093 567.369 74.9269 567.299 77.725 567.886C78.8497 568.124 80.2001 567.143 80.4025 565.793C80.5932 564.516 80.4453 563.189 80.4453 561.885C80.4453 560.305 80.2118 558.675 80.5154 557.157C80.7839 555.818 80.5737 554.588 80.1417 553.491C79.593 552.094 78.8458 550.677 77.4798 549.79" stroke="black" stroke-opacity="0.5" stroke-width="0.25" stroke-linecap="round" stroke-linejoin="round"/>
<path d="M352.719 453.878C355.031 453.489 357.339 453.104 359.662 452.715C359.277 451.092 358.954 449.73 358.642 448.415C356.105 448.909 353.79 449.356 351.431 449.816C351.875 451.357 352.237 452.618 352.603 453.882" stroke="black" stroke-opacity="0.5" stroke-width="0.25" stroke-linecap="round" stroke-linejoin="round"/>
<path d="M31.4648 193.443C32.7413 195.557 32.5311 197.592 31.6555 199.876C30.7682 202.196 29.3672 203.729 27.0711 204.328C23.3779 205.294 19.3422 204.243 17.6571 200.413C15.7813 196.156 17.1045 190.84 22.8097 189.295C23.2806 189.167 23.9889 189.05 24.7555 189.128" stroke="black" stroke-opacity="0.5" stroke-width="0.25" stroke-linecap="round" stroke-linejoin="round"/>
<path d="M126.814 555.888C126.814 558.725 126.993 566.446 126.993 569.478L148.145 569.478C147.288 564.263 148.724 559.025 147.685 553.682L126.647 553.682C126.709 554.503 126.764 555.195 126.814 555.888Z" stroke="black" stroke-opacity="0.5" stroke-width="0.25" stroke-linecap="round" stroke-linejoin="round"/>
<path d="M368.613 459.573C364.897 459.732 361.18 459.989 357.464 460.016C354.261 460.044 351.062 459.732 347.859 459.717C345.528 459.705 343.197 459.978 340.862 460.032C338.293 460.09 335.725 460.04 333.152 460.051C332.678 460.051 332.203 460.125 331.728 460.164" stroke="black" stroke-opacity="0.5" stroke-width="0.25" stroke-linecap="round" stroke-linejoin="round"/>
<path d="M180.656 455.661C180.497 455.346 180.259 455.046 180.193 454.711C179.567 451.586 178.971 448.457 178.321 445.114C175.332 445.577 172.418 446.033 169.437 446.496C170.219 450.096 171.106 453.886 171.877 457.439" stroke="black" stroke-opacity="0.5" stroke-width="0.25" stroke-linecap="round" stroke-linejoin="round"/>
<path d="M227.299 128.737C226.283 128.013 225.707 127.052 225.256 125.857C223.96 122.421 223.652 118.825 223.427 115.241C223.279 112.867 223.473 110.446 223.761 108.08C224.018 105.963 224.944 104.13 227.042 103.262C228.202 103.904 228.338 104.815 228.233 106.006C227.813 110.61 227.466 115.21 228.023 119.852C228.241 121.654 228.459 123.425 228.898 125.188C229.151 126.204 229.21 127.27 229.389 128.523C228.533 128.578 227.988 128.616 227.443 128.652" stroke="black" stroke-opacity="0.5" stroke-width="0.25" stroke-linecap="round" stroke-linejoin="round"/>
<path d="M93.1336 147.666C92.974 146.915 92.795 146.168 92.6627 145.413C92.4409 144.117 92.2502 142.817 92.0323 141.42C92.8378 141.288 93.5111 141.175 94.4296 141.027C94.772 143.21 95.1067 145.315 95.4336 147.405C94.6708 147.538 93.9586 147.662 93.2465 147.787" stroke="black" stroke-opacity="0.5" stroke-width="0.25" stroke-linecap="round" stroke-linejoin="round"/>
<path d="M269.847 73.7828C268.808 74.8608 267.563 75.3083 266.131 74.7713C264.726 73.308 264.807 72.0238 265.765 71.1248C266.85 70.1129 267.855 69.9767 269.08 70.8991C270.427 71.9148 270.61 72.5414 269.847 73.7789C270.135 74.1486 270.474 74.53 270.742 74.9503C270.945 75.2616 271.061 75.6274 271.26 76.0594C270.89 76.2501 270.567 76.4136 270.232 76.5848C269.765 76.1022 268.96 75.1838 268.524 74.7362" stroke="black" stroke-opacity="0.5" stroke-width="0.25" stroke-linecap="round" stroke-linejoin="round"/>
<path d="M363.65 465.363C361 465.562 350.625 465.823 347.975 465.959C346.321 466.044 344.655 465.982 342.993 465.97C342.519 465.967 342.044 465.896 341.569 465.858" stroke="black" stroke-opacity="0.5" stroke-width="0.25" stroke-linecap="round" stroke-linejoin="round"/>
<path d="M226.076 306.233C225.745 308.12 225.535 312.619 225.839 314.533C226.049 315.864 227.617 316.744 228.804 316.678C230.302 316.596 231.808 316.565 233.311 316.553C236.354 316.534 239.397 316.549 242.748 316.549C242.631 315.035 242.822 313.666 242.378 312.541C241.569 310.474 242.234 308.638 242.662 306.703C243.25 304.057 243.577 301.434 242.592 298.749C241.794 296.573 240.884 296.476 239.117 296.429C235.404 296.332 231.688 296.464 227.971 296.511C227.282 296.519 226.142 297.577 225.971 298.527C225.512 301.096 225.305 303.676 226.072 306.233" stroke="black" stroke-opacity="0.5" stroke-width="0.25" stroke-linecap="round" stroke-linejoin="round"/>
<path d="M242.791 330.933C243.072 329.338 243.251 325.531 242.994 323.913C242.815 322.788 241.492 322.045 240.484 322.099C239.215 322.169 237.942 322.196 236.674 322.204C234.097 322.22 232.128 322.208 229.295 322.208C229.392 323.488 228.63 324.648 229.003 325.598C229.688 327.345 229.124 328.898 228.762 330.536C228.268 332.774 227.987 334.992 228.82 337.265C229.494 339.102 230.268 339.187 231.759 339.226C234.899 339.308 238.044 339.199 241.184 339.156C241.764 339.148 242.729 338.253 242.873 337.452C243.262 335.28 243.437 333.097 242.788 330.933" stroke="black" stroke-opacity="0.5" stroke-width="0.25" stroke-linecap="round" stroke-linejoin="round"/>
<path d="M229.252 125.958C229.844 126.025 230.439 126.067 231.023 126.165C234.144 126.69 237.265 126.826 240.398 126.297C240.709 126.246 241.001 126.091 241.301 125.986" stroke="black" stroke-opacity="0.5" stroke-width="0.25" stroke-linecap="round" stroke-linejoin="round"/>
<path d="M229.537 72.2417C233.514 71.0431 237.491 71.2066 241.469 72.2495" stroke="black" stroke-opacity="0.5" stroke-width="0.25" stroke-linecap="round" stroke-linejoin="round"/>
<path d="M279.37 104.367C281.098 104.363 282.849 104.176 284.55 104.394C286.659 104.666 288.916 105.289 291.002 105.748" stroke="black" stroke-opacity="0.5" stroke-width="0.25" stroke-linecap="round" stroke-linejoin="round"/>
<path d="M113.148 236.178C112.354 236.571 111.412 236.704 111.342 237.957C111.233 239.868 112.829 240.35 114.203 239.825C114.969 239.533 115.787 238.934 115.6 237.965C115.425 237.073 114.806 236.408 113.74 236.404C113.58 236.404 113.425 236.256 113.265 236.178" stroke="black" stroke-opacity="0.5" stroke-width="0.25" stroke-linecap="round" stroke-linejoin="round"/>
<path d="M228.304 106.737C230.849 105.456 233.612 105.04 236.39 104.74C237.577 104.612 238.792 104.752 239.994 104.771" stroke="black" stroke-opacity="0.5" stroke-width="0.25" stroke-linecap="round" stroke-linejoin="round"/>
<path d="M80.3256 345.721C80.5903 346.713 80.851 347.706 81.1351 348.78C82.9369 348.169 84.6882 347.573 86.4355 346.978C86.0542 345.837 85.7389 344.892 85.3653 343.779C83.7269 344.386 81.9679 345.114 80.3256 345.721Z" stroke="black" stroke-opacity="0.5" stroke-width="0.25" stroke-linecap="round" stroke-linejoin="round"/>
<path d="M178.06 421.15C178.15 421.952 178.224 422.987 178.313 423.816L186.233 423.816C186.233 423.119 186.077 422.368 186.875 422.084C186.766 421.691 186.692 421.415 186.603 421.088L177.107 421.088C177.08 420.928 177.021 420.574 176.943 420.115C179.703 420.021 182.314 419.947 184.925 419.835C185.672 419.803 185.836 420.422 185.778 421.033" stroke="black" stroke-opacity="0.5" stroke-width="0.25" stroke-linecap="round" stroke-linejoin="round"/>
<path d="M278.478 125.542C282.198 126.592 286.059 126.857 289.748 125.433" stroke="black" stroke-opacity="0.5" stroke-width="0.25" stroke-linecap="round" stroke-linejoin="round"/>
<path d="M266.639 330.777C267.157 332.564 268.756 332.937 270.208 333.213C271.624 333.486 272.769 334.081 273.885 334.91C274.477 335.35 275.174 335.642 276.104 336.156C276.287 335.794 276.442 335.475 276.676 335.008C276.244 334.572 275.855 333.902 275.283 333.657C273.644 332.949 272.169 332.093 270.866 330.82C270.262 330.232 269.169 330.147 268.301 329.824C267.464 329.512 266.966 329.808 266.76 330.657" stroke="black" stroke-opacity="0.5" stroke-width="0.25" stroke-linecap="round" stroke-linejoin="round"/>
<path d="M116.113 240.094C116.191 240.37 116.214 240.685 116.362 240.915C116.634 241.339 116.918 241.927 117.315 242.047C117.704 242.168 118.335 241.903 118.701 241.611C119.417 241.039 119.37 239.183 118.72 238.553C118.027 237.879 116.689 238.21 116.35 239.148C116.253 239.416 116.191 239.701 116.109 239.977" stroke="black" stroke-opacity="0.5" stroke-width="0.25" stroke-linecap="round" stroke-linejoin="round"/>
<path d="M352.977 211.828C353.573 211.762 354.164 211.695 354.728 211.629C355.483 210.52 355.6 209.181 354.989 208.508C354.437 207.901 353.837 207.531 352.973 208.018C351.685 208.742 351.319 209.539 351.674 211.112C352.028 211.31 352.386 211.509 352.74 211.703" stroke="black" stroke-opacity="0.5" stroke-width="0.25" stroke-linecap="round" stroke-linejoin="round"/>
<path d="M171.881 457.44C174.648 456.849 177.889 456.253 180.656 455.662" stroke="black" stroke-opacity="0.5" stroke-width="0.25" stroke-linecap="round" stroke-linejoin="round"/>
<path d="M178.185 422.453C180.002 422.375 182.038 422.263 183.859 422.231C184.61 422.22 185.599 422.442 186.35 422.519" stroke="black" stroke-opacity="0.5" stroke-width="0.25" stroke-linecap="round" stroke-linejoin="round"/>
<path d="M25.7711 193.918C25.2963 194.67 24.771 195.393 24.3701 196.183C24.1872 196.541 24.2533 197.024 24.3506 197.487C25.6972 196.853 26.2109 195.685 26.7207 194.514" stroke="black" stroke-opacity="0.5" stroke-width="0.25" stroke-linecap="round" stroke-linejoin="round"/>
<path d="M184.687 424.944L178.807 424.944C178.788 424.512 178.772 424.193 178.757 423.877" stroke="black" stroke-opacity="0.5" stroke-width="0.25" stroke-linecap="round" stroke-linejoin="round"/>
<path d="M116.139 548.602C118.116 547.773 120.093 546.94 122.07 546.111" stroke="black" stroke-opacity="0.5" stroke-width="0.25" stroke-linecap="round" stroke-linejoin="round"/>
<path d="M351.552 211C351.353 211.038 351.159 211.105 350.96 211.112C349.793 211.156 349.118 211.79 348.937 213.012C348.925 213.101 348.789 213.171 348.571 213.389C349.197 213.755 349.75 214.198 350.376 214.413C351.326 214.739 352.497 213.872 352.735 212.774C352.801 212.463 352.817 212.144 352.859 211.825" stroke="black" stroke-opacity="0.5" stroke-width="0.25" stroke-linecap="round" stroke-linejoin="round"/>
<path d="M141.463 343.632C142.541 343.453 143.942 343.503 144.981 343.889C145.709 344.161 146.931 344.06 147.76 344.06" stroke="black" stroke-opacity="0.5" stroke-width="0.25" stroke-linecap="round" stroke-linejoin="round"/>
<path d="M357.821 560.02C358.016 560.67 358.3 561.258 359.125 561.079C360.036 560.88 359.849 560.187 359.802 559.351C359.121 559.639 358.366 558.934 357.942 559.903" stroke="black" stroke-opacity="0.5" stroke-width="0.25" stroke-linecap="round" stroke-linejoin="round"/>
<path d="M341.574 465.857C341.454 467.402 341.843 469.909 341.022 471.384" stroke="black" stroke-opacity="0.5" stroke-width="0.25" stroke-linecap="round" stroke-linejoin="round"/>
<path d="M137.731 19.4747C137.731 22.6659 137.789 25.8376 137.789 28.8848C136.777 29.3829 136.33 28.8965 136.065 28.375C134.773 28.4762 133.59 28.5696 132.391 28.663L132.391 17.2837L134.185 17.2837C134.252 17.5795 134.329 17.9375 134.407 18.2916" stroke="black" stroke-opacity="0.5" stroke-width="0.25" stroke-linecap="round" stroke-linejoin="round"/>
<path d="M134.175 28.3658C134.23 25.0812 134.288 21.8005 134.346 18.3447C135.023 18.442 135.494 18.5121 136.074 18.5938L136.074 23.0303C136.074 24.731 136.074 26.6729 136.074 28.3697" stroke="black" stroke-opacity="0.5" stroke-width="0.25" stroke-linecap="round" stroke-linejoin="round"/>
<path d="M127.831 25.4909L127.831 17.5324C128.318 17.4624 128.757 17.404 129.29 17.3262C129.446 17.6258 129.621 17.9605 129.851 18.4042L132.279 18.4042" stroke="black" stroke-opacity="0.5" stroke-width="0.25" stroke-linecap="round" stroke-linejoin="round"/>
<path d="M127.831 25.4904C127.909 26.0819 127.948 27.2961 128.002 27.8916C128.037 28.2457 128.01 28.6037 128.01 29.0163L129.672 29.0163L129.672 19.7074C129.672 19.3104 129.695 18.4932 129.695 18.1001" stroke="black" stroke-opacity="0.5" stroke-width="0.25" stroke-linecap="round" stroke-linejoin="round"/>
<path d="M131.092 27.1207C131.053 26.8055 130.983 26.1945 130.979 25.8793C130.932 23.4664 130.897 20.8201 130.854 18.4072" stroke="black" stroke-opacity="0.5" stroke-width="0.25" stroke-linecap="round" stroke-linejoin="round"/>
<path d="M135.952 18.5241C136.018 18.1272 136.084 17.7264 136.158 17.2788L137.551 17.2788C137.606 17.9676 137.668 18.7187 137.73 19.4737" stroke="black" stroke-opacity="0.5" stroke-width="0.25" stroke-linecap="round" stroke-linejoin="round"/>
<path d="M129.692 27.1948C130.443 27.1559 131.645 27.0936 132.396 27.0508" stroke="black" stroke-opacity="0.5" stroke-width="0.25" stroke-linecap="round" stroke-linejoin="round"/>
<path d="M184.687 424.944L184.688 423.877" stroke="black" stroke-opacity="0.5" stroke-width="0.25" stroke-linecap="round" stroke-linejoin="round"/>
<path d="M364.814 558.48C363.69 556.285 362.258 554.429 359.592 554.113C358.778 554.016 357.934 554.18 357.097 554.222C355.517 555.456 354.171 556.88 353.785 558.955C353.346 561.332 353.832 562.897 355.688 564.158C356.506 564.71 357.374 565.255 358.296 565.571C361.082 566.52 363.437 564.913 364.293 562.379C364.694 561.196 364.651 559.865 364.811 558.597" stroke="black" stroke-opacity="0.5" stroke-width="0.25" stroke-linecap="round" stroke-linejoin="round"/>
<path d="M262.249 216.809C263.234 216.085 263.588 215.338 263.199 214.793C262.751 214.166 262.074 214.081 261.428 214.236C261.14 214.303 260.817 214.723 260.735 215.038C260.556 215.731 260.918 216.248 261.541 216.571C261.728 216.669 261.934 216.731 262.132 216.813" stroke="black" stroke-opacity="0.5" stroke-width="0.25" stroke-linecap="round" stroke-linejoin="round"/>
<path d="M259.758 303.384C260.389 303.049 260.903 302.68 260.961 301.843C261.07 300.247 260.642 299.418 258.548 299.59C257.801 300.504 257.606 301.543 257.992 302.668C258.268 303.477 258.98 303.407 259.646 303.38" stroke="black" stroke-opacity="0.5" stroke-width="0.25" stroke-linecap="round" stroke-linejoin="round"/>
<path d="M352.028 215.86C353.685 215.377 355.39 214.953 356.413 213.369C359.457 208.641 358.515 202.628 352.028 200.799C350.498 200.367 349.187 201.029 347.879 201.64C346.385 202.34 345.166 203.399 344.575 204.959C343.871 206.812 343.388 210.427 345.373 212.081C346.077 212.669 346.708 213.365 347.268 214.093C348.467 215.646 350.101 215.949 351.907 215.864" stroke="black" stroke-opacity="0.5" stroke-width="0.25" stroke-linecap="round" stroke-linejoin="round"/>
<path d="M368.85 443.442C368.099 441.939 367.526 440.309 366.561 438.962C364.215 435.697 361.144 433.755 356.871 434.16C354.871 434.347 352.913 434.584 351.193 435.635C347.621 437.81 345.741 440.986 345.574 445.224C345.515 446.637 345.215 448.018 345.846 449.376C347.103 452.101 348.959 454.342 351.45 455.977C352.24 456.494 353.314 456.599 354.271 456.837C356.634 457.424 359.023 457.646 361.257 456.467C363.541 455.257 365.538 453.673 366.729 451.272C366.935 450.859 367.176 450.466 367.441 450.085C368.137 449.081 368.437 448.007 368.422 446.761C368.41 445.695 368.702 444.629 368.861 443.558" stroke="black" stroke-opacity="0.5" stroke-width="0.25" stroke-linecap="round" stroke-linejoin="round"/>
<path d="M264.504 212.54C265.243 212.209 266.06 212.042 266.418 211.124C266.843 210.026 266.687 209.03 265.807 208.271C265.177 207.726 263.628 207.598 262.963 208.034C262.289 208.473 261.888 209.711 262.138 210.641C262.2 210.879 262.344 211.093 262.566 211.56C263.013 211.801 263.698 212.171 264.383 212.54" stroke="black" stroke-opacity="0.5" stroke-width="0.25" stroke-linecap="round" stroke-linejoin="round"/>
<path d="M262.845 203.765C263.624 203.43 264.429 203.231 264.776 202.235C265.11 201.266 265.013 200.523 264.266 199.853C263.869 199.495 262.028 199.305 261.662 199.624C260.942 200.25 260.857 201.138 260.966 201.986C261.09 202.967 261.919 203.387 262.725 203.769" stroke="black" stroke-opacity="0.5" stroke-width="0.25" stroke-linecap="round" stroke-linejoin="round"/>
<path d="M369.559 556.109C368.987 553.435 367.675 551.186 365.78 549.217C364.293 547.672 362.495 546.874 360.425 546.637C359.09 546.481 357.736 546.477 356.393 546.384C353.863 546.209 351.805 547.267 349.999 548.89C348.839 549.933 347.594 550.98 347.158 552.56C346.489 554.996 345.905 557.382 346.236 560.036C346.8 564.534 349.571 566.936 353.307 568.679C354.206 569.099 354.735 569.64 356.039 569.847C356.44 569.932 356.918 569.874 357.331 569.85C359.837 569.71 362.02 568.492 364.188 567.438C366.348 566.391 367.632 564.371 368.628 562.168C369.5 560.246 369.555 558.253 369.551 556.226" stroke="black" stroke-opacity="0.5" stroke-width="0.25" stroke-linecap="round" stroke-linejoin="round"/>
<path d="M111.872 348.449C112.187 348.371 112.502 348.231 112.821 348.219C115.257 348.133 116.394 347.122 116.475 344.65C116.569 341.848 116.518 339.039 116.491 336.233C116.471 334.349 115.187 332.979 113.179 332.999C111.284 333.022 109.385 332.683 107.486 332.707C106.1 332.722 104.703 332.999 103.337 333.287C102.208 333.524 101.991 334.512 101.777 335.517C101.076 338.735 100.788 341.992 101.239 345.238C101.559 347.53 102.395 348.087 104.758 348.2C107.089 348.312 109.424 348.367 111.755 348.445" stroke="black" stroke-opacity="0.5" stroke-width="0.25" stroke-linecap="round" stroke-linejoin="round"/>
<path d="M200.344 448.78C200.511 448.041 200.682 447.302 200.873 446.469L198.542 446.469C198.6 447.247 198.659 447.959 198.721 448.78L200.227 448.78" stroke="black" stroke-opacity="0.5" stroke-width="0.25" stroke-linecap="round" stroke-linejoin="round"/>
<path d="M344.699 409.311C342.929 410.213 341.154 411.116 339.313 412.054C334.725 403.73 330.172 395.468 325.56 387.097C327.066 386.361 328.529 385.649 329.989 384.933" stroke="black" stroke-opacity="0.5" stroke-width="0.25" stroke-linecap="round" stroke-linejoin="round"/>
<path d="M356.887 401.956C359.712 400.372 362.538 398.784 365.312 397.232C362.152 388.853 357.163 381.54 351.941 374.076C348.925 375.446 345.85 376.843 342.776 378.24" stroke="black" stroke-opacity="0.5" stroke-width="0.25" stroke-linecap="round" stroke-linejoin="round"/>
<path d="M342.581 378.295C342.172 377.536 341.767 376.781 341.25 375.82C337.16 378.233 333.194 380.568 328.929 383.082C329.703 384.047 330.268 384.755 330.84 385.467C335.183 383.521 339.222 381.716 343.289 379.894C343.059 379.291 342.88 378.828 342.701 378.361" stroke="black" stroke-opacity="0.5" stroke-width="0.25" stroke-linecap="round" stroke-linejoin="round"/>
<path d="M357.723 404.202C354.692 406.603 351.181 408.129 347.702 409.713C347.146 409.966 346.624 410.285 345.998 410.624C344.764 410.382 344.947 409.012 344.18 408.148C347.951 405.518 351.699 402.906 355.591 400.19C356.408 401.579 357.163 402.864 357.918 404.148" stroke="black" stroke-opacity="0.5" stroke-width="0.25" stroke-linecap="round" stroke-linejoin="round"/>
<path d="M333.195 418.343C332.829 417.655 332.561 416.884 332.078 416.289C330.152 413.915 328.144 411.611 326.198 409.252C323.556 406.046 321.116 402.675 318.17 399.718C316.854 398.399 315.796 396.83 314.445 395.157C309.623 399.488 304.79 403.824 299.956 408.167C306.261 415.58 312.422 422.827 318.691 430.201C320.851 428.399 323.096 426.59 325.264 424.695C327.786 422.488 330.175 420.13 333.125 418.464" stroke="black" stroke-opacity="0.5" stroke-width="0.25" stroke-linecap="round" stroke-linejoin="round"/>
<path d="M38.6566 49.9141C39.1742 49.9141 39.6918 49.8635 40.2016 49.9219C41.4781 50.0697 42.5755 49.7078 43.5796 48.9295C47.3234 46.0419 51.398 45.8667 55.671 47.5285C56.4883 47.8476 57.3289 48.1823 58.0489 48.6687C58.8077 49.1824 59.4304 49.8868 60.1426 50.5328C58.2006 53.9964 55.5543 55.8839 51.8767 55.8956C50.6119 55.8995 49.2653 55.3663 48.0978 54.7942C46.3855 53.9575 44.7666 52.9107 43.1671 51.8638C41.9762 51.0855 40.5985 50.7975 39.1858 51.1828" stroke="black" stroke-opacity="0.5" stroke-width="0.25" stroke-linecap="round" stroke-linejoin="round"/>
<path d="M40.3469 61.1701C41.168 64.1083 42.2343 66.9259 44.5732 69.0391C45.3632 69.7551 46.2116 70.4284 47.1067 71.0005C48.0135 71.5803 48.8541 71.3001 49.181 70.3077C49.4767 69.4049 49.6519 68.4475 49.753 67.5018C49.9476 65.6805 50.1228 63.8476 50.1734 62.0185C50.2317 59.8741 49.2277 58.1268 47.4998 56.9904C45.2621 55.5194 42.8804 54.2663 40.775 52.5928C40.0706 52.0324 39.3973 51.4331 38.7824 50.9116C37.6032 51.6004 36.3579 52.0713 35.4667 52.9197C34.1474 54.1728 33.0071 55.64 31.9486 57.1227C31.466 57.7999 30.9796 58.3058 30.2324 58.656C26.617 60.3606 25.0098 63.2833 25.1654 67.2255C25.2277 68.8094 24.8385 70.4868 26.0099 71.8644C26.438 72.3664 26.9167 72.8296 27.4382 73.3861C30.3452 71.0121 32.8515 68.6732 33.4508 64.9762C33.7816 62.9486 33.7699 60.9366 33.2173 58.9168C33.0461 58.2864 33.1161 57.3134 33.5014 56.8581C34.6611 55.4921 35.8131 54.095 37.5215 53.2739C38.9653 52.5773 39.2261 52.4955 40.3469 53.5852C40.7983 54.025 41.2419 54.4764 41.5883 54.8266C41.1524 57.0021 40.7516 59.018 40.3469 61.0378" stroke="black" stroke-opacity="0.5" stroke-width="0.25" stroke-linecap="round" stroke-linejoin="round"/>
<path d="M25.1571 41.6174C25.1104 41.6174 25.0637 41.6213 25.017 41.6174C21.4327 41.1076 19.2417 42.8433 17.8251 45.9683C17.1558 47.4432 16.9534 49.1711 18.8837 51.0936C20.2029 50.5877 21.8024 50.2919 23.0088 49.4358C25.1103 47.9414 27.2624 47.6495 29.6597 48.2216C29.8387 48.2644 30.3952 48.1632 30.582 48.1632" stroke="black" stroke-opacity="0.5" stroke-width="0.25" stroke-linecap="round" stroke-linejoin="round"/>
<path d="M38.3761 51.1291C38.5629 50.1912 38.7653 48.8875 38.9288 47.9457C38.9833 47.6266 38.8704 47.2725 38.9521 46.965C39.0805 46.4825 39.1895 45.8948 39.5203 45.5757C40.7657 44.3965 41.435 42.9838 41.9409 41.3493C42.4585 39.6837 43.4159 38.1582 44.1281 36.547C44.5989 35.4807 45.2722 35.2978 46.249 35.8465C47.2725 36.4225 48.3739 36.8856 49.3234 37.5627C50.1679 38.1698 50.6777 39.0766 50.3236 40.2052C49.9344 41.4427 48.8292 41.5634 47.794 41.7424C47.4282 41.8047 47.0195 41.8397 46.6732 41.7385C44.6262 41.1314 43.3808 42.0693 42.2756 43.6999C41.4078 44.9803 40.0107 46.21 38.9794 47.3853" stroke="black" stroke-opacity="0.5" stroke-width="0.25" stroke-linecap="round" stroke-linejoin="round"/>
<path d="M39.3613 45.416C37.8591 41.2675 33.0373 37.5276 27.9665 38.9403C27.4216 39.092 26.8379 39.1076 26.2814 39.236C25.1839 39.489 24.5807 40.5825 25.18 41.4621C26.0206 42.6996 27.013 43.8399 27.9743 44.9918C29.3169 46.5991 30.6479 48.218 32.0605 49.7669C33.2864 51.1134 34.9676 51.6388 36.6916 52.028" stroke="black" stroke-opacity="0.5" stroke-width="0.25" stroke-linecap="round" stroke-linejoin="round"/>
<path d="M31.5459 49.1953C30.4951 51.6782 30.4601 54.8966 31.8105 57.2861" stroke="black" stroke-opacity="0.5" stroke-width="0.25" stroke-linecap="round" stroke-linejoin="round"/>
<path d="M33.3382 59.3989C34.2294 59.7725 35.3463 60.5275 36.2725 60.7065C37.5567 60.9517 38.8916 60.9322 40.2031 61.0256" stroke="black" stroke-opacity="0.5" stroke-width="0.25" stroke-linecap="round" stroke-linejoin="round"/>
<path d="M41.6923 44.5981C42.8208 45.4271 44.9301 46.2482 45.5684 47.6687" stroke="black" stroke-opacity="0.5" stroke-width="0.25" stroke-linecap="round" stroke-linejoin="round"/>
<path d="M46.371 56.2617C46.6512 55.7947 47.0987 54.8996 47.3789 54.4326" stroke="black" stroke-opacity="0.5" stroke-width="0.25" stroke-linecap="round" stroke-linejoin="round"/>
<path d="M38.8908 44.2485C39.2644 44.2952 40.1284 44.4042 40.502 44.4509" stroke="black" stroke-opacity="0.5" stroke-width="0.25" stroke-linecap="round" stroke-linejoin="round"/>
<path d="M372.266 445.473L372.266 573.653L316.592 573.653L316.592 585.075L382.906 585.075C382.906 537.601 382.906 492.948 382.906 445.473L372.266 445.473Z" fill="#E6E6E6" stroke="black" stroke-width="0.25" stroke-miterlimit="10"/>
<path d="M12.3287 54.4602L12.3287 11.7335L168.992 11.7335L168.992 0.280273L1.00006 0.280266L1.00006 54.4602L12.3287 54.4602Z" fill="#E6E6E6" stroke="black" stroke-width="0.25" stroke-miterlimit="10"/>
<path d="M215.603 221.483L215.603 234.431L247.97 234.431L247.97 350.959L215.603 350.959L215.603 366.495L224.667 366.495L224.667 363.907L282.929 363.907L282.929 350.959L254.446 350.959L254.446 281.069L294.585 281.069L294.585 234.435L372.27 234.435L372.27 281.045L382.91 281.045L382.91 163.225L372.27 163.225C372.27 182.644 372.27 202.067 372.27 221.487L215.607 221.487L215.603 221.483Z" fill="#E6E6E6" stroke="black" stroke-width="0.25" stroke-miterlimit="10"/>
<path d="M160.936 350.955L97.7822 350.955L97.7822 325.044L90.0145 325.044L90.0145 350.955L12.3287 350.955L12.3287 327.647L1.00006 327.647C1.00006 351.383 1.00006 375.122 1.00006 398.857L12.3287 398.857L12.3287 363.898L159.928 363.898L159.928 366.486C162.948 366.486 165.972 366.486 168.992 366.486C168.992 352.671 168.992 338.855 168.992 325.036L160.936 325.036L160.936 350.947L160.936 350.955Z" fill="#E6E6E6" stroke="black" stroke-width="0.25" stroke-miterlimit="10"/>
<path d="M159.929 573.653L12.3288 573.653C12.3288 541.286 12.3288 508.915 12.3288 476.548L1.00013 476.548C1.00013 513.663 1.00013 547.96 1.00013 585.075L238.91 585.075L238.91 573.653L224.667 573.653L224.667 571.065L215.603 571.065L215.603 573.653L195.534 573.653L195.534 416.99L224.667 416.99L224.667 407.926L215.603 407.926L215.603 410.514L168.992 410.514L168.992 407.926L159.929 407.926L159.929 416.99L189.062 416.99L189.062 573.653L168.992 573.653L168.992 571.065L159.929 571.065L159.929 573.653Z" fill="#E6E6E6" stroke="black" stroke-width="0.25" stroke-miterlimit="10"/>
<path d="M324.36 363.903C340.327 363.903 356.295 363.903 372.266 363.903L372.266 398.862L382.906 398.862L382.906 327.652L372.266 327.652L372.266 350.96C356.299 350.96 340.331 350.96 324.36 350.96L324.36 363.907L324.36 363.903Z" fill="#E6E6E6" stroke="black" stroke-width="0.25" stroke-miterlimit="10"/>
<path d="M215.603 0.280272L215.603 11.7335L238.91 11.7335L238.91 0.280273L215.603 0.280272Z" fill="#E6E6E6" stroke="black" stroke-width="0.25" stroke-miterlimit="10"/>
<path d="M382.906 116.606L382.906 0.280273L317.242 0.280271L317.242 11.7335L372.27 11.7335L372.27 116.606L382.91 116.606L382.906 116.606Z" fill="#E6E6E6" stroke="black" stroke-width="0.25" stroke-miterlimit="10"/>
<path d="M97.7822 234.431L160.936 234.431L160.936 283.653L168.992 283.653L168.992 221.483L12.3287 221.483C12.3287 191.704 12.3287 161.925 12.3287 132.146L1.00006 132.146C1.00006 181.777 1.00006 231.411 1.00005 281.042L12.3287 281.042L12.3287 234.431L90.0145 234.431L90.0145 283.614L97.7822 283.614L97.7822 234.431Z" fill="#E6E6E6" stroke="black" stroke-width="0.25" stroke-miterlimit="10"/>
</svg>
