<svg width="384" height="492" viewBox="0 0 384 492" fill="none" xmlns="http://www.w3.org/2000/svg">
<path d="M217.972 246.073L247.57 246.073" stroke="black" stroke-width="0.25" stroke-linecap="round" stroke-linejoin="round"/>
<path d="M158.359 231.911L123.467 231.911" stroke="black" stroke-width="0.25" stroke-linecap="round" stroke-linejoin="round"/>
<path d="M121.141 232.392L97.6495 232.392" stroke="black" stroke-width="0.25" stroke-linecap="round" stroke-linejoin="round"/>
<path d="M121.141 234.427L97.6495 234.427" stroke="black" stroke-width="0.25" stroke-linecap="round" stroke-linejoin="round"/>
<path d="M195.226 416.187L221.588 416.188" stroke="black" stroke-width="0.25" stroke-linecap="round" stroke-linejoin="round"/>
<path d="M221.588 370.146L221.588 477.415" stroke="black" stroke-width="0.25" stroke-linecap="round" stroke-linejoin="round"/>
<path d="M188.762 416.188L162.4 416.187" stroke="black" stroke-width="0.25" stroke-linecap="round" stroke-linejoin="round"/>
<path d="M162.4 370.146L162.4 477.415" stroke="black" stroke-width="0.25" stroke-linecap="round" stroke-linejoin="round"/>
<path d="M159.686 370.146L159.686 477.415" stroke="black" stroke-width="0.25" stroke-linecap="round" stroke-linejoin="round"/>
<path d="M224.305 370.146L224.305 477.415" stroke="black" stroke-width="0.25" stroke-linecap="round" stroke-linejoin="round"/>
<path d="M260.374 270.405L260.374 279.852C260.343 280.171 260.7 280.532 261.019 280.497L276.527 280.497C276.845 280.528 277.206 280.171 277.171 279.852L277.171 258.851C277.203 258.533 276.845 258.171 276.527 258.206L261.019 258.206C260.7 258.175 260.339 258.533 260.374 258.851L260.374 268.307" stroke="black" stroke-width="0.25" stroke-linecap="round" stroke-linejoin="round"/>
<path d="M284.024 160.75C282.016 160.75 280.372 159.106 280.372 157.098C280.372 155.09 282.016 153.446 284.024 153.446C286.033 153.446 287.676 155.09 287.676 157.098C287.676 159.106 286.033 160.75 284.024 160.75Z" stroke="black" stroke-width="0.25" stroke-linecap="round" stroke-linejoin="round"/>
<path d="M309.064 160.248C306.547 160.248 304.492 158.189 304.492 155.675C304.492 153.162 306.551 151.103 309.064 151.103C311.578 151.103 313.637 153.162 313.637 155.675C313.637 158.189 311.578 160.248 309.064 160.248Z" stroke="black" stroke-width="0.25" stroke-linecap="round" stroke-linejoin="round"/>
<path d="M309.064 170.706C306.547 170.706 304.492 168.647 304.492 166.134C304.492 163.62 306.551 161.562 309.064 161.562C311.578 161.562 313.637 163.62 313.637 166.134C313.637 168.647 311.578 170.706 309.064 170.706Z" stroke="black" stroke-width="0.25" stroke-linecap="round" stroke-linejoin="round"/>
<path d="M294.998 170.803C291.079 170.803 287.874 167.599 287.874 163.679C287.874 159.759 291.079 156.554 294.998 156.554C298.918 156.554 302.123 159.759 302.123 163.679C302.123 167.599 298.918 170.803 294.998 170.803Z" stroke="black" stroke-width="0.25" stroke-linecap="round" stroke-linejoin="round"/>
<path d="M97.6495 234.427L121.141 234.427" stroke="black" stroke-width="0.25" stroke-linecap="round" stroke-linejoin="round"/>
<path d="M121.141 234.428L121.141 187.916" stroke="black" stroke-width="0.25" stroke-linecap="round" stroke-linejoin="round"/>
<path d="M123.467 194.989L158.359 194.989L158.359 233.168L157.198 233.168L157.198 234.427L124.628 234.427L124.628 233.168L123.467 233.168L123.467 194.989Z" stroke="black" stroke-width="0.25" stroke-linecap="round" stroke-linejoin="round"/>
<path d="M364.531 92.0628L364.531 75.9604L343.204 75.9604L343.204 111.18L364.531 111.18L364.531 94.2965" stroke="black" stroke-width="0.25" stroke-linecap="round" stroke-linejoin="round"/>
<path d="M256.775 138.642L215.255 138.642" stroke="black" stroke-width="0.25" stroke-linecap="round" stroke-linejoin="round"/>
<path d="M215.256 138.642L215.256 174.991" stroke="black" stroke-width="0.25" stroke-linecap="round" stroke-linejoin="round"/>
<path d="M256.775 174.991L256.775 138.642" stroke="black" stroke-width="0.25" stroke-linecap="round" stroke-linejoin="round"/>
<path d="M338.682 12.1489L338.682 142.036" stroke="black" stroke-width="0.25" stroke-linecap="round" stroke-linejoin="round"/>
<path d="M256.776 142.036L338.682 142.036" stroke="black" stroke-width="0.25" stroke-linecap="round" stroke-linejoin="round"/>
<path d="M279.879 234.466L279.879 304.232" stroke="black" stroke-width="0.25" stroke-linecap="round" stroke-linejoin="round"/>
<path d="M361.541 290.341L361.541 295.508" stroke="black" stroke-width="0.25" stroke-linecap="round" stroke-linejoin="round"/>
<path d="M342.963 278.979L342.963 290.338" stroke="black" stroke-width="0.25" stroke-linecap="round" stroke-linejoin="round"/>
<path d="M361.541 278.978C361.541 277.84 361.351 276.62 360.888 275.428C360.426 274.235 359.684 273.074 358.794 272.141C357.011 270.277 354.634 269.336 352.253 269.336C349.871 269.336 347.494 270.28 345.711 272.141C344.821 273.074 344.079 274.235 343.617 275.428C343.154 276.62 342.968 277.84 342.964 278.978" stroke="black" stroke-width="0.25" stroke-linecap="round" stroke-linejoin="round"/>
<path d="M361.541 290.34L361.541 278.981" stroke="black" stroke-width="0.25" stroke-linecap="round" stroke-linejoin="round"/>
<path d="M342.963 295.507L342.963 304.232" stroke="black" stroke-width="0.25" stroke-linecap="round" stroke-linejoin="round"/>
<path d="M361.541 304.232L361.541 295.507" stroke="black" stroke-width="0.25" stroke-linecap="round" stroke-linejoin="round"/>
<path d="M342.963 295.508L342.963 290.341" stroke="black" stroke-width="0.25" stroke-linecap="round" stroke-linejoin="round"/>
<path d="M342.964 304.232L361.541 304.232" stroke="black" stroke-width="0.25" stroke-linecap="round" stroke-linejoin="round"/>
<path d="M342.964 295.507L361.541 295.507" stroke="black" stroke-width="0.25" stroke-linecap="round" stroke-linejoin="round"/>
<path d="M316.337 173.052C316.519 173.072 316.729 172.858 316.71 172.671" stroke="black" stroke-width="0.25" stroke-linecap="round" stroke-linejoin="round"/>
<path d="M277.941 172.671L277.941 145.971" stroke="black" stroke-width="0.25" stroke-linecap="round" stroke-linejoin="round"/>
<path d="M316.338 145.59L278.314 145.59" stroke="black" stroke-width="0.25" stroke-linecap="round" stroke-linejoin="round"/>
<path d="M316.711 172.671L316.711 145.971" stroke="black" stroke-width="0.25" stroke-linecap="round" stroke-linejoin="round"/>
<path d="M316.338 173.052L278.314 173.052" stroke="black" stroke-width="0.25" stroke-linecap="round" stroke-linejoin="round"/>
<path d="M316.337 145.592C316.519 145.572 316.729 145.786 316.71 145.972" stroke="black" stroke-width="0.25" stroke-linecap="round" stroke-linejoin="round"/>
<path d="M278.314 145.592C278.132 145.572 277.922 145.786 277.942 145.972" stroke="black" stroke-width="0.25" stroke-linecap="round" stroke-linejoin="round"/>
<path d="M278.314 173.052C278.132 173.072 277.922 172.858 277.942 172.671" stroke="black" stroke-width="0.25" stroke-linecap="round" stroke-linejoin="round"/>
<path d="M369.194 97.5402L369.194 91.5771C369.252 91.5771 368.599 91.5771 368.024 91.5771C367.449 91.5771 366.797 91.5771 366.855 91.5771L366.855 92.0627C366.781 92.0627 366.703 92.0627 366.618 92.0627C366.432 92.0627 366.23 92.0627 366.012 92.0627C365.798 92.0627 365.569 92.0627 365.332 92.0627C365.095 92.0627 364.85 92.0627 364.594 92.0627C364.419 92.0627 364.241 92.0627 364.058 92.0627C363.879 92.0627 363.697 92.0627 363.514 92.0627C363.332 92.0627 363.149 92.0627 362.966 92.0627C362.784 92.0627 362.605 92.0627 362.422 92.0627C362.244 92.0627 362.065 92.0627 361.89 92.0627C361.715 92.0627 361.545 92.0627 361.374 92.0627C361.346 92.0627 361.319 92.0627 361.288 92.0627C361.273 92.0627 361.261 92.0627 361.245 92.0627C361.121 92.0627 361.001 92.0627 360.88 92.0627C360.803 92.0627 360.721 92.0627 360.643 92.0627C360.585 92.0627 360.527 92.0627 360.472 92.0627C360.465 92.0627 360.453 92.0627 360.445 92.0627C360.437 92.0627 360.426 92.0627 360.406 92.0627C360.375 92.0627 360.356 92.0627 360.336 92.0627C360.309 92.0627 360.282 92.0627 360.255 92.0627C360.2 92.0627 360.142 92.0627 360.088 92.0627C359.975 92.0627 359.862 92.0627 359.754 92.0627C359.641 92.0627 359.532 92.0627 359.423 92.0627C359.315 92.0627 359.21 92.0627 359.105 92.0627C359 92.0627 358.903 92.0627 358.806 92.0627C358.709 92.0627 358.615 92.0627 358.526 92.0627C358.437 92.0627 358.351 92.0627 358.266 92.0627C358.184 92.0627 358.103 92.0627 358.029 92.0627C357.877 92.0627 357.741 92.0627 357.625 92.0627C357.567 92.0627 357.508 92.0627 357.458 92.0627C357.407 92.0627 357.357 92.0627 357.314 92.0627C357.271 92.0627 357.229 92.0627 357.194 92.0627C357.159 92.0627 357.128 92.0627 357.1 92.0627C357.073 92.0627 357.05 92.0627 357.034 92.0627C357.019 92.0627 357.003 92.0627 356.995 92.0627C356.879 92.0627 356.782 92.0821 356.692 92.1171C356.603 92.1521 356.522 92.2104 356.456 92.2764C356.386 92.3463 356.331 92.4279 356.296 92.5134C356.269 92.5794 356.25 92.6493 356.242 92.7231L356.242 93.6438C356.25 93.7138 356.265 93.7876 356.296 93.8536C356.331 93.943 356.386 94.0245 356.456 94.0906C356.525 94.1605 356.607 94.2149 356.692 94.2499C356.778 94.2848 356.879 94.3042 356.995 94.3042C357.003 94.3042 357.015 94.3042 357.034 94.3042C357.05 94.3042 357.073 94.3042 357.1 94.3042C357.128 94.3042 357.159 94.3042 357.194 94.3042C357.229 94.3042 357.267 94.3042 357.314 94.3042C357.357 94.3042 357.407 94.3042 357.458 94.3042C357.508 94.3042 357.567 94.3042 357.625 94.3042C357.745 94.3042 357.881 94.3042 358.029 94.3042C358.103 94.3042 358.184 94.3042 358.266 94.3042C358.347 94.3042 358.437 94.3042 358.526 94.3042C358.615 94.3042 358.709 94.3042 358.806 94.3042C358.903 94.3042 359.004 94.3042 359.105 94.3042C359.206 94.3042 359.315 94.3042 359.423 94.3042C359.528 94.3042 359.641 94.3042 359.754 94.3042C359.862 94.3042 359.975 94.3042 360.088 94.3042C360.142 94.3042 360.197 94.3042 360.255 94.3042C360.282 94.3042 360.309 94.3042 360.336 94.3042C360.356 94.3042 360.375 94.3042 360.406 94.3042C360.426 94.3042 360.434 94.3042 360.445 94.3042C360.457 94.3042 360.465 94.3042 360.472 94.3042C360.531 94.3042 360.589 94.3042 360.643 94.3042C360.721 94.3042 360.803 94.3042 360.88 94.3042C361.001 94.3042 361.125 94.3042 361.245 94.3042C361.261 94.3042 361.276 94.3042 361.288 94.3042C361.315 94.3042 361.343 94.3042 361.374 94.3042C361.545 94.3042 361.715 94.3042 361.89 94.3042C362.069 94.3042 362.248 94.3042 362.422 94.3042C362.605 94.3042 362.788 94.3042 362.966 94.3042C363.149 94.3042 363.335 94.3042 363.514 94.3042C363.697 94.3042 363.879 94.3042 364.058 94.3042C364.241 94.3042 364.419 94.3042 364.594 94.3042C364.85 94.3042 365.095 94.3042 365.332 94.3042C365.573 94.3042 365.798 94.3042 366.012 94.3042C366.23 94.3042 366.432 94.3042 366.618 94.3042C366.7 94.3042 366.777 94.3042 366.855 94.3042L366.855 97.548L369.194 97.548L369.194 97.5402Z" stroke="black" stroke-width="0.25" stroke-linecap="round" stroke-linejoin="round"/>
<path d="M263.26 268.368L263.264 268.38L263.299 268.512L263.322 268.71L263.334 268.962L263.322 269.996L263.299 270.194L263.268 270.326L263.264 270.338L263.217 270.392L263.206 270.4L263.194 270.404L258.327 270.404L258.264 270.404L258.175 270.419L258.093 270.454L258.027 270.516L257.973 270.571L257.934 270.602L257.876 270.656L257.759 270.73L257.728 270.753L257.713 270.757L257.654 270.796L257.406 270.885L257.215 270.905L257.173 270.909L257.153 270.912L257.138 270.912L257.118 270.909L257.076 270.905L256.885 270.885L256.637 270.796L256.575 270.757L256.559 270.753L256.532 270.73L256.415 270.656L256.361 270.606L256.314 270.571L256.283 270.524L256.229 270.473L256.155 270.353L256.132 270.326L256.128 270.31L256.089 270.248L256.003 270.003L256 269.968L255.984 269.914L255.976 269.856L255.976 269.844L255.976 268.861L255.976 268.853L255.984 268.803L256 268.741L256.003 268.702L256.089 268.457L256.128 268.395L256.132 268.38L256.155 268.352L256.229 268.232L256.279 268.181L256.314 268.135L256.361 268.1L256.415 268.049L256.532 267.976L256.559 267.952L256.575 267.944L256.637 267.91L256.885 267.82L257.146 267.793L257.406 267.82L257.654 267.91L257.713 267.944L257.728 267.952L257.759 267.976L257.876 268.049L257.95 268.123L257.973 268.139L257.973 268.135L258.027 268.189L258.093 268.251L258.175 268.286L258.264 268.302L258.327 268.302L263.015 268.302L263.194 268.302L263.206 268.302L263.217 268.314L263.264 268.372L263.26 268.368Z" stroke="black" stroke-width="0.25" stroke-linecap="round" stroke-linejoin="round"/>
<path d="M68.2309 295.026L68.2425 295.022L68.3746 294.987L68.5728 294.964L69.2176 294.956L69.8586 294.964L70.0567 294.987L70.1888 295.022L70.2005 295.026L70.2587 295.073L70.2665 295.08L70.2704 295.096L70.2665 299.963L70.2665 300.022L70.282 300.115L70.3209 300.193L70.3791 300.263L70.4335 300.313L70.4646 300.356L70.5229 300.414L70.5967 300.531L70.6161 300.558L70.6239 300.573L70.6628 300.636L70.7482 300.884L70.7676 301.075L70.7754 301.113L70.7754 301.137L70.7754 301.148L70.7754 301.172L70.7676 301.21L70.7482 301.405L70.6628 301.653L70.6239 301.712L70.6161 301.727L70.5967 301.754L70.5229 301.875L70.4685 301.925L70.4335 301.972L70.3908 302.007L70.3364 302.061L70.216 302.135L70.1888 302.154L70.1733 302.162L70.115 302.197L69.8664 302.287L69.8314 302.29L69.777 302.302L69.7187 302.31L69.711 302.31L69.1128 302.31L69.1089 302.31L68.666 302.306L68.6038 302.29L68.5689 302.287L68.3202 302.197L68.262 302.162L68.2464 302.154L68.2154 302.135L68.0988 302.061L68.0444 302.007L67.9978 301.972L67.9628 301.925L67.9123 301.875L67.8385 301.758L67.8152 301.727L67.8113 301.712L67.7725 301.653L67.687 301.405L67.656 301.144L67.687 300.884L67.7725 300.636L67.8113 300.573L67.8152 300.558L67.8424 300.527L67.9123 300.414L67.9862 300.336L68.0017 300.317L67.9978 300.313L68.0561 300.263L68.1143 300.193L68.1493 300.115L68.1687 300.026L68.1687 299.963L68.1648 295.271L68.1648 295.096L68.1687 295.08L68.1765 295.073L68.2387 295.026L68.2309 295.026Z" stroke="black" stroke-width="0.25" stroke-linecap="round" stroke-linejoin="round"/>
<path d="M22.4485 295.507L41.0254 295.507" stroke="black" stroke-width="0.25" stroke-linecap="round" stroke-linejoin="round"/>
<path d="M22.4485 304.232L41.0254 304.232" stroke="black" stroke-width="0.25" stroke-linecap="round" stroke-linejoin="round"/>
<path d="M22.4473 295.508L22.4473 290.341" stroke="black" stroke-width="0.25" stroke-linecap="round" stroke-linejoin="round"/>
<path d="M41.0254 304.232L41.0254 295.507" stroke="black" stroke-width="0.25" stroke-linecap="round" stroke-linejoin="round"/>
<path d="M22.4473 295.507L22.4473 304.232" stroke="black" stroke-width="0.25" stroke-linecap="round" stroke-linejoin="round"/>
<path d="M41.0254 290.34L41.0254 278.981" stroke="black" stroke-width="0.25" stroke-linecap="round" stroke-linejoin="round"/>
<path d="M41.0254 278.978C41.0254 277.84 40.835 276.62 40.3727 275.428C39.9104 274.235 39.1685 273.074 38.2789 272.141C36.4958 270.277 34.1183 269.336 31.7369 269.336C29.3556 269.336 26.9781 270.28 25.195 272.141C24.3054 273.074 23.5634 274.235 23.1011 275.428C22.6389 276.62 22.4524 277.84 22.4485 278.978" stroke="black" stroke-width="0.25" stroke-linecap="round" stroke-linejoin="round"/>
<path d="M22.4473 278.979L22.4473 290.338" stroke="black" stroke-width="0.25" stroke-linecap="round" stroke-linejoin="round"/>
<path d="M41.0254 290.341L41.0254 295.508" stroke="black" stroke-width="0.25" stroke-linecap="round" stroke-linejoin="round"/>
<path d="M78.6016 284.875L78.6016 297.345" stroke="black" stroke-width="0.25" stroke-linecap="round" stroke-linejoin="round"/>
<path d="M60.3945 284.303L78.0352 284.303" stroke="black" stroke-width="0.25" stroke-linecap="round" stroke-linejoin="round"/>
<path d="M59.8281 297.345L59.8281 284.875" stroke="black" stroke-width="0.25" stroke-linecap="round" stroke-linejoin="round"/>
<path d="M78.0352 297.912L70.2657 297.912" stroke="black" stroke-width="0.25" stroke-linecap="round" stroke-linejoin="round"/>
<path d="M68.1641 297.912L60.3946 297.912" stroke="black" stroke-width="0.25" stroke-linecap="round" stroke-linejoin="round"/>
<path d="M60.3945 297.911C60.1148 297.939 59.7963 297.624 59.8274 297.344" stroke="black" stroke-width="0.25" stroke-linecap="round" stroke-linejoin="round"/>
<path d="M78.6019 297.344C78.6291 297.624 78.3144 297.943 78.0347 297.911" stroke="black" stroke-width="0.25" stroke-linecap="round" stroke-linejoin="round"/>
<path d="M78.0342 284.303C78.314 284.276 78.6325 284.591 78.6014 284.871" stroke="black" stroke-width="0.25" stroke-linecap="round" stroke-linejoin="round"/>
<path d="M59.8274 284.874C59.8002 284.594 60.1148 284.276 60.3945 284.307" stroke="black" stroke-width="0.25" stroke-linecap="round" stroke-linejoin="round"/>
<path d="M89.8945 280.951L48.5374 280.951L48.5374 304.233" stroke="black" stroke-width="0.25" stroke-linecap="round" stroke-linejoin="round"/>
<path d="M89.8945 231.052L89.8945 187.916" stroke="black" stroke-width="0.25" stroke-linecap="round" stroke-linejoin="round"/>
<path d="M89.8945 187.916L89.8945 231.052" stroke="black" stroke-width="0.25" stroke-linecap="round" stroke-linejoin="round"/>
<path d="M89.8945 227.319L12.3471 227.319" stroke="black" stroke-width="0.25" stroke-linecap="round" stroke-linejoin="round"/>
<path d="M89.8945 187.916L89.8945 231.052" stroke="black" stroke-width="0.25" stroke-linecap="round" stroke-linejoin="round"/>
<path d="M89.8945 231.052L12.3471 231.052" stroke="black" stroke-width="0.25" stroke-linecap="round" stroke-linejoin="round"/>
<path d="M12.3471 187.916L89.8945 187.916" stroke="black" stroke-width="0.25" stroke-linecap="round" stroke-linejoin="round"/>
<path d="M89.8945 204.262L89.8945 212.704" stroke="black" stroke-width="0.25" stroke-linecap="round" stroke-linejoin="round"/>
<path d="M12.3477 187.916L12.3477 231.052" stroke="black" stroke-width="0.25" stroke-linecap="round" stroke-linejoin="round"/>
<path d="M160.688 280.994L97.6496 280.994" stroke="black" stroke-width="0.25" stroke-linecap="round" stroke-linejoin="round"/>
<path d="M217.971 304.233L217.971 187.916" stroke="black" stroke-width="0.25" stroke-linecap="round" stroke-linejoin="round"/>
<path d="M215.256 304.233L215.256 187.916" stroke="black" stroke-width="0.25" stroke-linecap="round" stroke-linejoin="round"/>
<path d="M256.613 322.456L256.613 319.741L215.256 319.741L215.256 322.456L256.613 322.456Z" stroke="black" stroke-width="0.25" stroke-linecap="round" stroke-linejoin="round"/>
<path d="M168.732 322.456L168.732 319.741L127.375 319.741L127.375 322.456L168.732 322.456Z" stroke="black" stroke-width="0.25" stroke-linecap="round" stroke-linejoin="round"/>
<path d="M94.9844 257.084L94.9844 211.85L92.2689 211.85L92.2689 257.084L94.9844 257.084Z" stroke="black" stroke-width="0.25" stroke-linecap="round" stroke-linejoin="round"/>
<path d="M294.094 187.916L294.094 231.052" stroke="black" stroke-width="0.25" stroke-linecap="round" stroke-linejoin="round"/>
<path d="M294.093 187.916L371.641 187.916" stroke="black" stroke-width="0.25" stroke-linecap="round" stroke-linejoin="round"/>
<path d="M371.641 231.052L294.093 231.052" stroke="black" stroke-width="0.25" stroke-linecap="round" stroke-linejoin="round"/>
<path d="M371.641 227.319L294.093 227.319" stroke="black" stroke-width="0.25" stroke-linecap="round" stroke-linejoin="round"/>
<path d="M371.641 187.916L371.641 231.052" stroke="black" stroke-width="0.25" stroke-linecap="round" stroke-linejoin="round"/>
<path d="M371.641 231.052L371.641 187.916" stroke="black" stroke-width="0.25" stroke-linecap="round" stroke-linejoin="round"/>
<path d="M344.498 308.564L344.498 305.848L303.141 305.848L303.141 308.564L344.498 308.564Z" stroke="black" stroke-width="0.25" stroke-linecap="round" stroke-linejoin="round"/>
<path d="M12.3477 437.351L12.3477 359.807" stroke="black" stroke-width="0.25" stroke-linecap="round" stroke-linejoin="round"/>
<path d="M12.3477 280.971L12.3477 234.443" stroke="black" stroke-width="0.25" stroke-linecap="round" stroke-linejoin="round"/>
<path d="M12.3477 132.344L12.3477 54.7964" stroke="black" stroke-width="0.25" stroke-linecap="round" stroke-linejoin="round"/>
<path d="M316.711 12.1489L238.523 12.1489" stroke="black" stroke-width="0.25" stroke-linecap="round" stroke-linejoin="round"/>
<path d="M371.641 280.971L371.641 234.443" stroke="black" stroke-width="0.25" stroke-linecap="round" stroke-linejoin="round"/>
<path d="M371.641 116.832L371.641 70.3081" stroke="black" stroke-width="0.25" stroke-linecap="round" stroke-linejoin="round"/>
<path d="M371.641 437.351L371.641 359.807" stroke="black" stroke-width="0.25" stroke-linecap="round" stroke-linejoin="round"/>
<path d="M382.949 398.577L379.585 398.577" stroke="black" stroke-width="0.25" stroke-linecap="round" stroke-linejoin="round"/>
<path d="M1.04009 398.577L4.4043 398.577" stroke="black" stroke-width="0.25" stroke-linecap="round" stroke-linejoin="round"/>
<path d="M1.04009 93.5693L4.4043 93.5693" stroke="black" stroke-width="0.25" stroke-linecap="round" stroke-linejoin="round"/>
<path d="M379.586 116.832L379.586 70.3081" stroke="black" stroke-width="0.25" stroke-linecap="round" stroke-linejoin="round"/>
<path d="M379.586 280.971L379.586 234.443" stroke="black" stroke-width="0.25" stroke-linecap="round" stroke-linejoin="round"/>
<path d="M379.586 437.351L379.586 359.807" stroke="black" stroke-width="0.25" stroke-linecap="round" stroke-linejoin="round"/>
<path d="M4.40429 280.971L4.4043 234.443" stroke="black" stroke-width="0.25" stroke-linecap="round" stroke-linejoin="round"/>
<path d="M4.40429 437.351L4.4043 359.807" stroke="black" stroke-width="0.25" stroke-linecap="round" stroke-linejoin="round"/>
<path d="M4.40429 132.344L4.4043 54.7964" stroke="black" stroke-width="0.25" stroke-linecap="round" stroke-linejoin="round"/>
<path d="M382.949 280.971L382.949 234.443" stroke="black" stroke-width="0.25" stroke-linecap="round" stroke-linejoin="round"/>
<path d="M382.949 437.351L382.949 359.807" stroke="black" stroke-width="0.25" stroke-linecap="round" stroke-linejoin="round"/>
<path d="M1.03906 437.351L1.03906 359.807" stroke="black" stroke-width="0.25" stroke-linecap="round" stroke-linejoin="round"/>
<path d="M1.03906 280.971L1.03906 234.443" stroke="black" stroke-width="0.25" stroke-linecap="round" stroke-linejoin="round"/>
<path d="M1.03906 132.344L1.03906 54.7964" stroke="black" stroke-width="0.25" stroke-linecap="round" stroke-linejoin="round"/>
<path d="M382.949 116.832L382.949 70.3081" stroke="black" stroke-width="0.25" stroke-linecap="round" stroke-linejoin="round"/>
<path d="M160.688 187.916L97.6496 187.916L160.688 187.916ZM160.688 187.916L121.918 187.916L160.688 187.916Z" stroke="black" stroke-width="0.25" stroke-linecap="round" stroke-linejoin="round"/>
<path d="M160.687 237.05L160.688 187.916" stroke="black" stroke-width="0.25" stroke-linecap="round" stroke-linejoin="round"/>
<path d="M215.256 174.99L371.641 174.99" stroke="black" stroke-width="0.25" stroke-linecap="round" stroke-linejoin="round"/>
<path d="M18.1252 211.705C18.9216 211.705 19.6402 211.355 20.1608 210.761C20.6775 210.166 20.996 209.32 21.0038 208.481C21.0115 207.641 20.7163 206.802 20.1608 206.2C19.6053 205.598 18.7973 205.225 18.1252 205.256C17.3754 205.225 16.4625 205.598 15.8448 206.2C15.4797 206.554 15.2271 206.993 15.0717 207.459L12.3486 207.459L12.3486 209.498L15.0756 209.498C15.231 209.968 15.4874 210.407 15.8448 210.761C16.4509 211.355 17.3288 211.705 18.1252 211.705Z" stroke="black" stroke-width="0.25" stroke-linecap="round" stroke-linejoin="round"/>
<path d="M368.144 210.761C368.502 210.411 368.758 209.972 368.914 209.498L371.641 209.498L371.641 207.459L368.917 207.459C368.762 206.989 368.51 206.554 368.144 206.2C367.527 205.598 366.614 205.225 365.864 205.256C365.196 205.225 364.384 205.598 363.828 206.2C363.273 206.802 362.978 207.641 362.985 208.481C362.993 209.32 363.312 210.166 363.828 210.761C364.345 211.355 365.064 211.705 365.864 211.705C366.664 211.705 367.538 211.355 368.144 210.761Z" stroke="black" stroke-width="0.25" stroke-linecap="round" stroke-linejoin="round"/>
<path d="M169.975 11.8617C169.792 11.143 169.633 10.4282 169.489 9.71338" stroke="black" stroke-width="0.25" stroke-linejoin="round"/>
<path d="M210.801 47.1309C210.078 47.0338 209.356 46.9212 208.629 46.793" stroke="black" stroke-width="0.25" stroke-linejoin="round"/>
<path d="M206.473 46.3584C205.762 46.1991 205.047 46.0243 204.336 45.834" stroke="black" stroke-width="0.25" stroke-linejoin="round"/>
<path d="M202.223 45.2163C201.527 44.9949 200.832 44.7618 200.137 44.5093" stroke="black" stroke-width="0.25" stroke-linejoin="round"/>
<path d="M198.082 43.7133C197.406 43.4336 196.738 43.1384 196.07 42.8276" stroke="black" stroke-width="0.25" stroke-linejoin="round"/>
<path d="M194.096 41.8559C193.443 41.5141 192.794 41.1606 192.153 40.7915" stroke="black" stroke-width="0.25" stroke-linejoin="round"/>
<path d="M190.273 39.6456C189.656 39.2493 189.046 38.8414 188.444 38.418" stroke="black" stroke-width="0.25" stroke-linejoin="round"/>
<path d="M186.676 37.1085C186.097 36.6579 185.526 36.1956 184.966 35.7217" stroke="black" stroke-width="0.25" stroke-linejoin="round"/>
<path d="M183.32 34.2581C182.784 33.7569 182.256 33.2442 181.743 32.7197" stroke="black" stroke-width="0.25" stroke-linejoin="round"/>
<path d="M180.238 31.1069C179.749 30.5592 179.271 29.9998 178.813 29.4287" stroke="black" stroke-width="0.25" stroke-linejoin="round"/>
<path d="M177.469 27.6892C177.034 27.0949 176.61 26.4927 176.206 25.8867" stroke="black" stroke-width="0.25" stroke-linejoin="round"/>
<path d="M175.029 24.0216C174.652 23.3884 174.287 22.7513 173.945 22.1064" stroke="black" stroke-width="0.25" stroke-linejoin="round"/>
<path d="M172.951 20.1373C172.637 19.4691 172.337 18.8009 172.058 18.125" stroke="black" stroke-width="0.25" stroke-linejoin="round"/>
<path d="M171.262 16.0734C171.013 15.378 170.78 14.6827 170.566 13.9834" stroke="black" stroke-width="0.25" stroke-linejoin="round"/>
<path d="M169.109 7.54602C169.001 6.81569 168.911 6.08536 168.837 5.36279" stroke="black" stroke-width="0.25" stroke-linecap="round" stroke-linejoin="round"/>
<path d="M215.15 47.5277L215.15 1L212.194 1L212.194 47.5277L215.15 47.5277Z" stroke="black" stroke-width="0.25" stroke-linecap="round" stroke-linejoin="round"/>
<path d="M168.783 3.1682C168.748 2.44176 168.729 1.71919 168.729 1.00439" stroke="black" stroke-width="0.25" stroke-linecap="round" stroke-linejoin="round"/>
<path d="M277.619 4.36421L277.619 1" stroke="black" stroke-width="0.25" stroke-linecap="round" stroke-linejoin="round"/>
<path d="M316.711 4.36426L238.523 4.36425" stroke="black" stroke-width="0.25" stroke-linecap="round" stroke-linejoin="round"/>
<path d="M316.711 1L238.523 0.999997" stroke="black" stroke-width="0.25" stroke-linecap="round" stroke-linejoin="round"/>
<path d="M316.71 0.999997L316.71 12.1492L371.641 12.1492L371.641 70.3079L382.949 70.3079" stroke="black" stroke-width="0.25" stroke-linecap="round" stroke-linejoin="round"/>
<path d="M87.9764 73.8745C86.0108 73.4977 84.0567 73.3773 82.0522 73.7191C80.8635 73.9211 79.6048 73.6609 78.3889 73.7735C74.4187 74.1387 70.6738 75.0555 67.5854 77.8642C66.5481 78.8043 65.8489 79.8415 65.3672 81.0963C64.8505 82.4365 64.295 83.7651 63.8405 85.1248C63.1723 87.1176 62.7567 89.1571 62.7528 91.2782C62.7528 92.2649 62.5391 93.2517 62.5391 94.2384C62.5391 98.0688 63.7045 101.53 66.1014 104.521C66.7036 105.271 67.5699 105.815 68.3313 106.433C70.4601 108.157 72.8764 109.307 75.553 109.851C76.9554 110.135 78.3889 110.298 79.8146 110.449C81.0732 110.582 82.3552 110.787 83.5983 110.663C86.3332 110.387 89.0564 110.348 91.799 109.63C95.5206 108.655 98.4497 106.677 100.555 103.764C102.129 101.588 102.979 98.8457 103.154 96.0176C103.224 94.9066 103.729 93.7994 103.683 92.7039C103.589 90.2915 103.675 87.8596 103.03 85.4744C101.993 81.6207 99.4908 78.4275 96.1733 76.318C94.4445 75.2186 92.6304 74.5699 90.6958 74.127C89.845 73.9328 88.9632 73.8784 88.093 73.758" stroke="black" stroke-opacity="0.5" stroke-width="0.25" stroke-linecap="round" stroke-linejoin="round"/>
<path d="M44.4118 454.595C44.373 455.03 44.3147 455.462 44.2953 455.897C44.2098 458.185 44.07 460.473 44.0738 462.761C44.0738 465.247 44.2526 467.734 44.2797 470.22C44.3031 472.034 44.1865 473.848 44.1826 475.666C44.1826 476.696 44.2759 477.725 44.3341 478.863L56.3691 478.863C58.2649 478.863 60.1567 478.891 62.0525 478.859C65.8013 478.797 69.55 478.681 73.2988 478.642C74.6391 478.63 76.0415 479.065 77.3079 478.797C79.0988 478.417 80.8625 478.378 82.6495 478.401C85.7262 478.444 88.8068 478.568 91.8835 478.615C92.711 478.626 93.5423 478.397 94.3697 478.405C100.881 478.463 107.391 478.603 113.902 478.603C116.427 478.603 118.956 478.339 121.474 478.118C121.738 478.094 122.115 477.543 122.153 477.205C122.251 476.346 122.192 475.472 122.185 474.606C122.146 469.474 122.115 464.346 122.064 459.214C122.045 457.361 121.99 455.504 121.948 453.651" stroke="black" stroke-opacity="0.5" stroke-width="0.25" stroke-linecap="round" stroke-linejoin="round"/>
<path d="M258.027 445.179C256.687 444.115 255.335 443.175 253.941 442.18C252.115 440.871 250.751 439.181 249.838 437.181C249.05 435.456 248.836 433.599 249.574 431.75C249.799 431.19 250.095 430.538 250.398 429.854" stroke="black" stroke-opacity="0.5" stroke-width="0.25" stroke-linecap="round" stroke-linejoin="round"/>
<path d="M86.7957 456.609C85.3506 458.446 85.2185 460.474 85.8362 462.65C86.1003 463.578 86.4189 464.545 86.3956 465.486C86.3645 466.83 86.077 468.174 85.8401 469.51C85.3389 472.346 86.9744 474.409 89.6355 474.599C90.3852 474.654 91.135 474.681 91.8848 474.72" stroke="black" stroke-opacity="0.5" stroke-width="0.25" stroke-linecap="round" stroke-linejoin="round"/>
<path d="M38.8496 475.698L38.8496 461.057C35.4155 460.699 31.7522 461.593 28.0772 461.162C24.3906 460.727 20.7544 461.628 17.1377 461.278C16.9823 461.503 16.8425 461.612 16.8386 461.721C16.7492 465.897 16.6599 470.069 16.6094 474.245C16.6016 474.758 16.8075 475.271 16.9279 475.862C18.2487 475.862 19.554 475.842 20.8554 475.865C22.553 475.9 24.2468 475.986 25.9483 476.013C26.4572 476.021 26.9739 475.881 27.4867 475.865C30.0118 475.799 32.5369 475.733 35.062 475.706C36.3245 475.691 37.5871 475.753 38.8496 475.78" stroke="black" stroke-opacity="0.5" stroke-width="0.25" stroke-linecap="round" stroke-linejoin="round"/>
<path d="M117.555 129.376C117.501 131.408 117.66 138.87 117.714 140.879C117.804 144.227 117.598 147.588 117.528 150.94C117.504 152.043 117.528 153.617 117.528 154.72" stroke="black" stroke-opacity="0.5" stroke-width="0.25" stroke-linecap="round" stroke-linejoin="round"/>
<path d="M148.213 131.183C148.197 130.235 148.058 127.667 147.735 126.782C146.97 124.688 145.327 123.833 143.147 123.802C139.791 123.755 136.438 123.654 133.086 123.573C129.772 123.495 126.451 123.278 123.145 123.386C121.179 123.452 119.019 123.433 117.686 125.457C117.686 125.457 117.617 128.044 117.562 129.373" stroke="black" stroke-opacity="0.5" stroke-width="0.25" stroke-linecap="round" stroke-linejoin="round"/>
<path d="M117.68 125.46C116.277 124.279 115.17 123.63 111.689 123.622C109.934 123.393 108.104 123.556 106.328 123.475C102.778 123.316 99.2194 122.943 95.6765 123.067C92.5803 123.176 89.4259 123.339 86.4424 124.423C86.0306 124.574 85.883 124.648 85.3275 124.877C83.323 123.591 80.5725 123.622 78.1562 123.514C73.4673 123.304 68.7668 123.316 64.0701 123.246C63.7943 123.242 63.5185 123.319 63.2427 123.358" stroke="black" stroke-opacity="0.5" stroke-width="0.25" stroke-linecap="round" stroke-linejoin="round"/>
<path d="M63.2344 123.358C61.6572 123.474 59.2486 123.653 57.6714 123.7C54.6296 123.789 53.7284 125.421 53.3166 128.097C53.169 129.061 53.2933 130.067 53.2933 131.225C53.8255 131.322 54.3849 131.454 54.9521 131.52C56.3273 131.687 57.1353 132.468 57.2985 134.13C57.4694 135.898 57.5549 137.681 57.5432 139.456C57.5083 144.429 57.3995 149.401 57.3256 154.374C57.3218 154.65 57.3645 154.929 57.4034 155.403C58.2774 155.333 59.1049 155.279 59.9285 155.197C60.5228 155.139 61.1133 154.98 61.7038 154.976C64.1512 154.949 66.5986 155.023 69.0421 154.953C72.3597 154.852 75.6733 154.657 78.987 154.49C80.2884 154.424 81.5898 154.304 82.8951 154.261C88.2211 154.09 93.551 153.939 98.877 153.779C98.9974 153.779 99.1139 153.706 99.2305 153.667" stroke="black" stroke-opacity="0.5" stroke-width="0.25" stroke-linecap="round" stroke-linejoin="round"/>
<path d="M99.2222 153.664C101.588 153.823 109.245 154.34 111.661 154.106C113.712 153.912 115.837 154.491 117.927 154.724C118.122 154.747 118.324 154.724 118.518 154.728C120.452 154.806 122.383 154.899 124.318 154.953C124.869 154.969 125.421 154.883 125.977 154.845" stroke="black" stroke-opacity="0.5" stroke-width="0.25" stroke-linecap="round" stroke-linejoin="round"/>
<path d="M125.98 154.849C128.979 154.965 133.047 155.218 136.042 155.159C138.054 155.121 140.016 155.175 141.962 155.672C142.184 155.73 142.44 155.711 142.669 155.672C144.324 155.404 145.501 156.146 146.597 157.315C147.754 158.547 148.481 159.945 148.442 161.596C148.395 163.85 148.325 166.126 147.941 168.336C147.653 169.999 147.428 170.609 145.54 171.386C144.281 171.452 143.415 171.53 142.549 171.538C140.261 171.557 137.972 171.514 135.684 171.553C133.948 171.584 132.211 171.743 130.475 171.763C129.488 171.775 128.501 171.604 127.515 171.549C126.885 171.514 126.244 171.471 125.623 171.553C122.511 171.977 119.407 172.26 116.264 171.809C115.425 171.689 114.532 172.011 113.666 172C112.205 171.98 110.744 171.848 109.284 171.782C108.693 171.755 108.099 171.778 107.508 171.778C106.168 171.778 104.824 171.751 103.484 171.79C102.575 171.817 101.669 172 100.76 172C99.8941 172 99.0239 171.802 98.1576 171.79C95.2363 171.763 92.3189 171.759 89.3975 171.79C88.2515 171.802 87.1055 172.039 85.9634 171.996C83.3568 171.903 80.7539 171.681 78.1473 171.557C77.6384 171.534 77.1217 171.778 76.6089 171.767C74.8336 171.724 73.0583 171.576 71.2829 171.561C70.1797 171.549 69.0725 171.771 67.9692 171.763C66.5086 171.755 65.0479 171.584 63.5872 171.553C61.7342 171.514 59.8773 171.545 58.0243 171.541C55.9032 171.541 54.8854 170.71 54.2211 168.706C53.2849 165.87 53.4208 163.049 53.9802 160.175C54.3842 158.085 55.8216 156.826 57.3095 155.56C57.3716 155.505 57.391 155.404 57.4299 155.326" stroke="black" stroke-opacity="0.5" stroke-width="0.25" stroke-linecap="round" stroke-linejoin="round"/>
<path d="M253.716 429.027C253.199 427.733 252.83 426.443 252.85 425.002C252.869 423.584 252.438 422.162 252.446 420.741C252.453 418.371 252.651 416.005 252.772 413.639C252.799 413.127 252.838 412.614 252.888 412.101C253.04 410.563 253.149 409.016 253.374 407.486C253.72 405.151 254.007 402.793 254.582 400.509C255.215 397.995 255.359 395.466 255.227 392.926C255.114 390.712 254.753 388.509 254.555 386.295C254.454 385.156 254.497 384.006 254.419 382.864C254.24 380.18 254.167 377.476 253.794 374.819C253.448 372.372 253.343 369.936 253.343 367.473C253.343 365.511 254.213 363.93 255.246 362.38C255.65 361.77 256.272 361.79 256.785 361.933C259.403 362.675 262.15 362.811 264.741 363.755C265.976 364.206 267.406 364.128 268.746 364.28C271.951 364.641 275.14 364.21 278.334 364.054C279.592 363.992 280.859 364.043 282.121 364.043C286.185 364.043 290.252 363.957 294.315 364.074C297.004 364.151 299.68 364.552 302.369 364.746C305.243 364.952 308.083 365.542 311.02 365.045C312.784 364.746 314.644 365.049 316.455 364.975C318.863 364.878 321.287 364.804 323.673 364.478C325.751 364.194 327.775 363.538 329.838 363.106C331.562 362.745 333.295 362.322 335.047 362.182C337.805 361.964 340.097 363.825 340.944 366.89C341.414 368.596 341.344 370.344 340.983 372.096C340.594 373.976 340.361 375.887 340.008 377.771C339.841 378.653 339.561 379.516 339.309 380.378C338.318 383.734 338.31 387.134 338.835 390.56C338.866 390.754 338.831 390.956 338.839 391.151C338.994 394.111 339.064 397.079 339.336 400.027C339.619 403.116 340.245 406.177 340.455 409.265C340.645 412.054 340.664 414.863 340.42 417.672C340.28 419.272 340.501 420.908 340.629 422.52C340.715 423.592 340.932 424.653 341.088 425.717" stroke="black" stroke-opacity="0.5" stroke-width="0.25" stroke-linecap="round" stroke-linejoin="round"/>
<path d="M24.5225 143.365C23.7999 144.216 23.7455 145.094 24.2739 146.093C25.6879 148.769 27.3506 148.998 29.4872 148.769C30.4079 148.672 31.1732 148.012 31.5034 147.033C31.5927 146.761 31.6627 146.481 31.7637 146.131C31.0489 144.64 29.9145 143.49 28.4305 142.651C26.9543 141.815 25.6918 142.192 24.4525 143.424" stroke="black" stroke-opacity="0.5" stroke-width="0.25" stroke-linecap="round" stroke-linejoin="round"/>
<path d="M290.831 29.4561C287.54 31.1887 285.027 34.3547 282.948 37.2877C282.117 38.4609 281.231 39.5914 280.346 40.7218C278.574 42.9828 279.122 45.5661 280.843 47.2172C283.725 49.9831 286.728 52.6364 290.194 54.6681C291.359 55.3518 292.688 55.7714 293.977 56.2026C294.342 56.3269 294.914 56.1948 295.251 55.9734C295.974 55.4994 297.318 54.066 297.99 53.5105" stroke="black" stroke-opacity="0.5" stroke-width="0.25" stroke-linecap="round" stroke-linejoin="round"/>
<path d="M297.991 53.5103C301.401 49.9674 303.802 45.8107 305.457 41.1995C305.519 41.0208 305.686 40.881 305.807 40.7217" stroke="black" stroke-opacity="0.5" stroke-width="0.25" stroke-linecap="round" stroke-linejoin="round"/>
<path d="M299.059 74.2274C298.884 69.2588 297.47 64.7059 293.935 61.1164C291.06 58.195 287.521 56.2566 283.426 55.534C280.758 55.0639 278.054 54.7842 275.381 54.3181C273.155 53.9296 270.96 53.3857 268.75 52.9157C267.25 52.5971 265.755 52.263 264.251 51.9756C262.876 51.7114 261.489 51.4977 260.11 51.2569C258.766 51.0238 257.426 50.7868 256.085 50.546C253.009 49.9943 249.932 49.4311 246.851 48.895C244.684 48.5181 242.512 48.1802 240.341 47.8267" stroke="black" stroke-opacity="0.5" stroke-width="0.25" stroke-linecap="round" stroke-linejoin="round"/>
<path d="M240.339 47.8267C239.947 47.8577 238.727 47.8888 238.086 47.9393C237.74 48.0209 237.138 48.1297 236.552 48.3045C232.352 49.5554 228.817 51.6997 226.206 55.3708C224.789 57.3637 223.464 59.341 222.691 61.6758C221.797 64.3757 221.246 67.1377 221.673 69.9581C221.918 71.5703 222.555 73.128 223.056 74.6975C223.845 77.1721 225.119 79.4097 226.98 81.185C229.808 83.881 233.176 85.7185 237.022 86.5188C240.083 87.1559 243.179 87.6221 246.252 88.2009C248.587 88.6399 250.902 89.176 253.24 89.6072C255.602 90.0423 257.98 90.3763 260.342 90.8075C263.663 91.4136 266.965 92.1167 270.291 92.6761C272.684 93.0801 275.119 93.2316 277.505 93.6628C281.467 94.3815 285.228 93.4958 288.852 92.1633C291.498 91.1922 293.595 89.2809 295.021 86.7713C296.043 84.9765 296.998 83.1429 297.989 81.3288C298.836 79.7787 299.026 78.0539 299.267 76.3524C299.36 75.6998 299.209 75.0121 299.17 74.344" stroke="black" stroke-opacity="0.5" stroke-width="0.25" stroke-linecap="round" stroke-linejoin="round"/>
<path d="M137.118 284.987C136.003 285.162 135.129 286.056 134.764 286.973C134.014 288.841 133.983 290.795 134.379 292.765C134.457 293.153 134.531 293.557 134.492 293.946C134.34 295.515 134.799 296.933 135.443 298.332C135.921 299.373 136.702 299.905 137.821 299.858C141.018 299.722 144.219 299.617 147.408 299.357C148.485 299.268 149.739 299.186 150.462 297.854L147.482 297.854C146.255 295.639 146.301 292.932 144.421 290.951C142.261 292.574 142.316 295.165 141.197 297.426C140.482 297.823 139.519 297.865 138.536 297.613C137.207 297.275 136.352 296.199 136.43 294.54C136.566 291.615 136.881 288.697 137.106 285.776C137.145 285.267 137.11 284.75 137.11 284.04C138.547 283.795 140.012 283.414 141.492 283.321C143.497 283.197 145.52 283.208 147.525 283.321C148.679 283.387 149.848 283.667 150.951 284.032C151.798 284.311 152.163 285.186 152.245 286.013C152.532 288.888 152.777 291.77 152.952 294.653C153.003 295.48 152.766 296.323 152.668 297.112C151.833 297.349 151.134 297.659 150.462 297.85" stroke="black" stroke-opacity="0.5" stroke-width="0.25" stroke-linecap="round" stroke-linejoin="round"/>
<path d="M305.922 40.8431C306.532 41.2666 307.146 41.69 307.655 42.0435C308.754 41.9425 309.022 41.2433 309.186 40.4197C308.191 36.6204 305.165 34.3245 302.368 31.8538C301.568 31.1507 300.693 30.5291 299.889 29.8299C297.64 27.8758 294.987 26.6832 292.182 25.8363C290.904 25.4517 289.556 25.4362 288.581 26.7531C288.911 28.1944 289.913 28.9403 291.114 29.6201C293.363 30.8904 295.647 32.1413 297.729 33.6602C300.573 35.7347 303.323 37.9645 305.685 40.6101" stroke="black" stroke-opacity="0.5" stroke-width="0.25" stroke-linecap="round" stroke-linejoin="round"/>
<path d="M91.8834 474.722C93.9346 474.645 99.6568 474.571 101.708 474.485C103.406 474.415 105.115 474.155 106.793 474.295C108.821 474.462 110.818 474.987 112.838 475.301C113.455 475.398 114.147 475.472 114.722 475.29C116.808 474.625 117.655 473.033 117.686 470.939C117.701 469.89 117.628 468.884 117.259 467.846C116.668 466.191 117.228 464.533 117.667 462.882C118.273 460.601 118.129 458.445 116.043 456.837C115.829 456.67 115.759 456.316 115.747 456.289C112.721 456.398 109.761 456.507 106.801 456.616C104.513 456.697 102.217 456.907 99.9365 456.814C97.6057 456.717 95.2709 456.666 92.9362 456.223C91.1997 455.893 89.3195 456.289 87.5053 456.382C86.4797 456.437 85.4541 456.553 84.4286 456.612C81.3518 456.779 78.2712 456.922 75.1945 457.089C72.4713 457.237 69.7481 457.412 67.0249 457.556C65.1719 457.653 63.3149 457.82 61.4619 457.773C57.752 457.688 54.0381 457.532 50.336 457.299C48.3081 457.175 46.6416 456.06 45.01 454.949C43.7436 454.087 42.516 453.158 41.2107 452.362C39.9598 451.6 39.2761 450.458 38.8682 449.145C38.1806 446.915 37.5396 444.662 36.9802 442.397C36.7549 441.484 36.7937 440.509 36.7316 439.561C36.7277 439.488 39.2139 436.197 39.2062 436.127C39.008 435.339 38.8799 434.523 38.6002 433.765C38.1146 432.448 38.0951 431.093 38.1534 429.737C38.2777 426.617 38.3554 423.49 38.6507 420.386C38.8799 417.962 39.4742 415.577 39.785 413.161C40.123 410.515 40.3289 407.889 39.6141 405.22C39.1246 403.394 38.9459 401.448 38.8915 399.549C38.8216 397.066 38.9148 394.568 39.1207 392.094C39.2877 390.07 39.7462 388.069 40.0259 386.053C40.1113 385.435 40.0686 384.79 40.0336 384.161C39.9831 383.252 39.8549 382.347 39.8083 381.438C39.6024 377.592 41.572 374.97 44.6643 373.043C46.9718 371.602 49.4658 370.425 52.1268 370.032C54.5199 369.679 57.01 369.958 59.4574 369.958C60.7588 369.958 62.0679 369.869 63.3616 369.982C65.067 370.129 66.753 370.467 68.4545 370.658C69.6704 370.794 70.898 370.879 72.1217 370.895C74.5691 370.93 77.0165 370.922 79.46 370.895C80.0543 370.887 80.6526 370.646 81.2353 370.689C83.2515 370.836 85.2599 371.069 87.2761 371.26C87.8666 371.314 88.461 371.357 89.0514 371.376C91.6542 371.462 94.2609 371.497 96.8637 371.629C98.4448 371.71 100.018 372.013 101.599 372.06C102.699 372.091 105.111 371.85 106.214 371.734C109.866 371.454 113.335 370.331 116.874 369.504C119.112 368.979 121.388 368.913 122.993 370.933C123.812 371.967 124.461 373.218 124.873 374.472C125.347 375.906 125.735 377.468 125.681 378.952C125.611 380.777 125.013 382.58 124.69 384.402C124.383 386.131 124.034 387.867 123.89 389.611C123.793 390.781 124.216 392.004 124.049 393.154C123.692 395.613 124.461 397.851 125.02 400.151C125.149 400.671 125.04 401.25 125.04 401.802C125.04 403.709 125.071 405.597 125.471 407.493C125.828 409.187 125.863 410.954 125.98 412.695C126.166 415.534 126.306 418.378 126.458 421.218C126.485 421.73 126.43 422.247 126.465 422.756C126.609 424.768 126.815 426.781 126.912 428.797C126.951 429.62 126.78 430.456 126.695 431.283C126.625 431.955 126.458 433.082 126.38 433.754C129.383 434.469 128.583 435.793 128.381 438.625C128.113 442.401 126.415 445.707 125.16 449.161C124.543 450.858 123.296 452.055 121.963 453.185" stroke="black" stroke-opacity="0.5" stroke-width="0.25" stroke-linecap="round" stroke-linejoin="round"/>
<path d="M54.9473 170.593C53.5254 171.067 52.1269 171.856 50.6818 171.945C48.013 172.108 45.3131 171.953 42.6365 171.747C40.5659 171.588 39.3888 170.038 39.3034 167.99C39.214 165.819 38.9654 163.651 38.8644 161.48C38.8255 160.617 39.078 159.743 39.0664 158.877C39.0237 155.68 38.7945 152.482 38.876 149.289C38.9654 145.735 39.2995 142.184 39.5598 138.633C39.6763 137.013 39.9094 135.401 40.0143 133.777C40.092 132.573 40.8068 131.858 41.8129 131.563C43.0755 131.19 44.4079 131.058 45.7093 130.821C45.9463 130.778 46.1833 130.743 46.4203 130.701" stroke="black" stroke-opacity="0.5" stroke-width="0.25" stroke-linecap="round" stroke-linejoin="round"/>
<path d="M46.4247 130.697C48.5108 130.572 51.2068 130.887 53.2891 131.221" stroke="black" stroke-opacity="0.5" stroke-width="0.25" stroke-linecap="round" stroke-linejoin="round"/>
<path d="M99.1223 225.45C103.473 225.687 107.828 225.924 112.183 226.161C112.257 223.154 112.323 220.407 112.396 217.502C107.886 217.323 103.617 217.156 99.2816 216.985C99.1883 219.817 99.099 222.626 99.0058 225.434" stroke="black" stroke-opacity="0.5" stroke-width="0.25" stroke-linecap="round" stroke-linejoin="round"/>
<path d="M328.773 449.86C327.037 449.899 325.3 449.922 323.564 449.985C321.827 450.043 320.091 450.175 318.355 450.206C316.183 450.245 314.007 450.125 311.844 450.237C309.039 450.381 306.238 450.688 303.437 450.925" stroke="black" stroke-opacity="0.5" stroke-width="0.25" stroke-linecap="round" stroke-linejoin="round"/>
<path d="M303.436 450.928C302.212 450.889 300.04 450.92 298.82 450.94C297.36 450.967 295.899 451.122 294.438 451.157C290.492 451.255 286.549 451.352 282.602 451.394C278.973 451.433 275.333 451.55 271.713 451.356C269.017 451.208 266.309 450.765 263.671 450.171C261.83 449.755 260.264 448.652 259.27 446.911C258.967 446.379 258.555 445.913 258.027 445.187C257.937 445.711 257.867 445.952 257.864 446.197C257.848 446.907 257.829 447.618 257.864 448.325C258.007 451.286 258.225 454.242 258.314 457.206C258.372 459.098 258.205 460.994 258.225 462.889C258.252 465.216 258.369 467.547 258.454 469.874C258.462 470.033 258.563 470.189 258.563 470.348C258.571 472.675 258.567 475.006 258.567 477.364C260.023 477.442 261.247 477.512 262.475 477.57C266.814 477.772 271.153 478.005 275.496 478.149C278.018 478.23 280.547 478.164 283.072 478.164C286.583 478.164 290.095 478.18 293.607 478.153C294.633 478.145 295.658 477.951 296.684 477.943C297.511 477.935 298.343 478.172 299.17 478.145C300.751 478.09 302.325 477.904 303.906 477.818C304.535 477.787 305.168 477.919 305.797 477.919C309.507 477.931 313.217 477.892 316.927 477.931C321.033 477.974 325.136 478.164 329.238 478.133C332.513 478.106 335.792 477.861 339.063 477.679C340.131 477.62 341.195 477.449 342.26 477.333" stroke="black" stroke-opacity="0.5" stroke-width="0.25" stroke-linecap="round" stroke-linejoin="round"/>
<path d="M146.931 170.714C148.426 171.759 150.217 171.813 151.907 171.969C154.308 172.186 156.744 172.074 159.125 171.541C160.279 171.281 161.32 170.831 161.957 169.762C162.101 169.525 162.19 169.215 162.194 168.939C162.213 167.202 162.073 165.454 162.229 163.733C162.683 158.683 162.33 153.629 162.431 148.579C162.497 145.265 162.353 141.947 162.481 138.638C162.551 136.839 162.672 135.075 162.229 133.304C162.031 132.504 161.634 131.96 160.904 131.657C159.805 131.202 158.729 130.767 157.474 130.794C155.741 130.829 153.997 130.546 152.268 130.623C150.722 130.689 149.161 130.95 147.657 131.327C145.602 131.835 144.693 133.141 144.693 135.207C144.693 141.365 144.689 147.518 144.697 153.676C144.697 154.348 144.771 155.016 144.81 155.688" stroke="black" stroke-opacity="0.5" stroke-width="0.25" stroke-linecap="round" stroke-linejoin="round"/>
<path d="M217.137 386.643C217.533 386.371 217.929 386.095 218.523 385.683C215.94 381.705 213.361 377.731 210.657 373.563C207.518 375.404 204.527 377.16 201.551 378.908C202.899 381.15 204.511 383.838 205.77 385.932" stroke="black" stroke-opacity="0.5" stroke-width="0.25" stroke-linecap="round" stroke-linejoin="round"/>
<path d="M205.548 385.563C206.228 388.019 207.017 391.08 207.743 393.694C211.325 393.119 214.716 392.129 218.15 391.134C217.754 389.584 217.385 388.155 217.012 386.702C214.409 388.17 211.923 389.576 209.402 391.002C208.104 389.192 206.939 387.56 205.77 385.933" stroke="black" stroke-opacity="0.5" stroke-width="0.25" stroke-linecap="round" stroke-linejoin="round"/>
<path d="M262.713 103.232C262.437 103.232 262.146 103.29 261.886 103.22C260.705 102.905 260.39 103.033 259.714 104.245C260.514 106.623 262.561 107.493 264.729 108.06C267.266 108.721 269.83 109.354 272.421 109.704C275.812 110.158 279.239 110.271 282.599 109.28C283.469 109.024 284.056 108.472 284.483 107.73C284.907 106.988 284.409 106.032 283.543 105.966C282.047 105.854 280.544 105.757 279.044 105.737C278.139 105.726 277.215 106.021 276.325 105.931C273.357 105.628 270.347 105.617 267.441 104.782C265.941 104.35 264.418 103.993 262.771 103.57C262.628 101.312 262.363 99.1331 262.394 96.9616C262.414 95.4193 262.833 93.8848 263.059 92.3426C263.098 92.0707 263.063 91.791 263.063 91.5151" stroke="black" stroke-opacity="0.5" stroke-width="0.25" stroke-linecap="round" stroke-linejoin="round"/>
<path d="M157.271 33.4542C155.181 33.493 136.22 32.9569 134.13 32.9802C132.471 32.9997 72.0361 33.3338 70.3773 33.3338C66.982 33.3338 63.5907 33.3337 60.1954 33.3299C59.9584 33.3299 30.4809 33.0191 30.244 32.9802" stroke="black" stroke-opacity="0.5" stroke-width="0.25" stroke-linecap="round" stroke-linejoin="round"/>
<path d="M30.2447 32.98C30.1282 32.0321 29.9417 31.0881 29.9029 30.1364C29.7902 27.2578 29.6737 24.3753 29.6737 21.4967C29.6737 19.6398 29.8757 17.7867 29.9961 15.8133C31.9424 15.8133 33.877 15.7861 35.8116 15.8211C38.5736 15.8716 41.3357 15.992 44.0978 16.0425C45.2787 16.0619 46.4636 15.9726 47.6484 15.9337" stroke="black" stroke-opacity="0.5" stroke-width="0.25" stroke-linecap="round" stroke-linejoin="round"/>
<path d="M47.6477 15.9336C49.9746 15.9724 63.7888 16.2754 66.1158 16.2754C67.1025 16.2754 68.0892 16.0696 69.0759 16.0696C70.0627 16.0696 71.0494 16.1978 72.0361 16.2949C72.6305 16.3531 73.221 16.5085 73.8115 16.5163C75.7033 16.5474 77.5991 16.5318 79.4949 16.5202C119.216 16.2366 156.996 15.9763 157.271 15.9375" stroke="black" stroke-opacity="0.5" stroke-width="0.25" stroke-linecap="round" stroke-linejoin="round"/>
<path d="M157.271 15.9365L157.271 33.4529" stroke="black" stroke-opacity="0.5" stroke-width="0.25" stroke-linecap="round" stroke-linejoin="round"/>
<path d="M79.6464 247.232C79.1647 243.11 78.6869 239.051 78.2013 234.902C68.7186 236.126 59.2942 237.342 49.7338 238.577C49.8814 239.777 49.6678 241.086 50.1417 242.477C50.5884 243.786 50.3282 245.317 50.6001 246.708C50.8721 248.091 50.6467 249.563 51.3771 250.868C51.513 251.109 51.3848 251.49 51.3965 251.804C51.4353 252.791 51.4819 253.778 51.5363 254.998C52.7561 254.831 53.8555 254.702 54.9471 254.52C57.95 254.023 60.9607 253.576 63.9403 252.966C68.0116 252.139 72.1255 251.82 76.255 251.552C77.568 251.466 78.8694 251.237 80.334 251.055C80.0621 249.769 79.8912 248.401 79.6425 247.228" stroke="black" stroke-opacity="0.5" stroke-width="0.25" stroke-linecap="round" stroke-linejoin="round"/>
<path d="M341.083 425.713C343.41 427.391 343.437 429.225 343.616 431.874C343.833 435.106 343.056 438.265 340.582 440.599C338.981 442.107 338.037 443.963 337.058 445.84C336.068 447.739 334.778 449.247 332.439 449.387C332.124 449.406 331.806 449.375 331.491 449.394C331.134 449.418 329.122 449.826 328.768 449.864" stroke="black" stroke-opacity="0.5" stroke-width="0.25" stroke-linecap="round" stroke-linejoin="round"/>
<path d="M296.323 451.064C296.362 451.142 296.63 451.6 296.692 451.631C298.378 452.497 298.262 453.904 297.877 455.427C296.96 459.051 297.275 470.08 299.283 473.258C298.541 473.16 297.799 473.075 297.061 472.966C295.523 472.737 293.981 472.5 292.442 472.255C291.494 472.108 290.554 471.886 289.599 471.797C288.223 471.669 286.836 471.583 285.457 471.556C283.406 471.517 281.347 471.459 279.304 471.568C276.499 471.719 273.698 472.014 270.897 472.259C269.277 472.403 267.603 472.368 266.069 472.815C265.296 473.04 264.783 472.861 264.216 472.842C264.767 471.331 265.486 469.936 265.75 468.46C265.987 467.127 266.154 458.336 266.003 456.969C265.832 455.458 265.4 453.974 265.237 452.463C265.183 451.938 265.591 451.363 265.789 450.808" stroke="black" stroke-opacity="0.5" stroke-width="0.25" stroke-linecap="round" stroke-linejoin="round"/>
<path d="M303.435 450.929C302.693 451.224 301.004 451.989 300.285 452.273C300.732 453.489 301.147 454.775 301.672 456.014C302.468 457.894 301.882 467.148 301.571 469.063C301.373 470.279 301.272 471.51 301.093 473.01C301.901 472.874 302.678 472.753 303.455 472.613C305.786 472.186 308.097 471.65 310.444 471.343C312.277 471.106 314.15 471.114 316.003 471.083C318.605 471.044 321.216 470.986 323.815 471.094C327.331 471.242 330.842 471.53 334.35 471.798C334.871 471.836 335.376 472.097 335.889 472.256" stroke="black" stroke-opacity="0.5" stroke-width="0.25" stroke-linecap="round" stroke-linejoin="round"/>
<path d="M262.596 37.6487C261.605 35.9433 260.175 34.875 258.218 34.4361C256.069 33.9582 253.952 33.3522 251.819 32.7928C249.481 32.1829 247.092 32.3033 244.718 32.3305C243.494 32.3461 242.271 32.5248 241.047 32.5442C239.66 32.5675 238.767 33.3444 237.974 34.2496C237.974 35.1858 237.714 36.1842 238.805 36.5571C239.349 36.7436 239.979 36.6853 240.573 36.697C242.9 36.7475 245.235 36.6853 247.554 36.8485C249.302 36.9728 251.035 37.338 252.763 37.6526C255.413 38.1382 258.051 38.6782 260.696 39.1793C261.081 39.2532 261.481 39.2493 261.9 39.2804C262.153 38.7287 262.37 38.247 262.588 37.7653" stroke="black" stroke-opacity="0.5" stroke-width="0.25" stroke-linecap="round" stroke-linejoin="round"/>
<path d="M85.2566 153.785L85.2566 145.498C85.2566 142.896 85.2295 140.289 85.2644 137.686C85.3149 133.899 85.4198 130.111 85.4897 126.319C85.4975 125.884 85.4159 125.453 85.3771 125.018" stroke="black" stroke-opacity="0.5" stroke-width="0.25" stroke-linecap="round" stroke-linejoin="round"/>
<path d="M105.983 214.498C109.149 215.236 112.319 215.897 115.601 215.846C116.658 215.831 117.718 216.087 118.771 216.219C119.117 213.477 119.443 210.851 119.789 208.116C115.403 207.564 111.138 207.032 106.985 206.511C106.647 209.215 106.321 211.798 105.998 214.382" stroke="black" stroke-opacity="0.5" stroke-width="0.25" stroke-linecap="round" stroke-linejoin="round"/>
<path d="M250.401 429.854C251.31 429.12 252.615 428.937 253.715 429.027" stroke="black" stroke-opacity="0.5" stroke-width="0.25" stroke-linecap="round" stroke-linejoin="round"/>
<path d="M51.043 457.556C49.2444 459.378 48.9414 461.53 49.4852 463.954C50.0913 466.65 50.033 469.338 49.1628 472.003C48.5762 473.802 49.5512 475.107 51.3965 475.068C53.8827 475.018 56.369 474.901 58.8553 474.847C60.3548 474.812 61.8543 474.87 63.3538 474.831C65.2884 474.785 67.223 474.61 69.1537 474.618C71.9624 474.629 74.7749 474.56 77.5681 475.146C78.6908 475.383 80.0388 474.404 80.2408 473.056C80.4311 471.782 80.2835 470.457 80.2835 469.156C80.2835 467.579 80.0505 465.951 80.3535 464.436C80.6215 463.099 80.4117 461.872 79.9805 460.776C79.4328 459.382 78.6869 457.968 77.3233 457.082" stroke="black" stroke-opacity="0.5" stroke-width="0.25" stroke-linecap="round" stroke-linejoin="round"/>
<path d="M347.356 461.344C347.745 463.651 348.129 465.955 348.518 468.274C350.138 467.89 351.498 467.567 352.811 467.257C352.317 464.724 351.87 462.412 351.412 460.058C349.874 460.501 348.615 460.862 347.352 461.227" stroke="black" stroke-opacity="0.5" stroke-width="0.25" stroke-linecap="round" stroke-linejoin="round"/>
<path d="M31.3902 147.509C32.6644 149.619 32.4546 151.651 31.5806 153.931C30.6948 156.246 29.2964 157.777 27.0044 158.375C23.3177 159.339 19.2892 158.29 17.6071 154.467C15.7347 150.217 17.0555 144.911 22.7505 143.368C23.2206 143.24 23.9276 143.124 24.6929 143.201" stroke="black" stroke-opacity="0.5" stroke-width="0.25" stroke-linecap="round" stroke-linejoin="round"/>
<path d="M126.571 463.169C126.571 466.001 126.75 473.709 126.75 476.735L147.863 476.735C147.009 471.529 148.442 466.301 147.405 460.967L126.404 460.967C126.466 461.786 126.52 462.478 126.571 463.169Z" stroke="black" stroke-opacity="0.5" stroke-width="0.25" stroke-linecap="round" stroke-linejoin="round"/>
<path d="M341.674 477.21C341.515 473.5 341.258 469.79 341.231 466.08C341.204 462.883 341.515 459.69 341.53 456.492C341.542 454.165 341.27 451.838 341.215 449.508C341.157 446.944 341.208 444.38 341.196 441.812C341.196 441.338 341.122 440.864 341.083 440.39" stroke="black" stroke-opacity="0.5" stroke-width="0.25" stroke-linecap="round" stroke-linejoin="round"/>
<path d="M180.316 409.257C180.157 408.942 179.92 408.643 179.854 408.309C179.229 405.189 178.634 402.066 177.986 398.729C175.002 399.191 172.092 399.646 169.117 400.108C169.897 403.701 170.783 407.485 171.552 411.032" stroke="black" stroke-opacity="0.5" stroke-width="0.25" stroke-linecap="round" stroke-linejoin="round"/>
<path d="M226.013 97.5514C226.542 98.6819 227.381 99.4161 228.476 100.077C231.619 101.964 235.092 102.912 238.573 103.779C240.876 104.35 243.289 104.591 245.666 104.734C247.787 104.863 249.757 104.28 250.988 102.376C250.565 101.122 249.699 100.822 248.51 100.717C243.914 100.306 239.334 99.8201 234.874 98.441C233.142 97.9049 231.444 97.3727 229.793 96.623C228.841 96.1918 227.804 95.9431 226.604 95.5469C226.394 96.3782 226.262 96.9065 226.13 97.4349" stroke="black" stroke-opacity="0.5" stroke-width="0.25" stroke-linecap="round" stroke-linejoin="round"/>
<path d="M92.9483 101.813C92.789 101.063 92.6103 100.317 92.4782 99.5637C92.2568 98.27 92.0664 96.9725 91.8489 95.5779C92.653 95.4458 93.3251 95.3332 94.2419 95.1855C94.5837 97.3649 94.9178 99.4665 95.2441 101.553C94.4827 101.685 93.7718 101.809 93.0609 101.933" stroke="black" stroke-opacity="0.5" stroke-width="0.25" stroke-linecap="round" stroke-linejoin="round"/>
<path d="M262.154 58.8714C260.911 59.6988 260.246 60.841 260.514 62.3444C261.699 63.9876 262.973 64.1391 264.026 63.3583C265.215 62.4764 265.53 61.513 264.842 60.1417C264.085 58.6383 263.506 58.347 262.154 58.8714ZM262.154 58.8714C261.843 58.5218 261.528 58.1216 261.167 57.7798C260.899 57.5273 260.561 57.3447 260.169 57.0728C259.916 57.403 259.695 57.6904 259.469 57.9895C259.858 58.5334 260.615 59.4929 260.977 59.998" stroke="black" stroke-opacity="0.5" stroke-width="0.25" stroke-linecap="round" stroke-linejoin="round"/>
<path d="M335.893 472.256C335.694 469.611 335.434 459.254 335.298 456.609C335.213 454.958 335.275 453.295 335.287 451.636C335.29 451.162 335.36 450.688 335.399 450.214" stroke="black" stroke-opacity="0.5" stroke-width="0.25" stroke-linecap="round" stroke-linejoin="round"/>
<path d="M58.0628 20.9054C58.0628 24.0909 58.1211 27.257 58.1211 30.2987C57.1111 30.796 56.6643 30.3104 56.4001 29.7898C55.1104 29.8908 53.9294 29.9841 52.7329 30.0773L52.7329 18.7183L54.5238 18.7183C54.5899 19.0135 54.6675 19.3709 54.7452 19.7244" stroke="black" stroke-opacity="0.5" stroke-width="0.25" stroke-linecap="round" stroke-linejoin="round"/>
<path d="M225.655 260.094C225.325 261.979 225.115 266.469 225.418 268.381C225.628 269.709 227.194 270.587 228.378 270.521C229.874 270.44 231.378 270.408 232.877 270.397C235.915 270.377 238.953 270.393 242.298 270.393C242.181 268.882 242.371 267.514 241.928 266.392C241.12 264.329 241.785 262.495 242.212 260.564C242.799 257.923 243.125 255.305 242.142 252.624C241.346 250.452 240.437 250.355 238.673 250.309C234.967 250.212 231.257 250.344 227.547 250.39C226.86 250.398 225.721 251.455 225.55 252.403C225.092 254.967 224.886 257.542 225.651 260.094" stroke="black" stroke-opacity="0.5" stroke-width="0.25" stroke-linecap="round" stroke-linejoin="round"/>
<path d="M242.341 284.751C242.621 283.158 242.799 279.359 242.543 277.743C242.364 276.62 241.043 275.878 240.037 275.932C238.771 276.002 237.501 276.03 236.234 276.037C233.662 276.053 231.697 276.041 228.869 276.041C228.966 277.319 228.204 278.477 228.577 279.425C229.261 281.169 228.698 282.719 228.336 284.355C227.843 286.588 227.563 288.803 228.395 291.071C229.067 292.905 229.84 292.99 231.328 293.029C234.463 293.111 237.602 293.002 240.737 292.959C241.315 292.952 242.279 292.058 242.423 291.258C242.811 289.09 242.986 286.911 242.337 284.751" stroke="black" stroke-opacity="0.5" stroke-width="0.25" stroke-linecap="round" stroke-linejoin="round"/>
<path d="M229.09 96.1303C229.129 95.5398 229.195 94.9454 229.203 94.355C229.245 91.1966 229.673 88.1044 230.753 85.1248C230.861 84.8295 231.063 84.5693 231.219 84.2935" stroke="black" stroke-opacity="0.5" stroke-width="0.25" stroke-linecap="round" stroke-linejoin="round"/>
<path d="M281.891 105.481C283.783 101.791 284.335 97.8553 284.024 93.7607" stroke="black" stroke-opacity="0.5" stroke-width="0.25" stroke-linecap="round" stroke-linejoin="round"/>
<path d="M259.279 50.787C259.594 49.0893 260.091 47.4033 260.18 45.6941C260.293 43.573 260.083 41.246 260.006 39.1133" stroke="black" stroke-opacity="0.5" stroke-width="0.25" stroke-linecap="round" stroke-linejoin="round"/>
<path d="M112.928 190.165C112.136 190.557 111.195 190.689 111.125 191.94C111.017 193.848 112.609 194.329 113.981 193.805C114.746 193.514 115.562 192.915 115.375 191.948C115.201 191.059 114.583 190.394 113.518 190.39C113.359 190.39 113.204 190.243 113.045 190.165" stroke="black" stroke-opacity="0.5" stroke-width="0.25" stroke-linecap="round" stroke-linejoin="round"/>
<path d="M247.796 100.509C249.509 98.2401 250.414 95.5984 251.207 92.9257C251.544 91.7836 251.626 90.5638 251.82 89.3828" stroke="black" stroke-opacity="0.5" stroke-width="0.25" stroke-linecap="round" stroke-linejoin="round"/>
<path d="M54.5124 29.782C54.5668 26.5033 54.6251 23.2285 54.6834 19.7788C55.3593 19.8759 55.8294 19.9459 56.4082 20.0274L56.4082 24.456C56.4082 26.1537 56.4082 28.0922 56.4082 29.7859" stroke="black" stroke-opacity="0.5" stroke-width="0.25" stroke-linecap="round" stroke-linejoin="round"/>
<path d="M80.1646 299.512C80.4288 300.503 80.6891 301.493 80.9726 302.566C82.7713 301.956 84.5194 301.361 86.2637 300.767C85.883 299.629 85.5683 298.685 85.1954 297.574C83.5599 298.18 81.804 298.906 80.1646 299.512Z" stroke="black" stroke-opacity="0.5" stroke-width="0.25" stroke-linecap="round" stroke-linejoin="round"/>
<path d="M177.726 374.807C177.816 375.608 177.89 376.641 177.979 377.468L185.884 377.468C185.884 376.773 185.729 376.023 186.525 375.74C186.417 375.347 186.343 375.071 186.253 374.745L176.775 374.745C176.747 374.586 176.689 374.232 176.612 373.774C179.366 373.681 181.972 373.607 184.579 373.494C185.325 373.463 185.488 374.081 185.43 374.691" stroke="black" stroke-opacity="0.5" stroke-width="0.25" stroke-linecap="round" stroke-linejoin="round"/>
<path d="M238.328 47.8656C237.963 44.0236 238.398 40.1855 240.457 36.8174" stroke="black" stroke-opacity="0.5" stroke-width="0.25" stroke-linecap="round" stroke-linejoin="round"/>
<path d="M266.147 284.599C266.664 286.382 268.261 286.755 269.71 287.03C271.124 287.302 272.266 287.897 273.381 288.724C273.971 289.163 274.667 289.455 275.595 289.967C275.778 289.606 275.933 289.288 276.166 288.821C275.735 288.386 275.346 287.718 274.775 287.473C273.14 286.766 271.667 285.912 270.366 284.641C269.764 284.055 268.672 283.969 267.806 283.647C266.971 283.336 266.474 283.631 266.268 284.478" stroke="black" stroke-opacity="0.5" stroke-width="0.25" stroke-linecap="round" stroke-linejoin="round"/>
<path d="M115.888 194.073C115.965 194.349 115.989 194.664 116.136 194.893C116.408 195.316 116.692 195.903 117.088 196.023C117.477 196.144 118.106 195.88 118.471 195.588C119.186 195.017 119.139 193.164 118.491 192.535C117.799 191.863 116.463 192.193 116.125 193.129C116.028 193.397 115.965 193.681 115.884 193.957" stroke="black" stroke-opacity="0.5" stroke-width="0.25" stroke-linecap="round" stroke-linejoin="round"/>
<path d="M352.329 165.858C352.924 165.792 353.514 165.726 354.077 165.659C354.831 164.552 354.947 163.216 354.338 162.544C353.786 161.938 353.188 161.569 352.325 162.054C351.039 162.777 350.674 163.573 351.028 165.143C351.381 165.341 351.739 165.539 352.092 165.733" stroke="black" stroke-opacity="0.5" stroke-width="0.25" stroke-linecap="round" stroke-linejoin="round"/>
<path d="M48.1808 26.9109L48.1808 18.9666C48.6664 18.8967 49.1054 18.8384 49.6376 18.7607C49.793 19.0599 49.9678 19.3939 50.197 19.8368L52.6211 19.8368" stroke="black" stroke-opacity="0.5" stroke-width="0.25" stroke-linecap="round" stroke-linejoin="round"/>
<path d="M48.1803 26.9118C48.2579 27.5023 48.2968 28.7143 48.3512 29.3087C48.3861 29.6622 48.3589 30.0196 48.3589 30.4314L50.0177 30.4314L50.0177 21.1391C50.0177 20.7428 50.041 19.927 50.041 19.5347" stroke="black" stroke-opacity="0.5" stroke-width="0.25" stroke-linecap="round" stroke-linejoin="round"/>
<path d="M171.556 411.033C174.318 410.442 177.554 409.848 180.316 409.257" stroke="black" stroke-opacity="0.5" stroke-width="0.25" stroke-linecap="round" stroke-linejoin="round"/>
<path d="M51.4355 28.5363C51.3967 28.2217 51.3268 27.6118 51.3229 27.2971C51.2763 24.8886 51.2413 22.2469 51.1985 19.8384" stroke="black" stroke-opacity="0.5" stroke-width="0.25" stroke-linecap="round" stroke-linejoin="round"/>
<path d="M177.85 376.108C179.664 376.03 181.696 375.918 183.514 375.887C184.264 375.875 185.25 376.096 186 376.174" stroke="black" stroke-opacity="0.5" stroke-width="0.25" stroke-linecap="round" stroke-linejoin="round"/>
<path d="M25.7083 147.983C25.2344 148.733 24.71 149.456 24.3098 150.244C24.1273 150.602 24.1933 151.083 24.2904 151.546C25.6346 150.913 26.1473 149.747 26.6562 148.578" stroke="black" stroke-opacity="0.5" stroke-width="0.25" stroke-linecap="round" stroke-linejoin="round"/>
<path d="M184.342 378.594L178.472 378.594C178.453 378.163 178.437 377.844 178.421 377.53" stroke="black" stroke-opacity="0.5" stroke-width="0.25" stroke-linecap="round" stroke-linejoin="round"/>
<path d="M115.916 455.901C117.889 455.073 119.862 454.242 121.836 453.415" stroke="black" stroke-opacity="0.5" stroke-width="0.25" stroke-linecap="round" stroke-linejoin="round"/>
<path d="M350.908 165.031C350.709 165.07 350.515 165.136 350.317 165.143C349.152 165.187 348.478 165.819 348.297 167.039C348.285 167.129 348.149 167.198 347.932 167.416C348.557 167.781 349.109 168.224 349.734 168.438C350.682 168.764 351.852 167.898 352.089 166.802C352.155 166.491 352.17 166.173 352.213 165.854" stroke="black" stroke-opacity="0.5" stroke-width="0.25" stroke-linecap="round" stroke-linejoin="round"/>
<path d="M141.189 297.427C142.265 297.248 143.664 297.298 144.701 297.683C145.427 297.955 146.647 297.854 147.475 297.854" stroke="black" stroke-opacity="0.5" stroke-width="0.25" stroke-linecap="round" stroke-linejoin="round"/>
<path d="M241.404 466.436C240.755 466.63 240.169 466.914 240.347 467.737C240.546 468.646 241.237 468.46 242.072 468.413C241.785 467.734 242.488 466.98 241.521 466.556" stroke="black" stroke-opacity="0.5" stroke-width="0.25" stroke-linecap="round" stroke-linejoin="round"/>
<path d="M335.4 450.218C333.858 450.098 331.356 450.486 329.884 449.667" stroke="black" stroke-opacity="0.5" stroke-width="0.25" stroke-linecap="round" stroke-linejoin="round"/>
<path d="M56.2891 19.9584C56.3552 19.5622 56.4212 19.1621 56.495 18.7153L57.8858 18.7153C57.9402 19.4029 58.0023 20.1527 58.0645 20.9063" stroke="black" stroke-opacity="0.5" stroke-width="0.25" stroke-linecap="round" stroke-linejoin="round"/>
<path d="M367.127 348.169C367.585 345.978 366.886 344.118 365.6 342.362C363.215 339.102 359.94 337.304 356.117 336.333C355.608 336.204 355.092 336.096 354.579 335.975" stroke="black" stroke-opacity="0.5" stroke-width="0.25" stroke-linecap="round" stroke-linejoin="round"/>
<path d="M350.67 334.557C351.144 333.135 351.715 331.414 352.356 330.07C353.821 327.005 356 324.573 359.197 323.198C359.364 323.128 359.589 323.19 359.873 323.19C358.611 326.745 356.245 329.74 354.221 332.778" stroke="black" stroke-opacity="0.5" stroke-width="0.25" stroke-linecap="round" stroke-linejoin="round"/>
<path d="M354.225 332.778C353.397 333.687 351.653 335.295 350.822 336.2" stroke="black" stroke-opacity="0.5" stroke-width="0.25" stroke-linecap="round" stroke-linejoin="round"/>
<path d="M350.908 355.391C351.988 354.214 352.365 352.73 352.819 351.254C353.546 348.877 352.835 346.453 353.15 344.056" stroke="black" stroke-opacity="0.5" stroke-width="0.25" stroke-linecap="round" stroke-linejoin="round"/>
<path d="M350.791 355.745C350.356 354.008 349.762 352.291 349.532 350.531C349.295 348.702 349.225 346.81 349.416 344.976C349.649 342.746 350.247 340.552 350.655 338.337C350.69 338.143 350.511 337.906 350.434 337.688" stroke="black" stroke-opacity="0.5" stroke-width="0.25" stroke-linecap="round" stroke-linejoin="round"/>
<path d="M367.127 348.169C365.624 347.128 363.339 345.842 361.801 344.855C361.56 344.7 361.277 344.583 361.098 344.377C358.674 341.568 355.403 339.867 352.446 337.754C352.171 337.555 351.658 337.357 351.382 337.163" stroke="black" stroke-opacity="0.5" stroke-width="0.25" stroke-linecap="round" stroke-linejoin="round"/>
<path d="M350.081 336.449C346.631 334.561 344.452 331.379 342.859 327.926C341.499 324.981 341.387 324.6 341.573 323.579C346.037 326.018 349.304 329.386 350.555 334.437" stroke="black" stroke-opacity="0.5" stroke-width="0.25" stroke-linecap="round" stroke-linejoin="round"/>
<path d="M350.672 334.558C350.714 335.036 350.757 335.51 350.823 336.205C352.179 336.084 353.581 336.286 354.669 335.797C357.497 334.527 359.882 332.227 360.531 330.521C359.296 330.96 358.061 331.396 356.829 331.835C355.959 332.145 355.093 332.464 354.222 332.782" stroke="black" stroke-opacity="0.5" stroke-width="0.25" stroke-linecap="round" stroke-linejoin="round"/>
<path d="M350.434 337.692C348.079 341.285 344.808 344.793 341.553 347.575C341.211 347.866 340.846 348.134 340.489 348.402C340.392 348.476 340.267 348.511 340.088 348.592C340.015 348.379 339.867 348.177 339.914 348.052C340.85 345.625 341.607 343.123 343.321 341.052C344.987 339.032 347.143 337.797 349.49 336.798C349.699 336.709 349.886 336.565 350.084 336.449" stroke="black" stroke-opacity="0.5" stroke-width="0.25" stroke-linecap="round" stroke-linejoin="round"/>
<path d="M346.149 338.546C345.003 338.27 343.259 338.006 342.16 337.61C340.567 337.035 339.032 336.305 337.475 335.637C337.416 335.512 337.358 335.388 337.296 335.264C337.533 335.147 337.758 334.999 338.007 334.914C340.819 333.943 343.663 333.884 346.534 334.661C346.709 334.708 347.179 334.529 347.377 334.49" stroke="black" stroke-opacity="0.5" stroke-width="0.25" stroke-linecap="round" stroke-linejoin="round"/>
<path d="M356.945 340.947C356.137 342.644 353.01 344.121 353.15 344.055C352.82 341.704 352.567 339.591 351.394 337.746C351.305 337.606 351.382 337.357 351.382 337.163" stroke="black" stroke-opacity="0.5" stroke-width="0.25" stroke-linecap="round" stroke-linejoin="round"/>
<path d="M353.156 328.046C351.214 327.013 349.213 326.675 347.119 327.572" stroke="black" stroke-opacity="0.5" stroke-width="0.25" stroke-linecap="round" stroke-linejoin="round"/>
<path d="M340.962 334.226C341.3 332.49 342.097 330.73 343.328 329.463" stroke="black" stroke-opacity="0.5" stroke-width="0.25" stroke-linecap="round" stroke-linejoin="round"/>
<path d="M349.393 345.209C348.184 344.941 346.475 344.805 345.558 343.768" stroke="black" stroke-opacity="0.5" stroke-width="0.25" stroke-linecap="round" stroke-linejoin="round"/>
<path d="M358.517 336.997C358.751 335.874 358.762 334.604 358.129 333.609" stroke="black" stroke-opacity="0.5" stroke-width="0.25" stroke-linecap="round" stroke-linejoin="round"/>
<path d="M342.621 341.659C341.355 340.52 340.881 338.811 340.846 337.16" stroke="black" stroke-opacity="0.5" stroke-width="0.25" stroke-linecap="round" stroke-linejoin="round"/>
<path d="M357.229 331.69C356.914 331.255 356.432 330.49 356.117 330.059" stroke="black" stroke-opacity="0.5" stroke-width="0.25" stroke-linecap="round" stroke-linejoin="round"/>
<path d="M50.0383 28.6086C50.7881 28.5697 51.9885 28.5076 52.7383 28.4648" stroke="black" stroke-opacity="0.5" stroke-width="0.25" stroke-linecap="round" stroke-linejoin="round"/>
<path d="M184.342 378.594L184.342 377.53" stroke="black" stroke-opacity="0.5" stroke-width="0.25" stroke-linecap="round" stroke-linejoin="round"/>
<path d="M242.943 473.421C245.134 472.299 246.987 470.869 247.302 468.208C247.399 467.396 247.236 466.553 247.193 465.718C245.961 464.141 244.54 462.797 242.469 462.412C240.095 461.973 238.534 462.459 237.275 464.312C236.723 465.128 236.18 465.994 235.865 466.914C234.917 469.696 236.521 472.046 239.05 472.901C240.231 473.301 241.56 473.258 242.826 473.418" stroke="black" stroke-opacity="0.5" stroke-width="0.25" stroke-linecap="round" stroke-linejoin="round"/>
<path d="M261.765 170.83C262.748 170.107 263.101 169.362 262.713 168.818C262.266 168.192 261.59 168.107 260.945 168.262C260.658 168.328 260.335 168.748 260.254 169.062C260.075 169.754 260.436 170.271 261.058 170.593C261.244 170.69 261.45 170.752 261.648 170.834" stroke="black" stroke-opacity="0.5" stroke-width="0.25" stroke-linecap="round" stroke-linejoin="round"/>
<path d="M259.278 257.251C259.908 256.917 260.42 256.548 260.479 255.712C260.587 254.12 260.16 253.292 258.07 253.463C257.324 254.376 257.13 255.413 257.515 256.536C257.79 257.344 258.501 257.274 259.166 257.247" stroke="black" stroke-opacity="0.5" stroke-width="0.25" stroke-linecap="round" stroke-linejoin="round"/>
<path d="M351.382 169.883C353.037 169.401 354.738 168.978 355.76 167.396C358.798 162.676 357.858 156.675 351.382 154.849C349.855 154.418 348.546 155.078 347.241 155.688C345.749 156.387 344.533 157.444 343.943 159.002C343.24 160.851 342.758 164.46 344.739 166.111C345.442 166.697 346.072 167.393 346.631 168.119C347.827 169.669 349.459 169.972 351.262 169.887" stroke="black" stroke-opacity="0.5" stroke-width="0.25" stroke-linecap="round" stroke-linejoin="round"/>
<path d="M357.776 477.447C359.275 476.697 360.903 476.126 362.247 475.162C365.506 472.82 367.445 469.755 367.041 465.489C366.854 463.493 366.617 461.538 365.568 459.821C363.397 456.255 360.227 454.379 355.996 454.212C354.586 454.154 353.207 453.854 351.851 454.484C349.132 455.739 346.894 457.592 345.263 460.078C344.746 460.866 344.641 461.939 344.404 462.894C343.818 465.252 343.596 467.638 344.773 469.867C345.982 472.148 347.563 474.141 349.96 475.329C350.371 475.535 350.764 475.776 351.144 476.04C352.147 476.736 353.219 477.035 354.462 477.019C355.526 477.008 356.591 477.299 357.659 477.458" stroke="black" stroke-opacity="0.5" stroke-width="0.25" stroke-linecap="round" stroke-linejoin="round"/>
<path d="M264.013 166.569C264.751 166.239 265.567 166.072 265.925 165.155C266.348 164.059 266.193 163.065 265.315 162.307C264.685 161.763 263.139 161.635 262.475 162.07C261.803 162.509 261.403 163.745 261.651 164.673C261.714 164.91 261.857 165.124 262.079 165.59C262.525 165.831 263.209 166.2 263.893 166.569" stroke="black" stroke-opacity="0.5" stroke-width="0.25" stroke-linecap="round" stroke-linejoin="round"/>
<path d="M262.359 157.809C263.136 157.475 263.94 157.276 264.286 156.282C264.62 155.315 264.523 154.573 263.777 153.905C263.381 153.547 261.543 153.357 261.178 153.675C260.459 154.301 260.374 155.186 260.483 156.033C260.607 157.012 261.434 157.432 262.238 157.813" stroke="black" stroke-opacity="0.5" stroke-width="0.25" stroke-linecap="round" stroke-linejoin="round"/>
<path d="M245.308 478.157C247.977 477.586 250.223 476.277 252.188 474.385C253.73 472.901 254.527 471.106 254.764 469.039C254.919 467.707 254.923 466.355 255.016 465.015C255.191 462.49 254.134 460.435 252.515 458.632C251.473 457.474 250.428 456.231 248.851 455.796C246.419 455.128 244.038 454.545 241.389 454.875C236.898 455.439 234.501 458.205 232.761 461.934C232.341 462.831 231.801 463.36 231.595 464.661C231.51 465.061 231.568 465.539 231.591 465.951C231.731 468.453 232.947 470.632 234 472.796C235.045 474.952 237.061 476.234 239.26 477.228C241.179 478.099 243.168 478.153 245.192 478.149" stroke="black" stroke-opacity="0.5" stroke-width="0.25" stroke-linecap="round" stroke-linejoin="round"/>
<path d="M111.653 302.236C111.968 302.158 112.283 302.018 112.601 302.006C115.033 301.921 116.167 300.911 116.249 298.444C116.342 295.647 116.292 292.842 116.264 290.041C116.245 288.161 114.963 286.794 112.959 286.813C111.067 286.836 109.171 286.498 107.275 286.522C105.892 286.537 104.498 286.813 103.134 287.1C102.007 287.337 101.79 288.324 101.576 289.326C100.877 292.539 100.589 295.791 101.04 299.031C101.359 301.319 102.194 301.874 104.552 301.987C106.879 302.1 109.21 302.154 111.537 302.232" stroke="black" stroke-opacity="0.5" stroke-width="0.25" stroke-linecap="round" stroke-linejoin="round"/>
<path d="M199.97 402.389C200.137 401.65 200.308 400.912 200.498 400.081L198.171 400.081C198.229 400.858 198.288 401.569 198.35 402.389L199.853 402.389" stroke="black" stroke-opacity="0.5" stroke-width="0.25" stroke-linecap="round" stroke-linejoin="round"/>
<path d="M159.685 480.002L12.3516 480.002L12.3516 437.351L1.04309 437.351L1.04309 491.171L382.949 491.171L382.949 437.351L371.641 437.351L371.641 480.002L224.308 480.002L224.308 477.419L215.26 477.419L215.26 480.002L195.226 480.002L195.226 370.149L224.304 370.149L224.304 361.102L215.256 361.102L215.256 363.685L168.728 363.685L168.728 361.102L159.681 361.102L159.681 370.149L188.758 370.149L188.758 480.002L168.725 480.002L168.725 477.419L159.677 477.419L159.677 480.002L159.685 480.002Z" fill="#E6E6E6" stroke="black" stroke-width="0.25" stroke-miterlimit="10"/>
<path d="M160.687 304.233L97.6492 304.233L97.6492 278.368L89.8953 278.368L89.8953 304.233L12.3517 304.233L12.3517 280.971L1.04318 280.971C1.04318 307.251 1.04318 333.528 1.04318 359.808L12.3517 359.808L12.3517 317.157L159.685 317.157L159.685 319.741C162.699 319.741 165.718 319.741 168.732 319.741C168.732 305.95 168.732 292.159 168.732 278.368L160.691 278.368L160.691 304.233L160.687 304.233Z" fill="#E6E6E6" stroke="black" stroke-width="0.25" stroke-miterlimit="10"/>
<path d="M323.819 317.157C339.759 317.157 355.698 317.157 371.637 317.157L371.637 359.808L382.945 359.808L382.945 280.971L371.637 280.971L371.637 304.233C355.698 304.233 339.759 304.233 323.819 304.233L323.819 317.157Z" fill="#E6E6E6" stroke="black" stroke-width="0.25" stroke-miterlimit="10"/>
<path d="M160.687 237.049L168.729 237.049L168.729 174.99L12.3478 174.99C12.3478 160.772 12.3478 146.558 12.3478 132.339L1.03928 132.339C1.03927 166.374 1.03927 200.408 1.03927 234.438L12.3478 234.438L12.3478 187.911L89.8914 187.911L89.8914 237.006L97.6453 237.006L97.6453 187.911L160.683 187.911L160.683 237.045L160.687 237.049Z" fill="#E6E6E6" stroke="black" stroke-width="0.25" stroke-miterlimit="10"/>
<path d="M12.3478 54.7961L12.3478 12.1453L168.729 12.1454L168.729 1L1.03928 0.999993L1.03927 54.7961L12.3478 54.7961Z" fill="#E6E6E6" stroke="black" stroke-width="0.25" stroke-miterlimit="10"/>
<path d="M382.949 70.3084L382.949 1.00439L316.714 1.00439L316.714 12.1497L371.641 12.1497L371.641 70.3084L382.949 70.3084Z" fill="#E6E6E6" stroke="black" stroke-width="0.25" stroke-miterlimit="10"/>
<path d="M215.256 0.999999L215.256 12.1454L238.518 12.1454L238.518 1L215.256 0.999999Z" fill="#E6E6E6" stroke="black" stroke-width="0.25" stroke-miterlimit="10"/>
<path d="M215.256 174.991L215.256 187.916L247.566 187.916L247.566 304.233L215.256 304.233L215.256 319.741C218.271 319.741 221.289 319.741 224.304 319.741L224.304 317.158L282.462 317.158L282.462 304.233L254.03 304.233L254.03 234.467L294.093 234.467L294.093 187.916L371.637 187.916L371.637 234.443L382.945 234.443L382.945 116.833L371.637 116.833C371.637 136.217 371.637 155.606 371.637 174.991L215.256 174.991Z" fill="#E6E6E6" stroke="black" stroke-width="0.25" stroke-miterlimit="10"/>
</svg>
