<svg width="152" height="20" viewBox="0 0 152 20" fill="none" xmlns="http://www.w3.org/2000/svg">
<g fill="#000">
<path d="M0 0H27.9C28.6333 0 29.325 0.191667 29.975 0.575C30.625 0.958333 31.15 1.475 31.55 2.125C31.95 2.775 32.15 3.49167 32.15 4.275V15.7C32.15 16.4667 31.95 17.1833 31.55 17.85C31.15 18.5 30.625 19.025 29.975 19.425C29.325 19.8083 28.6333 20 27.9 20H0V0ZM27.525 17.075C28.0083 17.075 28.4083 16.9167 28.725 16.6C29.0583 16.2667 29.225 15.8417 29.225 15.325L29.2 4.625C29.2 4.10833 29.0417 3.69167 28.725 3.375C28.4083 3.05833 28 2.9 27.5 2.9H2.925V17.075H27.525Z" />
<path d="M62.1748 20C61.4415 20 60.7415 19.8083 60.0748 19.425C59.4248 19.025 58.8998 18.5 58.4998 17.85C58.1165 17.2 57.9248 16.4917 57.9248 15.725V4.275C57.9248 3.49167 58.1248 2.775 58.5248 2.125C58.9248 1.45833 59.4498 0.941666 60.0998 0.575C60.7498 0.191667 61.4415 0 62.1748 0H85.8498C86.5831 0 87.2748 0.191667 87.9248 0.575C88.5915 0.958333 89.1165 1.48333 89.4998 2.15C89.8998 2.8 90.0998 3.50833 90.0998 4.275V7.075H87.1998V4.65C87.1998 4.13333 87.0331 3.71667 86.6998 3.4C86.3831 3.06667 85.9831 2.9 85.4998 2.9H62.5498C62.0665 2.9 61.6581 3.06667 61.3248 3.4C61.0081 3.71667 60.8498 4.13333 60.8498 4.65V15.325C60.8498 15.8417 61.0165 16.2667 61.3498 16.6C61.6831 16.9167 62.0915 17.075 62.5748 17.075H85.4748C85.9748 17.075 86.3831 16.9167 86.6998 16.6C87.0165 16.2667 87.1748 15.85 87.1748 15.35L87.1998 11.775H73.9998V9.275H90.0998V15.725C90.0998 16.5083 89.8998 17.225 89.4998 17.875C89.0998 18.525 88.5665 19.0417 87.8998 19.425C87.2498 19.8083 86.5581 20 85.8248 20H62.1748Z" />
<path d="M116.094 0H118.919L133.494 12.05L148.069 0H151.019V20H148.094V3.675L133.919 15.4H133.069L119.019 3.8V20H116.094V0Z" />
</g>
</svg>
