<svg width="20" height="12" viewBox="0 0 20 12" fill="none" xmlns="http://www.w3.org/2000/svg">
<path d="M0.722656 10.4346L9.60547 1.08301C9.78516 0.887695 9.99609 0.790039 10.2383 0.790039C10.3555 0.790039 10.4688 0.817383 10.5781 0.87207C10.6875 0.926758 10.7852 1.00098 10.8711 1.09473L19.7539 10.4463C19.918 10.6025 20 10.79 20 11.0088C20 11.165 19.9609 11.3018 19.8828 11.4189C19.8125 11.5361 19.7188 11.6299 19.6016 11.7002C19.4844 11.7705 19.3477 11.8057 19.1914 11.8057C18.957 11.8057 18.7656 11.7314 18.6172 11.583L9.72266 2.23145H10.7539L1.84766 11.583C1.71484 11.7314 1.52344 11.8057 1.27344 11.8057C1.125 11.8057 0.988281 11.7705 0.863281 11.7002C0.746094 11.6299 0.652344 11.5361 0.582031 11.4189C0.511719 11.3018 0.476562 11.165 0.476562 11.0088C0.476562 10.8994 0.496094 10.7939 0.535156 10.6924C0.582031 10.5908 0.644531 10.5049 0.722656 10.4346Z" fill="black"/>
</svg>
